<svg width="445" height="318" viewBox="0 0 445 318" fill="none" xmlns="http://www.w3.org/2000/svg">
<path d="M398.795 194.205C391.697 190.079 384.882 182.418 381.865 174.685C380.015 169.942 380.427 163.727 380.064 158.705C379.628 152.669 379.283 146.627 379.03 140.581C378.555 129.249 378.367 117.702 374.758 106.95C371.341 96.7673 364.045 86.6463 353.448 83.1993C344.339 80.2363 336.555 79.7803 331.815 70.2173C323.963 54.3733 328.16 33.0413 310.085 23.6903C299.816 18.3773 287.662 18.4923 276.131 19.3453C264.6 20.1983 252.796 21.6433 241.636 18.6213C232.143 16.0513 223.819 10.4303 214.944 6.19231C206.069 1.95431 195.732 -0.920689 186.471 2.38731C176.995 5.77231 170.759 14.8933 166.853 24.1663C162.946 33.4393 160.671 43.4303 155.689 52.1733C142.222 75.8033 114.986 65.9373 94.674 77.6603C74.014 89.5853 60.942 113.847 64.971 137.802C67.418 152.347 75.307 167.782 68.583 180.909C63.075 191.664 50.082 195.758 40.513 203.136C19.477 219.355 21.948 245.809 27.547 268.733C31.591 285.289 40.931 301.675 52.163 314.485H419.627C430.542 314.485 439.85 306.494 441.405 295.691C443.434 281.591 444.8 265.629 444.149 254.895C443.174 238.819 437.047 222.332 424.385 212.379C419.69 208.689 414.51 205.709 409.566 202.38C405.785 199.835 402.651 196.447 398.795 194.205Z" fill="#807BEF"/>
<path d="M419.437 315.633C427.675 315.633 433.24 307.222 430.015 299.641C428.892 297.001 427.807 294.352 426.709 291.75C421.096 278.441 413.052 264.346 399.251 260.084C379.646 254.028 358.431 270.807 338.75 265.004C327.419 261.663 319.604 251.683 311.114 243.468C285.587 218.768 259.301 239.115 230.066 241.437C211.685 242.897 192.632 233.797 180.729 219.594C171.338 208.39 153.197 205.181 140.619 212.631C128.998 219.514 121.156 231.197 113.114 242.079C104.956 253.119 95.421 264.248 82.314 268.329C65.779 273.477 46.779 266.326 31.014 273.494C19.5 278.729 12.535 290.318 4.708 300.254C4.659 300.316 4.61 300.378 4.561 300.44C-0.312001 306.587 3.986 315.634 11.829 315.634H419.437V315.633Z" fill="#5E5ECC"/>
<path d="M281.006 114.868L278.919 112.781L276.137 115.564L273.354 112.781L271.267 114.868L274.049 117.651L271.267 120.434L273.354 122.521L276.137 119.738L278.919 122.521L281.006 120.434L278.224 117.651L281.006 114.868Z" fill="#FF5E6B"/>
<path d="M141.891 266.66L139.804 264.573L137.021 267.356L134.238 264.573L132.151 266.66L134.934 269.443L132.151 272.226L134.238 274.313L137.021 271.53L139.804 274.313L141.891 272.226L139.108 269.443L141.891 266.66Z" fill="#B2AEFF"/>
<path d="M81.619 195.46L79.532 193.373L76.749 196.156L73.966 193.373L71.879 195.46L74.662 198.243L71.879 201.026L73.966 203.113L76.749 200.33L79.532 203.113L81.619 201.026L78.836 198.243L81.619 195.46Z" fill="#FFCD08"/>
<path d="M87.5601 145.58L82.7461 153.845H92.3741L87.5601 145.58Z" fill="#B2AEFF"/>
<path d="M198.004 21.3413L189.74 16.5273V26.1563L198.004 21.3413Z" fill="#FFCD08"/>
<path d="M335.26 156.454L326.996 151.64V161.268L335.26 156.454Z" fill="#FFCD08"/>
<path d="M200.524 141.199C200.524 143.568 198.604 145.488 196.235 145.488C193.866 145.488 191.946 143.568 191.946 141.199C191.946 138.83 193.866 136.91 196.235 136.91C198.604 136.91 200.524 138.831 200.524 141.199Z" fill="#FFCD08"/>
<path d="M155.18 72.7251C155.18 74.9931 153.342 76.8311 151.074 76.8311C148.806 76.8311 146.968 74.9931 146.968 72.7251C146.968 70.4571 148.806 68.6191 151.074 68.6191C153.342 68.6191 155.18 70.4571 155.18 72.7251Z" fill="#B2AEFF"/>
<path d="M371.13 299.35C370.984 300.595 364.276 307.349 360.276 307.92C356.276 308.491 348.281 315.919 348.281 315.919H335.141C335.141 315.919 351.992 301.066 354.85 295.639C356.848 289.638 353.708 248.793 352.566 240.508C352.072 236.923 351.524 231.951 351.063 227.464C350.452 221.572 349.994 216.514 349.994 216.514C349.994 216.514 363.705 214.516 371.416 215.372C372.81 218.104 373.53 222.362 373.792 227.464C374.814 247.445 368.79 280.408 368.561 285.642C368.276 292.21 371.768 293.963 371.13 299.35Z" fill="#F67159"/>
<path d="M373.792 227.464H351.063C350.452 221.572 349.994 216.514 349.994 216.514C349.994 216.514 363.705 214.516 371.416 215.372C372.81 218.103 373.53 222.362 373.792 227.464Z" fill="#D84554"/>
<path d="M333.894 315.94C332.784 315.929 332.29 314.514 333.171 313.839C333.184 313.829 333.197 313.819 333.21 313.809C334.39 312.924 338.555 310.547 340.845 308.793C341.448 308.331 342.198 308.087 342.956 308.134C344.044 308.201 345.221 308.499 346.353 308.895C350.462 310.332 355.029 309.568 358.333 306.733C358.365 306.706 358.397 306.678 358.429 306.65C358.491 306.596 364.387 301.71 365.631 298.153C366.36 296.068 367.565 294.137 369.773 292.884C372.196 295.637 372.747 298.831 372.636 302.575C372.526 306.319 371.865 317.002 371.865 317.002H368.451L367.24 304.778C367.24 304.778 360.94 309.826 356.778 312.707C356.177 313.124 355.624 313.516 355.125 313.875C353.109 315.331 350.683 316.106 348.196 316.081L333.894 315.94Z" fill="#F39E23"/>
<path d="M395.621 300.452C395.475 301.697 388.767 308.451 384.767 309.022C380.767 309.593 372.772 317.021 372.772 317.021H359.631C359.631 317.021 376.482 302.168 379.34 296.741C381.338 290.74 378.198 249.894 377.056 241.61C376.561 238.025 376.014 233.053 375.552 228.566C374.941 222.675 374.483 217.616 374.483 217.616C374.483 217.616 388.194 215.618 395.905 216.474C397.299 219.206 398.019 223.464 398.282 228.566C399.304 248.547 393.28 281.51 393.051 286.744C392.767 293.312 396.259 295.065 395.621 300.452Z" fill="#F68962"/>
<path d="M398.283 228.566H375.553C374.942 222.675 374.484 217.616 374.484 217.616C374.484 217.616 388.195 215.618 395.906 216.474C397.301 219.206 398.021 223.464 398.283 228.566Z" fill="#D84554"/>
<path d="M358.385 317.042C357.275 317.031 356.781 315.616 357.662 314.941C357.675 314.931 357.688 314.921 357.701 314.911C358.881 314.026 363.046 311.649 365.336 309.895C365.939 309.433 366.689 309.189 367.447 309.236C368.535 309.303 369.712 309.601 370.844 309.997C374.954 311.434 379.52 310.67 382.824 307.835C382.856 307.808 382.888 307.78 382.92 307.752C382.982 307.698 388.878 302.812 390.122 299.255C390.851 297.17 392.056 295.239 394.264 293.986C396.687 296.739 397.238 299.933 397.127 303.677C397.017 307.421 396.356 315.739 396.356 315.739H392.942L391.731 305.879C391.731 305.879 385.431 310.927 381.269 313.808C380.667 314.225 380.115 314.617 379.616 314.976C377.6 316.432 375.174 317.207 372.687 317.182L358.385 317.042Z" fill="#FFCD08"/>
<path d="M399.771 223.062H368.521C355.145 223.062 343.827 223.062 343.827 223.062C343.827 223.062 336.153 184.115 336.787 165.734C336.998 159.614 338.553 153.343 340.11 149.271C341.743 144.999 343.037 142.304 343.037 142.304C343.037 142.304 374.443 128.941 392.283 142.523C392.283 142.523 394.105 145.009 396.057 149.234C398.115 153.695 400.312 160.094 400.651 167.559C401.311 182.094 398.228 217.997 399.771 223.062Z" fill="#3E3F59"/>
<path d="M396.057 149.234C382.671 149.267 350.415 149.337 340.109 149.27C341.742 144.998 343.036 142.303 343.036 142.303C343.036 142.303 374.442 128.94 392.282 142.522C392.282 142.522 394.105 145.009 396.057 149.234Z" fill="#2E2D44"/>
<path d="M373.995 223.062H368.522C366.418 212.653 362.328 169.541 362.328 169.541C365.558 173.506 370.79 178.653 373.662 189.295C376.534 199.936 373.995 223.062 373.995 223.062Z" fill="#2E2D44"/>
<path d="M333.141 59.2296C334.318 63.0546 329.779 66.1196 331.639 69.8386C334.135 74.8306 339.078 71.6845 341.624 76.2995C343.973 80.5575 342.064 86.1376 350.728 87.0186C357.381 87.6956 364.95 83.4386 375.69 87.8996C385.234 91.8646 390.814 86.2846 389.933 81.5856C389.052 76.8866 385.087 74.6846 386.849 68.0766C388.611 61.4686 390.667 57.3576 385.821 54.5676C380.975 51.7776 373.78 54.8616 368.935 49.2816C364.089 43.7016 357.041 36.2126 348.818 36.3596C340.322 36.5116 333.84 39.8835 332.813 48.5475C332.326 52.6535 332.587 57.4306 333.141 59.2296Z" fill="#3E3F59"/>
<path d="M378.97 60.2776C378.736 60.0176 378.478 59.7817 378.2 59.5767C376.351 58.2117 373.909 57.9487 371.614 58.0747C368.308 58.2567 362.711 58.2247 360.566 55.0077L339.369 52.4727C338.812 55.9107 338.255 59.3487 337.698 62.7867C337.402 64.6137 337.159 66.6747 338.28 68.1477C340.195 70.6637 344.612 69.6737 346.725 72.0257C348.584 74.0947 347.631 77.5927 349.238 79.8637C350.322 81.3947 352.364 81.9927 354.236 81.8687C356.108 81.7447 357.879 81.0217 359.645 80.3867C361.41 79.7517 363.271 79.1897 365.135 79.4067C368.391 79.7867 371.509 82.7267 374.76 80.6817C376.086 79.8477 376.972 78.3547 377.069 76.7917C377.228 74.2267 375.431 71.5307 376.576 69.2297C377.301 67.7737 378.996 67.0317 379.838 65.6397C380.848 63.9697 380.294 61.7456 378.97 60.2776Z" fill="#2E2D44"/>
<path d="M339.273 125.417C335.775 132.251 320.918 152.362 315.375 152.986C312.949 155.319 311.253 156.82 310.934 156.913C309.686 157.281 305.318 154.344 304.289 151.921C304.289 151.921 302.308 149.096 302.749 148.067C303.187 147.038 304.034 146.56 304.399 145.093C304.767 143.626 304.034 141.349 305.796 138.412C307.555 135.475 322.903 116.24 324.075 114.332C326.206 105.669 328.994 87.5327 332.3 84.5227C334.501 83.2747 339.054 82.5417 340.817 87.8287C342.579 93.1117 343.973 116.24 339.273 125.417Z" fill="#FF5E6B"/>
<path d="M315.375 152.985C312.949 155.318 311.253 156.819 310.934 156.912C309.686 157.28 305.318 154.343 304.289 151.92C304.289 151.92 302.308 149.095 302.749 148.066C303.187 147.037 304.034 146.559 304.399 145.092C304.399 145.092 308.256 143.001 311.89 146.304C315.521 149.606 315.375 152.985 315.375 152.985Z" fill="white"/>
<path d="M312.109 166.09C311.522 165.283 309.905 163.962 309.245 162.861C308.642 161.856 308.632 159.63 307.424 157.574C308.454 156.32 309.901 154.546 311.283 152.803C309.741 147.407 305.006 148.508 305.006 148.508C305.006 148.508 302.134 151.646 300.271 153.671C300.06 153.667 299.846 153.67 299.63 153.683C296.032 153.902 291.847 156.033 288.982 159.777C286.274 159.817 280.847 165.954 281.567 166.973C282.008 167.597 283.147 167.338 284.209 166.641C284.156 167.165 284.913 167.335 285.792 167.209C286.144 167.159 286.516 167.063 286.861 166.923C286.98 166.996 287.12 167.062 287.292 167.119C288.908 167.633 290.598 167.192 292.579 165.652C294.561 164.109 296.104 160.879 299.26 160.438C302.417 159.997 304.179 161.099 305.208 162.642C306.234 164.182 306.748 166.75 309.317 167.119C311.89 167.487 312.697 166.9 312.109 166.09Z" fill="#F68962"/>
<path d="M288.981 159.776C288.981 159.776 287.169 162.239 286.316 163.45C285.463 164.662 283.9 165.342 284.208 166.64C283.146 167.337 282.007 167.596 281.566 166.972C280.846 165.953 286.273 159.816 288.981 159.776Z" fill="#D84554"/>
<path d="M295.59 156.84C294.196 157.574 294.452 159.485 291.405 162.201C288.809 164.518 288.249 164.697 287.22 165.431C286.164 166.188 286.862 166.925 286.862 166.925C286.517 167.064 286.145 167.161 285.793 167.211C284.744 164.556 287.858 163.902 290.085 162.093C293.791 159.077 294.086 157.464 295.59 156.84Z" fill="#D84554"/>
<path d="M392.283 142.523C392.283 142.523 374.459 142.41 358.952 142.347C358.295 142.344 357.644 142.34 356.997 142.34C351.676 142.317 346.738 142.303 343.037 142.303C340.807 141.374 339.137 139.05 338.486 137.842C338.184 137.281 338.32 136.72 338.957 135.89C342.625 131.094 343.587 124.698 341.075 119.208C340.093 117.064 338.718 114.893 336.813 112.845C332.727 108.454 336.999 102.622 335.233 97.9752C333.467 93.3282 329.285 88.7742 331.98 84.9642C334.675 81.1542 346.103 76.4142 346.103 76.4142L361.995 74.7412C361.995 74.7412 373.798 75.2992 380.025 78.1802C386.252 81.0612 386.716 84.4072 385.787 105.689C384.858 126.968 390.796 133.879 392.654 135.644C394.514 137.412 392.283 142.523 392.283 142.523Z" fill="#CD4353"/>
<path d="M358.952 142.347C358.295 142.344 357.644 142.34 356.997 142.34C356.22 137.912 353.27 120.706 352.636 110.659C351.903 99.0588 352.427 82.3228 352.427 82.3228L353.652 82.2168C353.652 82.2168 352.092 113.593 358.952 142.347Z" fill="#D84554"/>
<path d="M353.652 82.2173C353.237 82.1513 352.826 82.1743 352.427 82.3233C352.135 80.4543 352.49 78.4993 352.49 78.4993C352.49 78.4993 352.855 78.2073 353.516 78.2803C353.33 78.7993 353.502 80.8303 353.652 82.2173Z" fill="#00A376"/>
<path d="M335.786 122.847C336.116 123.067 355.94 134.741 370.476 127.362C380.668 122.189 389.528 82.9798 381.709 80.2268C373.89 77.4738 369.925 83.0898 368.714 86.5038C367.503 89.9178 362.216 112.604 362.216 112.604L340.19 113.705L335.786 122.847Z" fill="#FF5E6B"/>
<path d="M331.106 118.166C331.106 118.166 330.886 120.314 331.657 121.195C332.428 122.076 334.245 121.801 334.741 122.627C335.237 123.453 335.512 124.334 336.723 124.224C337.934 124.114 342.174 122.462 342.835 119.103C343.496 115.744 342.45 112.55 341.513 112.275C340.576 112 339.696 112.66 338.539 111.724C337.383 110.788 336.777 110.182 335.4 111.118C334.024 112.054 332.152 112.825 331.106 118.166Z" fill="white"/>
<path d="M326.426 109.705C326.426 109.705 338.311 112.945 338.815 114.147C339.971 116.9 338.54 120.094 336.007 120.314C333.907 120.497 326.905 116.003 325.875 115.138C323.122 112.826 323.358 110.089 326.426 109.705Z" fill="#F68962"/>
<path d="M320.257 113.214C320.257 113.214 317.865 114.383 319.201 117.789C320.318 120.047 323.165 120.626 324.864 121.423C326.564 122.22 327.311 120.001 326.146 118.994C324.98 117.987 320.761 115.481 320.257 113.214Z" fill="#D84554"/>
<path d="M331.822 112.332C331.86 113.822 331.224 115.332 329.603 115.666C330.31 116.367 330.114 117.755 329.398 118.418C328.686 119.076 327.88 119.869 326.877 119.028C326.869 119.022 326.86 119.014 326.852 119.008C326.496 119.089 326.183 119.176 325.871 119.205C325.697 119.226 325.524 119.227 325.346 119.199C325.005 119.147 324.642 118.999 324.207 118.679C324.202 118.675 324.195 118.672 324.191 118.668C323.817 118.765 323.507 118.76 323.251 118.699C322.553 118.538 322.268 117.953 322.219 117.843L322.212 117.825C322.212 117.825 321.669 118.006 320.998 117.593C320.785 117.462 320.56 117.271 320.336 116.991C319.408 115.839 318.932 113.592 318.932 113.592C318.932 113.592 318.405 113.852 317.653 114.205C316.248 114.865 314.051 115.85 313.024 116.056C311.444 116.373 310.606 115.332 310.722 114.752C310.838 114.171 313.212 113.261 315.58 112.203C317.947 111.148 321.077 109.464 322.888 109.201C325.471 108.825 331.782 110.837 331.822 112.332Z" fill="#F68962"/>
<path d="M318.918 113.611C318.918 113.611 318.393 113.876 317.643 114.235C317.908 112.97 318.485 111.691 319.73 111.538C319.825 111.524 318.843 112.176 318.918 113.611Z" fill="#D84554"/>
<path d="M322.228 117.824C322.225 117.831 322.221 117.836 322.218 117.843L322.211 117.825C322.211 117.825 321.668 118.006 320.997 117.593C320.678 116.307 320.37 114.526 320.703 113.27C320.703 113.27 321.15 115.405 322.228 117.824Z" fill="#D84554"/>
<path d="M324.211 118.653C324.209 118.663 324.207 118.672 324.206 118.678C324.201 118.674 324.194 118.671 324.19 118.667C323.816 118.764 323.506 118.759 323.25 118.698C322.969 117.368 322.763 115.553 323.171 113.926C323.224 113.715 323.044 115.925 324.211 118.653Z" fill="#D84554"/>
<path d="M326.874 118.975C326.875 118.992 326.876 119.01 326.877 119.027C326.869 119.021 326.86 119.013 326.852 119.007C326.496 119.088 326.183 119.175 325.871 119.204C325.515 117.921 324.932 116.166 325.326 114.674C325.286 114.942 325.557 116.614 326.874 118.975Z" fill="#D84554"/>
<path d="M329.602 115.664C329.602 115.664 328.016 117.161 327.69 117.159C327.364 117.157 327.198 115.076 327.468 115.101C327.533 115.107 327.616 115.14 327.705 115.186C328.288 115.491 328.943 115.637 329.602 115.664Z" fill="#D84554"/>
<path d="M352.196 85.7334C352.196 85.7334 349.938 100.765 350.544 104.84C349.112 102.858 348.286 100.545 348.286 100.545C348.286 100.545 344.707 103.959 344.707 103.794C344.707 103.629 346.028 98.3144 348.231 92.0104C350.213 86.3384 351.81 84.1914 351.81 84.1914L352.196 85.7334Z" fill="#FFCD08"/>
<path d="M353.395 85.2822C353.395 85.2822 355.653 100.315 355.047 104.389C356.479 102.407 357.305 100.094 357.305 100.094C357.305 100.094 360.884 103.508 360.884 103.343C360.884 103.178 359.563 97.8632 357.36 91.5592C355.378 85.8872 353.781 83.7402 353.781 83.7402L353.395 85.2822Z" fill="#FFCD08"/>
<path d="M352.417 85.0192C351.757 86.5032 345.643 98.0132 344.156 97.8472C342.669 97.6812 342.579 95.4802 342.028 93.4432C341.918 93.1742 341.689 92.8422 341.46 92.4642C340.989 91.6842 340.517 90.6982 341.072 89.5902C341.899 87.9372 350.323 84.6312 350.323 84.6312C350.323 84.6312 353.077 83.5322 352.417 85.0192Z" fill="#FFCD08"/>
<path d="M351.718 85.4398C351.938 85.1038 342.73 95.2148 343.486 96.4438C344.243 97.6728 346.329 93.6658 351.718 85.4398Z" fill="#F39E23"/>
<path d="M347.425 88.3379C343.827 90.6879 342.028 93.4429 342.028 93.4429C341.918 93.1739 341.689 92.8419 341.46 92.4639C342.612 90.5749 344.647 89.5989 347.425 88.3379Z" fill="#F39E23"/>
<path d="M353.992 83.9919C354.653 85.4759 360.766 96.9869 362.253 96.8209C363.74 96.6549 363.83 94.4539 364.381 92.4159C364.49 92.1469 364.72 91.8149 364.949 91.4369C365.42 90.6569 365.892 89.6709 365.337 88.5629C364.511 86.9099 356.087 83.6039 356.087 83.6039C356.087 83.6039 353.332 82.5049 353.992 83.9919Z" fill="#FFCD08"/>
<path d="M354.691 84.4124C354.471 84.0774 363.679 94.1874 362.923 95.4164C362.166 96.6454 360.08 92.6384 354.691 84.4124Z" fill="#F39E23"/>
<path d="M358.984 87.3105C362.582 89.6605 364.381 92.4155 364.381 92.4155C364.49 92.1465 364.72 91.8146 364.949 91.4366C363.797 89.5476 361.762 88.5725 358.984 87.3105Z" fill="#F39E23"/>
<path d="M350.14 83.1646C350.14 83.1646 349.626 87.0556 352.343 86.9826C355.06 86.9096 356.344 84.9266 355.353 82.4676C354.361 80.0076 350.764 80.3746 350.14 83.1646Z" fill="#F39E23"/>
<path d="M366.55 76.2275C366.364 76.8515 361.923 85.6605 360.31 86.1015C358.996 86.4595 356.208 82.6265 353.652 82.2185C353.237 82.1525 352.826 82.1755 352.427 82.3245C352.261 82.3875 352.098 82.4705 351.939 82.5765C351.753 82.7025 349.297 85.3315 348.414 86.2105C347.534 87.0905 347.312 87.3855 346.027 87.1295C344.742 86.8705 344.264 81.9885 343.826 80.0435C343.385 78.0985 343.202 76.7045 344.045 75.5655C344.33 75.1775 345.007 74.4635 345.472 73.8925C345.542 73.8095 345.605 73.7335 345.661 73.6565C346.544 72.4845 347.4 71.3235 348.824 70.9745C352.22 70.1475 358.506 68.7075 360.195 68.9195C361.071 69.0285 361.888 69.3975 362.625 69.9215C363.873 70.8045 364.885 72.1285 365.556 73.3965C366.623 75.4175 366.732 75.6025 366.55 76.2275Z" fill="white"/>
<path d="M362.627 69.9235C362.345 70.9655 361.887 71.8215 361.887 71.8215C361.887 71.8215 356.085 78.4265 346.579 75.3795C346.579 75.3795 346.035 74.7815 345.474 73.8925C345.544 73.8095 345.607 73.7335 345.663 73.6565C346.546 72.4845 347.402 71.3235 348.826 70.9745C352.222 70.1475 358.508 68.7075 360.197 68.9195C361.073 69.0315 361.89 69.3995 362.627 69.9235Z" fill="#F9EFCD"/>
<path d="M333.703 52.1322C332.277 51.9602 331.061 53.6372 331.143 56.0092C331.225 58.3812 333.483 61.5462 334.91 61.7062C336.337 61.8662 337.115 61.6732 337.586 60.8082C338.057 59.9442 336.282 52.4432 333.703 52.1322Z" fill="#F67159"/>
<path d="M332.7 55.8535C332.705 55.7065 332.509 53.9735 333.511 53.6775C334.513 53.3825 335.546 56.3935 335.847 57.2495C334.798 56.7715 334.255 57.5975 334.197 58.2205C334.139 58.8425 335.185 60.4225 336.543 59.4045C336.736 60.1825 336.736 60.1825 336.736 60.1825C336.736 60.1825 334.875 60.8885 333.826 59.3825C332.777 57.8765 334.179 56.6405 334.914 56.6295C334.577 55.7725 334.025 54.7615 333.694 54.7505C333.24 54.7335 332.7 55.8535 332.7 55.8535Z" fill="#D84554"/>
<path d="M361.887 71.8207C360.64 75.8937 355.391 79.7877 351.976 79.4567C348.561 79.1247 346.579 75.3807 346.579 75.3807C346.579 75.3807 348.892 74.1687 348.451 72.0777C348.398 71.8287 348.308 71.5437 348.189 71.2317C347.319 68.9287 344.926 65.2507 344.926 65.2507L355.72 57.7627C355.72 57.7627 355.76 61.4807 357.214 65.2507C358.199 67.8097 359.172 70.3537 361.887 71.8207Z" fill="#F68962"/>
<path d="M357.213 65.2507C356.43 66.6717 355.338 68.2277 353.957 69.2137C352.218 70.4547 349.921 70.9997 348.188 71.2317C347.318 68.9287 344.925 65.2507 344.925 65.2507L355.719 57.7627C355.719 57.7627 355.759 61.4807 357.213 65.2507Z" fill="#D84554"/>
<path d="M339.242 48.7788C336.826 49.2028 335.21 51.5148 335.594 53.9368C336.311 58.4598 337.952 66.4748 340.742 68.0028C343.826 69.6918 352.195 67.3418 354.838 63.6708C357.481 59.9998 357.334 52.1438 357.334 52.1438C357.334 52.1438 352.268 50.4548 351.314 44.2148C346.963 48.2288 342.547 48.1978 339.242 48.7788Z" fill="#F68962"/>
<path d="M360.207 50.5579C361.638 50.4359 362.795 52.1549 362.63 54.5229C362.465 56.8909 360.097 59.9739 358.665 60.0839C357.233 60.1939 356.462 59.9739 356.022 59.0929C355.582 58.2109 357.619 50.7779 360.207 50.5579Z" fill="#F68962"/>
<path d="M361.079 54.3105C361.079 54.1635 361.336 52.4385 360.345 52.1085C359.354 51.7785 358.216 54.7515 357.885 55.5955C358.95 55.1545 359.463 55.9995 359.5 56.6235C359.537 57.2475 358.435 58.7895 357.114 57.7245C356.894 58.4955 356.894 58.4955 356.894 58.4955C356.894 58.4955 358.73 59.2665 359.831 57.7975C360.932 56.3295 359.574 55.0445 358.84 55.0075C359.207 54.1635 359.794 53.1715 360.125 53.1715C360.579 53.1725 361.079 54.3105 361.079 54.3105Z" fill="#D84554"/>
<path d="M342.843 52.9006C342.547 52.8576 342.229 59.1396 342.518 59.3606C342.807 59.5816 345.62 59.5686 345.447 59.2066C345.274 58.8446 343.705 58.9646 343.366 58.6486C343.026 58.3336 343.139 52.9436 342.843 52.9006Z" fill="#D84554"/>
<path d="M341.677 62.6392C341.677 62.6392 342.888 63.9052 345.201 63.7402C347.514 63.5752 348.67 60.4912 348.67 60.4912C348.67 60.4912 345.972 63.0252 341.677 62.6392Z" fill="#D84554"/>
<path d="M347.727 54.0454C347.012 53.7344 346.13 54.1874 345.994 54.9604C345.905 55.4674 346.155 55.9583 346.563 56.2093C347.049 56.5723 347.857 56.4314 348.224 55.9234C348.679 55.2964 348.446 54.3584 347.727 54.0454Z" fill="#002734"/>
<path d="M345.438 52.6079C345.438 52.6079 346.688 52.1079 347.558 52.2479C348.428 52.3869 349.65 52.9909 349.65 52.9909C349.65 52.9909 349.093 51.2499 347.701 51.0759C346.308 50.9019 345.438 52.6079 345.438 52.6079Z" fill="#664341"/>
<path d="M340.404 54.0454C339.689 53.7344 338.807 54.1874 338.671 54.9604C338.582 55.4674 338.832 55.9583 339.24 56.2093C339.726 56.5723 340.534 56.4314 340.901 55.9234C341.355 55.2964 341.122 54.3584 340.404 54.0454Z" fill="#002734"/>
<path d="M337.454 52.773C337.454 52.773 338.704 52.273 339.574 52.413C340.444 52.552 341.666 53.156 341.666 53.156C341.666 53.156 341.109 51.415 339.716 51.241C338.324 51.067 337.454 52.773 337.454 52.773Z" fill="#664341"/>
<path d="M10.939 244.141C11.71 248.468 9.99303 253.669 13.022 256.852C15.111 259.048 18.758 259.293 20.633 261.673C22.647 264.226 21.71 267.883 21.558 271.13C21.329 275.954 23.317 280.75 26.621 284.229C28.285 285.985 31.643 289.599 34.532 289.72C35.239 289.751 35.92 289.571 36.54 289.105C36.742 288.955 36.932 288.795 37.117 288.631C42.406 283.912 41.52 273.506 38.419 268.046C36.309 264.333 32.85 261.015 32.777 256.744C32.721 253.346 34.905 250.094 34.353 246.739C33.602 242.208 28.461 239.959 25.889 236.156C22.328 230.886 24.161 223.406 20.987 217.896C18.336 213.297 12.128 211.125 7.19003 213.071C2.24803 215.015 -0.811968 220.836 0.388032 226.007C1.98503 232.894 9.69503 237.184 10.939 244.141Z" fill="#80B230"/>
<path d="M34.534 289.719C35.241 289.75 35.922 289.57 36.542 289.104C36.744 288.954 36.934 288.794 37.119 288.63C36.699 287.28 36.231 285.941 35.848 284.637C34.921 281.482 33.985 278.331 32.988 275.197C31.028 269.036 28.892 262.925 26.655 256.858C24.418 250.791 22.049 244.767 19.562 238.797C18.333 235.845 17.067 232.908 15.752 229.99C14.429 227.054 13.268 223.809 11.451 221.14C10.72 220.068 8.96903 220.768 9.33203 222.066C10.202 225.175 11.873 228.165 13.152 231.125C14.454 234.144 15.746 237.167 17.015 240.203C19.466 246.07 21.795 251.991 24.011 257.949C26.226 263.915 28.298 269.925 30.298 275.961C31.334 279.084 32.363 282.21 33.336 285.354C33.768 286.758 34.127 288.246 34.534 289.719Z" fill="#6B9117"/>
<path d="M51.732 239.338C52.585 243.65 56.073 247.872 54.407 251.938C53.259 254.743 49.95 256.296 49.067 259.194C48.118 262.304 50.318 265.371 51.639 268.342C53.604 272.753 53.494 277.944 51.679 282.385C50.766 284.625 48.951 289.212 46.302 290.374C45.655 290.659 44.954 290.739 44.208 290.53C43.966 290.464 43.73 290.384 43.498 290.298C36.856 287.822 33.902 277.805 34.808 271.591C35.425 267.366 37.443 263.018 35.96 259.011C34.778 255.825 31.562 253.588 30.858 250.262C29.912 245.768 33.885 241.805 34.901 237.327C36.305 231.124 31.881 224.82 32.836 218.534C33.636 213.287 38.631 209.008 43.939 209.028C49.25 209.045 54.215 213.356 54.975 218.61C55.99 225.606 50.364 232.404 51.732 239.338Z" fill="#8BC53F"/>
<path d="M46.301 290.373C45.654 290.658 44.953 290.738 44.207 290.529C43.965 290.463 43.729 290.383 43.497 290.297C43.397 288.886 43.348 287.469 43.231 286.115C42.949 282.839 42.677 279.563 42.468 276.28C42.056 269.828 41.827 263.359 41.708 256.893C41.589 250.427 41.608 243.955 41.758 237.489C41.831 234.293 41.944 231.096 42.11 227.9C42.276 224.684 42.18 221.239 42.903 218.092C43.195 216.827 45.08 216.844 45.213 218.185C45.532 221.398 45.06 224.79 44.944 228.013C44.828 231.299 44.722 234.585 44.642 237.874C44.489 244.23 44.469 250.593 44.569 256.949C44.672 263.312 44.924 269.665 45.253 276.014C45.422 279.3 45.598 282.586 45.834 285.869C45.94 287.336 46.146 288.853 46.301 290.373Z" fill="#80B230"/>
<path d="M77.4 244.141C76.629 248.468 78.346 253.669 75.317 256.852C73.228 259.048 69.581 259.293 67.706 261.673C65.692 264.226 66.629 267.883 66.781 271.13C67.01 275.954 65.022 280.75 61.718 284.229C60.054 285.985 56.696 289.599 53.807 289.72C53.1 289.751 52.419 289.571 51.799 289.105C51.597 288.955 51.407 288.795 51.222 288.631C45.933 283.912 46.819 273.506 49.92 268.046C52.03 264.333 55.489 261.015 55.562 256.744C55.618 253.346 53.434 250.094 53.986 246.739C54.737 242.208 59.878 239.959 62.45 236.156C66.011 230.886 64.178 223.406 67.352 217.896C70.003 213.297 76.211 211.125 81.149 213.071C86.091 215.015 89.152 220.836 87.951 226.007C86.355 232.894 78.644 237.184 77.4 244.141Z" fill="#80B230"/>
<path d="M53.8061 289.719C53.0991 289.75 52.4181 289.57 51.7981 289.104C51.5961 288.954 51.4061 288.794 51.2211 288.63C51.6401 287.28 52.1091 285.941 52.4921 284.637C53.4191 281.482 54.3551 278.331 55.3521 275.197C57.3121 269.036 59.4481 262.925 61.6851 256.858C63.9221 250.791 66.2911 244.767 68.7781 238.797C70.0071 235.845 71.2731 232.908 72.5881 229.99C73.9111 227.054 75.0721 223.809 76.8891 221.14C77.6201 220.068 79.3711 220.768 79.0081 222.066C78.1381 225.175 76.4671 228.165 75.1881 231.125C73.8861 234.144 72.5941 237.167 71.3251 240.203C68.8741 246.07 66.5451 251.991 64.3291 257.949C62.1141 263.915 60.0421 269.925 58.0421 275.961C57.0061 279.084 55.9771 282.21 55.0041 285.354C54.5721 286.758 54.2131 288.246 53.8061 289.719Z" fill="#6B9117"/>
<path d="M20.626 284.829C20.626 284.829 21.287 305.533 26.793 309.277C35.185 309.277 54.744 309.277 63.135 309.277C68.641 305.533 69.302 284.829 69.302 284.829H20.626Z" fill="#3E3F59"/>
<path d="M18.975 305.726L20.407 310.226C21.512 313.698 25.192 316.106 29.392 316.106H60.539C64.739 316.106 68.419 313.698 69.524 310.226L70.956 305.726H18.975Z" fill="#F9EFCD"/>
<path d="M116.704 257.958H49.0851V262.804H52.4161C53.3581 270.416 55.1301 278.001 56.5741 285.526C57.3331 289.478 58.0731 293.434 58.7801 297.395C59.1241 299.322 59.4531 301.251 59.7951 303.178C60.0371 304.54 60.2171 305.97 60.5381 307.344V316.106H105.47V307.52C105.663 306.699 105.82 305.873 105.977 305.097C106.392 303.051 106.87 301.019 107.296 298.976C108.171 294.785 109.016 290.584 109.803 286.376L112.105 274.074C112.795 270.384 113.746 266.577 113.932 262.804H116.704V257.958ZM104.649 267.72C106.049 269.435 107.394 271.187 108.695 272.975C107.807 273.831 107.014 274.795 106.196 275.713C106.179 275.732 106.162 275.751 106.145 275.771C104.371 273.751 102.456 271.83 100.618 269.953C101.191 269.284 101.765 268.615 102.336 267.944C102.732 267.479 103.176 267.004 103.63 266.518C103.979 266.92 104.323 267.32 104.649 267.72ZM108.595 278.784C108.301 278.388 107.999 277.996 107.689 277.609C107.724 277.569 107.759 277.529 107.794 277.489C108.231 276.996 108.683 276.51 109.126 276.017C108.95 276.939 108.773 277.861 108.595 278.784ZM105.755 293.918C105.571 293.725 105.383 293.536 105.195 293.347C105.459 293.035 105.738 292.725 106.022 292.414C105.932 292.914 105.844 293.416 105.755 293.918ZM62.7851 305.533C62.5901 303.762 62.2421 301.973 61.8991 300.218C63.0291 301.276 64.2781 302.231 65.4401 303.184C65.8271 303.502 66.2181 303.834 66.6131 304.172C66.2491 304.612 65.9111 305.064 65.6041 305.532L62.7851 305.533ZM100.812 262.803C101.199 263.487 101.663 264.138 102.161 264.767C101.669 265.394 101.192 266.014 100.714 266.566C100.178 267.185 99.6361 267.798 99.0981 268.415C97.7621 267.087 96.3911 265.792 94.9711 264.556C94.3511 264.016 93.6911 263.39 92.9911 262.803H100.812ZM106.704 288.671C105.603 289.567 104.712 290.79 103.801 291.846C103.778 291.872 103.756 291.899 103.734 291.925C102.175 290.465 100.542 289.074 98.9221 287.681C99.9381 286.5 100.956 285.32 101.977 284.143C102.54 284.689 103.102 285.235 103.665 285.78C104.585 286.673 105.589 287.783 106.747 288.443C106.733 288.52 106.718 288.595 106.704 288.671ZM98.5371 298.259C96.9141 296.785 95.2791 295.322 93.6391 293.866C94.5861 292.751 95.5331 291.635 96.4831 290.522C96.7331 290.229 96.9851 289.938 97.2351 289.646C98.8421 291.062 100.457 292.484 102.134 293.815C101.418 294.672 100.708 295.534 100.009 296.405C99.5191 297.016 99.0261 297.635 98.5371 298.259ZM93.9021 304.984C93.1611 304.284 92.3301 303.647 91.6391 303.009C90.5681 302.02 89.4771 301.052 88.3821 300.088C88.5351 299.907 88.6901 299.727 88.8421 299.545C89.8011 298.4 90.7651 297.26 91.7291 296.12C93.4101 297.607 95.0971 299.088 96.7941 300.554C95.7501 301.986 94.7661 303.459 93.9021 304.984ZM86.7321 298.638C84.5331 296.714 82.3371 294.786 80.1361 292.864C81.3361 291.578 82.5301 290.285 83.7201 288.989C85.8301 290.873 87.9401 292.76 90.0571 294.64C89.1741 295.73 88.2901 296.819 87.4161 297.916C87.2091 298.175 87.0081 298.439 86.8031 298.7C86.7791 298.679 86.7551 298.658 86.7321 298.638ZM66.7571 301.632C65.5061 300.62 64.2301 299.509 62.8611 298.571C63.7571 297.487 64.6131 296.368 65.4471 295.232C66.4971 296.191 67.5591 297.137 68.6221 298.082C69.2911 298.676 69.9671 299.263 70.6451 299.847C70.5041 300 70.3621 300.151 70.2221 300.304C69.5181 301.074 68.7531 301.835 68.0091 302.617C67.5831 302.287 67.1621 301.96 66.7571 301.632ZM70.1221 296.315C68.9961 295.356 67.8801 294.386 66.7631 293.416C67.6801 292.136 68.5901 290.851 69.5261 289.59C69.9041 289.08 70.2861 288.573 70.6671 288.065C72.0791 289.295 73.4931 290.524 74.9021 291.758C75.4991 292.281 76.1031 292.798 76.7031 293.319C76.2851 293.77 75.8701 294.223 75.4521 294.674C74.3841 295.825 73.3111 296.973 72.2411 298.123C71.5351 297.521 70.8291 296.918 70.1221 296.315ZM68.0011 262.972C69.5261 264.805 71.3391 266.471 73.1311 268.077C71.8811 269.51 70.6581 270.961 69.4581 272.434C67.6651 270.865 65.8581 269.313 64.0301 267.79C65.0281 266.551 66.0261 265.312 67.0231 264.074C67.3201 263.708 67.6811 263.349 68.0011 262.972ZM84.7571 267.693C84.1661 268.354 83.5771 269.017 82.9931 269.683C82.3441 270.424 81.6981 271.167 81.0561 271.913C79.7041 270.714 78.3511 269.516 77.0031 268.313C76.7321 268.071 76.4601 267.824 76.1881 267.575C77.4621 266.076 78.7921 264.614 80.0191 263.082C81.4681 264.732 83.1831 266.225 84.7571 267.693ZM91.0411 263.86C91.8471 264.722 92.7621 265.516 93.5091 266.279C94.8221 267.619 96.1501 268.944 97.4721 270.274C96.8651 270.967 96.2621 271.663 95.6531 272.355C95.3161 272.738 94.9761 273.119 94.6391 273.501C94.6331 273.495 94.6261 273.489 94.6201 273.483C92.3911 271.356 90.1281 269.268 87.8411 267.203C87.9511 267.083 88.0591 266.962 88.1691 266.842C89.0371 265.896 90.1841 264.932 91.0411 263.86ZM92.7291 275.224C92.7991 275.29 92.8681 275.357 92.9381 275.424C91.7771 276.735 90.6141 278.043 89.4471 279.348C88.6261 278.623 87.8031 277.901 86.9851 277.173C85.4971 275.85 84.0071 274.53 82.5161 273.21C83.1001 272.529 83.6871 271.85 84.2791 271.176C84.9091 270.459 85.5431 269.746 86.1801 269.035C88.3631 271.098 90.5491 273.158 92.7291 275.224ZM84.0071 285.372C82.7651 284.277 81.5241 283.181 80.2881 282.081C79.3071 281.208 78.3271 280.331 77.3461 279.452C78.5091 278.004 79.6861 276.567 80.8791 275.144C82.3511 276.484 83.8261 277.82 85.3121 279.145C86.1111 279.857 86.9101 280.569 87.7101 281.281C87.0181 282.05 86.3311 282.823 85.6351 283.589C85.0941 284.185 84.5491 284.777 84.0071 285.372ZM87.3301 285.028C88.0121 284.273 88.6881 283.512 89.3691 282.755C91.3441 284.507 93.3251 286.251 95.3241 287.975C95.3701 288.014 95.4151 288.054 95.4611 288.094C95.2061 288.398 94.9471 288.698 94.6921 289.003C93.7631 290.112 92.8461 291.23 91.9281 292.348C89.8491 290.51 87.7641 288.678 85.6801 286.846C86.2301 286.239 86.7811 285.635 87.3301 285.028ZM96.9941 286.005C95.0361 284.27 93.0721 282.543 91.1081 280.815C92.2551 279.531 93.3941 278.24 94.5331 276.949C96.3731 278.71 98.2041 280.479 100.03 282.255C100.106 282.329 100.182 282.402 100.257 282.476C99.2081 283.687 98.1651 284.903 97.1281 286.124C97.0841 286.083 97.0381 286.044 96.9941 286.005ZM75.4381 270.158C76.7651 271.382 78.0961 272.602 79.4291 273.821C78.2251 275.242 77.0351 276.676 75.8601 278.121C74.2771 276.703 72.6901 275.283 71.0941 273.873C72.2801 272.396 73.4671 270.92 74.6531 269.443C74.9181 269.682 75.1801 269.92 75.4381 270.158ZM74.0191 280.412C72.8961 281.826 71.7911 283.253 70.7031 284.693C69.3471 283.525 67.9891 282.36 66.6201 281.208C66.3511 280.982 66.0821 280.757 65.8141 280.531C66.9471 279.08 68.0871 277.635 69.2351 276.196C70.8251 277.61 72.4231 279.013 74.0191 280.412ZM64.7771 282.872C66.2281 284.177 67.6951 285.467 69.1651 286.752C68.7821 287.271 68.3981 287.789 68.0191 288.312C67.1041 289.577 66.1791 290.848 65.2811 292.138C64.8031 291.725 64.3281 291.31 63.8471 290.901C62.5661 289.811 61.2781 288.592 59.8811 287.576C60.9091 287.156 61.4641 286.097 62.1451 285.233C62.8721 284.31 63.5911 283.381 64.3121 282.453C64.4661 282.593 64.6211 282.733 64.7771 282.872ZM76.5851 289.776C75.1291 288.523 73.6781 287.264 72.2241 286.007C73.3141 284.575 74.4161 283.151 75.5291 281.737C76.4961 282.585 77.4611 283.432 78.4221 284.28C79.6361 285.351 80.8471 286.428 82.0571 287.506C80.8621 288.81 79.6651 290.112 78.4661 291.412C77.8391 290.867 77.2151 290.318 76.5851 289.776ZM102.384 280.022C102.226 280.202 102.071 280.384 101.914 280.564C100.042 278.694 98.1401 276.852 96.2291 275.02C96.5941 274.603 96.9631 274.19 97.3271 273.772C97.8891 273.126 98.4471 272.478 99.0051 271.829C100.851 273.736 102.622 275.744 104.44 277.697C103.754 278.472 103.066 279.244 102.384 280.022ZM87.0861 265.119C86.8531 265.373 86.6241 265.63 86.3921 265.884C85.2671 264.857 84.1081 263.786 82.8941 262.803H89.1461C88.4141 263.541 87.7571 264.386 87.0861 265.119ZM74.7271 266.228C73.4641 265.059 72.1771 263.879 70.8301 262.803H77.6811C76.6701 263.918 75.7011 265.082 74.7271 266.228ZM65.7481 262.993L62.7291 266.716C61.1021 265.382 59.4561 264.075 57.7881 262.803H65.8961C65.8471 262.868 65.7981 262.931 65.7481 262.993ZM67.6121 274.748C66.4571 276.211 65.3221 277.688 64.2011 279.177C63.3281 278.448 62.4501 277.723 61.5641 277.011C60.5331 276.183 59.5061 275.26 58.3451 274.611C59.8331 273.262 61.1231 271.562 62.3621 269.932C64.0891 271.558 65.8431 273.161 67.6121 274.748ZM59.9131 278.448C60.8571 279.334 61.8161 280.205 62.7781 281.073C61.9411 282.209 61.1251 283.356 60.3241 284.518C59.9891 285.004 59.6471 285.424 59.3991 285.882C59.3441 285.571 59.2921 285.259 59.2361 284.948C58.7261 282.073 58.2281 279.169 57.6881 276.266C58.3681 277.047 59.1641 277.746 59.9131 278.448ZM62.5111 292.475C63.0211 292.971 63.5361 293.46 64.0551 293.946C63.2191 295.216 62.4271 296.512 61.7101 297.846C61.6131 297.79 61.5171 297.734 61.4191 297.681C61.3881 297.504 61.3571 297.328 61.3281 297.152C60.9411 294.827 60.5471 292.504 60.1481 290.182C60.9301 290.976 61.7471 291.732 62.5111 292.475ZM68.0671 305.408C68.1171 305.45 68.1681 305.491 68.2181 305.533H67.9301C67.9761 305.493 68.0211 305.449 68.0671 305.408ZM71.5211 305.533C70.9231 304.956 70.2801 304.41 69.6241 303.882C70.3551 303.119 71.0641 302.338 71.7761 301.622C71.9211 301.476 72.0621 301.326 72.2071 301.18C73.1111 301.945 74.0191 302.705 74.9311 303.461C75.7731 304.16 76.6231 304.848 77.4771 305.533H71.5211ZM80.9821 305.533C80.5141 305.021 79.9411 304.594 79.3811 304.13C78.4001 303.315 77.4221 302.496 76.4431 301.679C75.5751 300.956 74.7141 300.225 73.8531 299.493C74.9451 298.362 76.0311 297.224 77.1131 296.083C77.5311 295.642 77.9451 295.199 78.3621 294.756C80.5231 296.622 82.6891 298.483 84.8521 300.346C84.9861 300.462 85.1211 300.576 85.2551 300.692C84.8011 301.284 84.3481 301.877 83.8971 302.472C83.1501 303.456 82.2821 304.457 81.5911 305.533H80.9821ZM85.1151 303.925C85.6641 303.279 86.2161 302.636 86.7671 301.992C87.7911 302.869 88.8201 303.742 89.8611 304.598C90.2131 304.887 90.5701 305.207 90.9341 305.534H83.7901C84.2401 304.995 84.6731 304.444 85.1151 303.925ZM98.4201 301.945C99.8311 303.152 101.249 304.35 102.679 305.533H95.5691C96.5521 304.369 97.4931 303.163 98.4201 301.945ZM104.998 298.236C104.696 299.974 104.437 301.719 104.146 303.46C102.813 302.197 101.467 300.947 100.113 299.705C100.67 298.969 101.23 298.236 101.799 297.514C102.449 296.69 103.108 295.875 103.773 295.063C104.294 295.443 104.821 295.812 105.359 296.166C105.239 296.855 105.118 297.546 104.998 298.236ZM107.223 285.92C107.216 285.958 107.209 285.996 107.202 286.034C106.783 285.537 106.323 285.069 105.897 284.614C105.151 283.816 104.383 283.035 103.611 282.26C103.741 282.111 103.87 281.96 104 281.811C104.693 281.015 105.393 280.224 106.09 279.431C106.744 280.1 107.413 280.751 108.095 281.386C107.804 282.898 107.513 284.409 107.223 285.92ZM103.591 263.034C103.503 262.956 103.414 262.879 103.324 262.803H103.804C103.733 262.88 103.662 262.956 103.591 263.034ZM55.1781 262.803C57.0851 264.816 59.0541 266.778 61.0671 268.703C59.6901 270.305 58.2421 271.975 57.2121 273.775C56.4851 270.075 55.6621 266.396 54.6271 262.803H55.1781ZM110.111 270.771C108.975 269.149 107.768 267.572 106.466 266.084C106.073 265.634 105.668 265.166 105.249 264.703C105.75 264.091 106.203 263.459 106.548 262.803H111.897C111.067 265.372 110.585 268.093 110.111 270.771Z" fill="#3E3F59"/>
<path d="M165.842 202.122H160.714V312.242H165.842V202.122Z" fill="#F9EFCD"/>
<path d="M165.841 293.884H105.35V299.012H165.841V293.884Z" fill="#F9EFCD"/>
<path d="M263.107 232.8H228.889C220.149 232.8 213.065 225.715 213.065 216.976V155.793C213.065 147.054 220.15 139.969 228.889 139.969H263.107C271.846 139.969 278.931 147.054 278.931 155.793V216.976C278.931 225.715 271.846 232.8 263.107 232.8Z" fill="#2E2D44"/>
<path d="M233.341 246.933H227.825V288.02H233.341V246.933Z" fill="#2E2D44"/>
<path d="M201.091 313.711H184.804L190.756 308.503L228.373 306.436L268.139 308.999L272.107 313.463C272.107 313.463 201.793 314.413 201.091 313.711Z" fill="#2E2D44"/>
<path d="M233.341 246.933H230.392V288.02H233.341V246.933Z" fill="#4F5068"/>
<path d="M235.431 313.654H224.953V279.256C224.953 278.103 225.888 277.168 227.041 277.168H233.342C234.495 277.168 235.43 278.103 235.43 279.256V313.654H235.431Z" fill="#2E2D44"/>
<path d="M201.547 254.108C202.233 254.108 255.771 254.108 259.202 254.108C262.634 254.108 265.379 253.11 265.837 247.122C253.711 247.122 193.539 247.122 193.539 247.122C193.539 247.122 193.539 254.108 201.547 254.108Z" fill="#2E2D44"/>
<path d="M269.007 244.265V248.481H190.632V244.265C190.632 244.265 268.759 244.265 269.007 244.265Z" fill="#3E3F59"/>
<path d="M199.313 237.319C200.057 237.319 258.094 237.319 261.814 237.319C265.534 237.319 268.511 238.311 269.007 244.264C255.862 244.264 190.632 244.264 190.632 244.264C190.632 244.264 190.632 237.319 199.313 237.319Z" fill="#2E2D44"/>
<path d="M199.753 210.106C199.753 210.106 195.495 218.476 195.348 218.916C195.201 219.356 163.778 221.706 156.289 227.286C151.003 236.83 149.681 244.172 150.709 246.669C151.737 249.165 163.924 297.768 164.365 298.796C164.805 299.824 164.071 307.313 164.071 307.313C164.071 307.313 195.641 317.004 195.788 316.27C195.935 315.536 194.026 307.313 192.998 301.293C191.97 295.273 174.496 244.467 175.084 244.026C175.671 243.586 206.801 241.236 213.849 239.474C220.897 237.712 227.358 209.96 227.358 209.96L199.753 210.106Z" fill="#2E2D44"/>
<path d="M195.788 316.27H147.783C147.783 316.27 148.971 312.083 153.218 310.431C156.986 308.965 163.264 305.11 165.576 304.45C168.88 304.119 192.191 311.461 195.788 316.27Z" fill="#2E2D44"/>
<path d="M251.735 233.746C250.769 235.811 248.413 237.503 245.628 238.857C239.508 241.824 231.323 243.142 231.323 243.142C231.323 243.142 229.142 243.451 226.265 243.54C224.831 243.583 223.221 243.57 221.622 243.434C217.586 243.095 213.616 241.983 212.677 239.033C210.622 232.571 218.552 223.615 218.99 223.174C219.431 222.733 220.46 211.132 220.46 211.132H251.882C251.882 211.132 254.818 227.138 251.735 233.746Z" fill="#3E3F59"/>
<path d="M251.881 211.133H246.567C247.584 222.824 246.288 227.148 242.116 230.531C238.848 225.824 233.025 225.002 229.133 225.045C226.521 225.074 224.08 226.338 222.57 228.469C217.977 234.952 219.846 240.465 221.62 243.435C223.22 243.571 224.83 243.584 226.263 243.541C229.141 243.451 231.321 243.143 231.321 243.143C231.321 243.143 231.328 243.142 231.34 243.14C231.344 243.139 231.346 243.139 231.351 243.138C231.364 243.136 231.383 243.133 231.406 243.129C231.41 243.128 231.413 243.128 231.417 243.127C231.477 243.117 231.564 243.102 231.676 243.082C231.682 243.081 231.687 243.08 231.693 243.079C231.809 243.058 231.95 243.033 232.116 243.002C232.117 243.002 232.118 243.002 232.12 243.001C232.203 242.985 232.293 242.968 232.388 242.95C232.389 242.95 232.39 242.95 232.39 242.95C232.873 242.858 233.5 242.731 234.234 242.569C234.673 242.472 235.151 242.363 235.658 242.241C235.66 242.24 235.663 242.24 235.665 242.239C236 242.158 236.348 242.072 236.706 241.979C236.714 241.977 236.721 241.975 236.729 241.973C236.904 241.928 237.081 241.882 237.26 241.834C237.263 241.833 237.267 241.832 237.27 241.831C237.629 241.735 237.998 241.634 238.372 241.527C238.398 241.52 238.424 241.512 238.45 241.505C238.629 241.454 238.809 241.401 238.991 241.348C238.995 241.347 238.998 241.346 239.002 241.345C239.191 241.289 239.381 241.232 239.572 241.173C239.599 241.165 239.625 241.157 239.652 241.148C239.81 241.099 239.969 241.049 240.129 240.999C240.17 240.986 240.211 240.973 240.252 240.96C240.619 240.842 240.989 240.72 241.359 240.592C241.411 240.574 241.462 240.556 241.514 240.538C241.652 240.49 241.789 240.441 241.927 240.392C241.98 240.373 242.033 240.354 242.086 240.335C242.263 240.271 242.439 240.206 242.616 240.139C242.663 240.121 242.709 240.103 242.756 240.086C242.889 240.035 243.022 239.984 243.155 239.932C243.223 239.905 243.291 239.878 243.359 239.851C243.479 239.803 243.598 239.755 243.717 239.706C243.78 239.68 243.842 239.655 243.905 239.629C244.068 239.561 244.23 239.492 244.391 239.422C244.464 239.39 244.537 239.358 244.61 239.326C244.71 239.282 244.809 239.237 244.908 239.193C244.989 239.156 245.069 239.12 245.15 239.082C245.249 239.036 245.347 238.989 245.446 238.943C245.507 238.914 245.569 238.886 245.629 238.857C245.629 238.857 245.629 238.857 245.629 238.856C248.414 237.505 250.772 235.812 251.736 233.745C254.818 227.138 251.881 211.133 251.881 211.133Z" fill="#2E2D44"/>
<path d="M220.971 224.276C216.491 225.725 212.601 232.866 212.161 236.39C211.72 239.914 209.518 317.224 209.518 317.224C209.518 317.224 225.817 307.166 238.372 308.928C236.61 299.09 236.463 291.895 236.463 291.895C236.463 291.895 239.033 241.676 235.949 234.408C232.865 227.139 228.46 221.853 220.971 224.276Z" fill="#3E3F59"/>
<path d="M209.518 317.223L254.815 317.737C254.815 317.737 253.934 314.36 251.291 312.891C248.648 311.423 241.015 306.724 235.435 305.402C224.417 302.793 209.518 317.223 209.518 317.223Z" fill="#2E2D44"/>
<path d="M164.218 201.443L170.532 200.268C170.532 200.268 178.315 200.121 182.279 199.828C186.244 199.534 201.443 195.935 205.92 186.906C210.526 177.618 214.874 144.028 206.873 147.333C201.368 153.574 189.034 180.299 189.034 180.299C189.034 180.299 169.651 183.676 167.742 185.145C165.833 186.613 165.246 190.872 165.246 190.872C165.246 190.872 161.281 191.459 160.841 192.047C160.4 192.634 159.813 196.452 160.547 197.333C161.281 198.212 164.218 201.443 164.218 201.443Z" fill="#F39E23"/>
<path d="M143.862 202.224H162.234C162.234 202.224 158.849 195.154 153.408 195.275C147.968 195.396 144.471 200.348 143.862 202.224Z" fill="white"/>
<path d="M151.258 195.284C151.258 195.284 148.61 195.512 147.971 195.923C147.332 196.334 147.104 197.156 147.104 197.156C147.104 197.156 145.415 197.795 145.187 198.252C144.959 198.709 144.822 199.576 144.822 199.576C144.822 199.576 143.635 200.078 143.452 200.626C143.269 201.174 143.315 202.041 143.863 202.224C144.411 202.407 145.141 201.128 145.141 201.128C145.141 201.128 146.465 200.626 146.739 199.804C147.835 199.941 148.93 199.074 149.204 197.567C150.756 196.654 151.258 195.284 151.258 195.284Z" fill="#D84554"/>
<path d="M163.263 202.407C162.352 202.864 156.598 202.498 154.683 202.316C153.128 200.673 158.425 200.216 158.425 200.216C158.425 200.216 158.516 199.302 157.693 198.023C156.873 196.746 154.864 195.651 154.226 195.557C153.585 195.466 152.674 196.746 151.532 197.293C150.684 197.7 149.177 198.121 149.204 197.566C149.23 197.028 150.849 195.406 152.171 194.169C153.274 193.136 154.859 192.799 156.282 193.307C158.309 194.031 160.946 195.105 162.258 195.285C164.267 195.557 165.637 197.566 165.912 199.393C166.186 201.221 164.177 201.95 163.263 202.407Z" fill="#F68962"/>
<path d="M158.425 200.217C158.425 200.217 158.516 199.303 157.693 198.024C156.873 196.747 154.864 195.652 154.226 195.558C159.581 196.169 161.348 200.217 161.348 200.217H158.425Z" fill="#D84554"/>
<path d="M252.468 212.53C252.468 212.53 235.876 212.663 220.797 212.709C220.283 212.712 219.771 212.712 219.264 212.716C207.521 212.746 197.092 212.719 196.744 212.53C195.937 212.089 194.689 207.611 194.908 206.801C195.127 205.994 200.488 202.984 200.488 202.984L201.444 195.934C201.444 195.934 204.747 149.609 206.874 147.332C208.232 145.881 213.396 144.106 216.971 143.004C219.012 142.377 220.532 141.972 220.532 141.972C223.981 140.946 234.2 140.946 234.2 140.946C234.2 140.946 237.609 142.121 241.416 143.492C246.006 145.142 251.181 147.073 251.662 147.555C252.542 148.435 251.367 199.46 251.367 199.46C251.367 199.46 253.936 204.379 254.45 206.875C254.964 209.371 252.468 212.53 252.468 212.53Z" fill="#FFCD08"/>
<path d="M221.192 195.274C220.302 202.294 220.545 209.049 220.797 212.709C220.283 212.712 219.771 212.712 219.264 212.716C219.287 210.675 219.357 207.283 219.539 201.7C219.944 189.329 225.742 147.04 225.742 147.04L226.917 146.38C226.917 146.38 222.513 184.849 221.192 195.274Z" fill="#F39E23"/>
<path d="M241.415 143.492C240.084 149.553 234.296 154.346 234.296 154.346C234.296 154.346 230.661 148.508 229.231 147.957C227.8 147.406 225.377 149.61 225.377 149.61C225.377 149.61 225.377 149.61 223.283 148.84C221.192 148.067 219.871 150.38 216.014 153.464C215.855 151.058 216.572 145.72 216.97 143.005C219.011 142.378 220.531 141.973 220.531 141.973C223.98 140.947 234.199 140.947 234.199 140.947C234.199 140.947 237.608 142.121 241.415 143.492Z" fill="#F39E23"/>
<path d="M231.334 168.258H244.621C244.621 168.258 247.528 180.715 239.016 181.753C230.504 182.791 231.334 168.258 231.334 168.258Z" fill="#F39E23"/>
<path d="M156.464 174.063L157.277 172.388L194.864 172.23L205.127 199.749H203.527L156.464 174.063Z" fill="#242435"/>
<path d="M156.464 174.063L193.899 174.154L203.527 199.749H166.136L156.464 174.063Z" fill="#3E3F59"/>
<path d="M203.527 199.749H166.136V202.631H203.527V199.749Z" fill="#242435"/>
<path d="M203.527 202.632H224.275V199.685L203.527 199.75V202.632Z" fill="#3E3F59"/>
<path d="M275.925 199.387C260.856 195.716 253.76 194.664 251.655 190.196C249.554 185.728 245.621 150.645 251.662 147.555C251.662 147.555 254.546 148.667 257.437 154.449C260.328 160.231 275.749 192.546 275.925 199.387Z" fill="#FFCD08"/>
<path d="M275.925 199.387C260.856 195.716 253.76 194.664 251.655 190.196C249.554 185.728 245.621 150.645 251.662 147.555C251.662 147.555 249.385 151.81 251.735 163.852C254.082 175.894 256.432 185.586 256.432 185.144C256.432 184.703 266.27 183.969 266.857 184.998C267.444 186.024 260.985 187.345 261.424 187.345C261.865 187.345 272.951 189.549 275.925 199.387Z" fill="#F39E23"/>
<path d="M247.373 202.904C244.847 202.765 243.164 202.575 242.995 202.39C241.408 200.641 242.995 194.872 242.995 194.872C242.995 194.872 244.648 192.008 245.531 192.008C246.411 192.008 249.365 192.068 249.365 192.068C249.365 192.068 250.374 187.823 253.019 187.823C255.661 187.823 275.045 194.541 275.924 199.387C276.615 203.179 256.501 203.395 247.373 202.904Z" fill="#FFCD08"/>
<path d="M275.925 199.386C270.601 193.219 255.771 190.723 254.009 190.723C252.246 190.723 250.852 194.026 250.852 194.026L247.035 193.515C247.035 193.515 248.356 194.249 249.163 197.332C249.455 200.359 248.383 202.005 247.374 202.905C244.848 202.766 243.165 202.576 242.996 202.391C241.409 200.642 242.996 194.873 242.996 194.873C242.996 194.873 244.649 192.009 245.532 192.009C246.412 192.009 249.366 192.069 249.366 192.069C249.366 192.069 250.375 187.824 253.02 187.824C255.661 187.822 275.045 194.54 275.925 199.386Z" fill="#F39E23"/>
<path d="M232.681 193.293C232.681 193.293 230.116 193.121 229.162 193.378C228.208 193.635 224.971 199.895 225.117 200.849C225.264 201.803 226.05 202.051 226.541 201.363C226.853 200.926 229.785 196.684 229.785 196.684C229.785 196.684 236.829 198.872 237.6 198.578C238.371 198.286 240.647 196.487 232.681 193.293Z" fill="#D84554"/>
<path d="M240.243 201.369C240.243 201.369 238.811 202.36 237.673 202.03C236.535 201.7 230.001 200.268 230.001 198.763C230.001 197.258 231.873 197.992 232.057 198.029C232.241 198.066 233.489 198.947 235.214 198.69C236.939 198.433 237.93 197.772 239.179 198.8C240.427 199.828 240.243 201.369 240.243 201.369Z" fill="#D84554"/>
<path d="M244.17 202.177C243.768 202.306 243.373 202.376 242.995 202.389C240.383 202.502 238.371 200.268 238.371 200.268C238.371 200.268 238.371 203.129 237.123 203.056C235.875 202.983 236.313 199.458 236.389 196.083C235.652 197.185 234.882 201.221 234.477 202.432C234.175 203.341 233.778 203.034 233.156 202.983C231.435 202.842 232.627 200.794 233.598 195.825C232.572 196.781 231.175 201.589 230.883 202.323C230.588 203.056 229.559 203.571 228.898 202.688C228.238 201.808 231.616 192.631 232.569 192.558C233.525 192.485 234.332 193.145 234.405 193.514C234.405 193.514 234.737 192.907 235.616 192.907C236.499 192.907 237.329 193.72 237.329 193.72C237.329 193.72 237.691 193.159 238.574 193.079C239.46 192.996 244.097 195.2 245.199 195.641C246.301 196.083 247.327 201.148 244.17 202.177Z" fill="#F68962"/>
<path d="M227.468 148.18C227.468 148.18 227.455 149.825 227.435 152.484C227.432 152.67 227.432 152.863 227.428 153.059C227.425 153.577 227.421 154.131 227.418 154.715C227.415 154.904 227.415 155.092 227.411 155.288C227.408 155.819 227.404 156.371 227.398 156.945C227.398 157.134 227.395 157.327 227.395 157.519C227.392 158.057 227.385 158.608 227.382 159.172C227.379 159.365 227.379 159.557 227.379 159.749C227.372 160.29 227.369 160.841 227.362 161.402C227.362 161.595 227.359 161.787 227.359 161.979C227.352 162.523 227.349 163.074 227.346 163.632C227.343 163.821 227.343 164.014 227.339 164.206C227.336 164.75 227.329 165.304 227.326 165.861C227.323 166.05 227.323 166.244 227.319 166.436C227.316 166.987 227.312 167.538 227.306 168.092C227.306 168.285 227.303 168.474 227.303 168.666C227.3 169.217 227.293 169.771 227.29 170.322C227.287 170.515 227.283 170.703 227.283 170.895C227.276 171.446 227.273 172.001 227.266 172.549C227.266 172.745 227.263 172.937 227.263 173.127C227.256 173.681 227.253 174.231 227.25 174.779C227.247 174.972 227.243 175.164 227.243 175.357C227.236 175.915 227.233 176.467 227.226 177.011C227.226 177.204 227.223 177.396 227.219 177.585C227.216 178.146 227.209 178.696 227.206 179.24C227.203 179.433 227.199 179.625 227.199 179.817C227.192 180.378 227.189 180.933 227.182 181.471C227.179 181.667 227.179 181.856 227.175 182.045C227.168 182.613 227.165 183.167 227.158 183.701C227.155 183.893 227.155 184.085 227.151 184.274C227.144 184.848 227.138 185.403 227.131 185.93C227.131 186.126 227.128 186.318 227.128 186.507C227.118 187.094 227.111 187.65 227.108 188.161C227.105 188.36 227.101 188.553 227.098 188.738C227.088 189.365 227.081 189.923 227.072 190.394C227.072 190.603 227.069 190.796 227.062 190.971C227.049 191.748 227.036 192.189 227.026 192.222C227.013 192.262 226.897 192.428 226.697 192.687C226.564 192.869 226.388 193.098 226.183 193.36C225.775 193.888 225.247 194.562 224.666 195.292C224.49 195.511 224.311 195.738 224.128 195.967C222.024 198.619 219.538 201.696 219.538 201.696C219.538 201.696 218.635 199.499 217.736 197.152C217.666 196.976 217.6 196.797 217.53 196.618C217.331 196.093 217.138 195.572 216.956 195.071C216.89 194.885 216.827 194.705 216.763 194.529C216.561 193.955 216.381 193.425 216.245 192.977C216.185 192.778 216.132 192.592 216.089 192.429C216.059 192.313 216.033 192.207 216.013 192.114C215.976 191.938 216.003 191.476 216.089 190.779C216.109 190.6 216.132 190.404 216.162 190.192C216.228 189.704 216.311 189.134 216.414 188.494C216.444 188.301 216.477 188.105 216.507 187.899C216.597 187.371 216.69 186.8 216.796 186.193C216.829 186.001 216.862 185.801 216.899 185.602C216.992 185.058 217.095 184.487 217.201 183.896C217.234 183.7 217.271 183.505 217.307 183.303C217.407 182.749 217.513 182.177 217.619 181.589C217.656 181.393 217.692 181.194 217.732 180.995C217.835 180.437 217.941 179.864 218.051 179.283C218.088 179.087 218.124 178.887 218.164 178.688C218.27 178.127 218.38 177.554 218.489 176.976C218.525 176.78 218.565 176.581 218.602 176.382C218.712 175.818 218.821 175.247 218.934 174.669C218.97 174.47 219.007 174.271 219.05 174.072C219.156 173.504 219.269 172.934 219.382 172.359C219.418 172.16 219.458 171.96 219.498 171.761C219.608 171.19 219.72 170.62 219.833 170.049C219.869 169.85 219.909 169.651 219.949 169.455C220.062 168.881 220.175 168.31 220.288 167.739C220.328 167.54 220.368 167.34 220.407 167.141C220.52 166.567 220.633 165.994 220.749 165.426C220.785 165.227 220.825 165.027 220.865 164.831C220.981 164.253 221.097 163.68 221.207 163.116C221.25 162.917 221.29 162.718 221.33 162.518C221.446 161.937 221.562 161.362 221.675 160.801C221.715 160.599 221.755 160.399 221.794 160.204C221.914 159.62 222.03 159.047 222.143 158.489C222.183 158.287 222.223 158.087 222.262 157.892C222.382 157.301 222.498 156.729 222.611 156.178C222.651 155.976 222.694 155.776 222.73 155.577C222.856 154.976 222.972 154.405 223.082 153.861C223.125 153.659 223.165 153.46 223.205 153.264C223.261 152.995 223.314 152.735 223.364 152.486C223.922 149.758 224.273 148.062 224.273 148.062L227.468 148.18Z" fill="#D84554"/>
<path d="M227.468 148.179C227.468 148.179 227.139 191.899 227.027 192.227C226.918 192.559 219.539 201.7 219.539 201.7L222.954 191.016C222.954 191.016 224.717 164.257 225.596 153.022C224.892 153.069 224.082 152.813 223.366 152.491C223.924 149.763 224.275 148.067 224.275 148.067L227.468 148.179Z" fill="#CD4353"/>
<path d="M227.435 152.484C227.432 152.67 227.432 152.862 227.428 153.058L223.083 153.865C223.126 153.663 223.166 153.463 223.206 153.267L227.435 152.484Z" fill="#CD4353"/>
<path d="M227.419 154.715C227.416 154.904 227.416 155.093 227.412 155.289L222.613 156.182C222.653 155.98 222.696 155.78 222.732 155.581L227.419 154.715Z" fill="#CD4353"/>
<path d="M227.399 156.945C227.399 157.134 227.396 157.327 227.396 157.519L222.145 158.491C222.185 158.289 222.225 158.089 222.264 157.894L227.399 156.945Z" fill="#CD4353"/>
<path d="M227.382 159.173C227.379 159.366 227.379 159.558 227.379 159.75L221.677 160.805C221.717 160.603 221.757 160.403 221.796 160.208L227.382 159.173Z" fill="#CD4353"/>
<path d="M227.362 161.402C227.362 161.595 227.359 161.787 227.359 161.979L221.209 163.118C221.252 162.919 221.292 162.72 221.332 162.52L227.362 161.402Z" fill="#CD4353"/>
<path d="M227.346 163.634C227.343 163.823 227.343 164.016 227.339 164.208L220.75 165.429C220.786 165.23 220.826 165.031 220.866 164.835L227.346 163.634Z" fill="#CD4353"/>
<path d="M227.326 165.863C227.323 166.052 227.323 166.245 227.319 166.437L220.289 167.741C220.329 167.542 220.369 167.343 220.408 167.144L227.326 165.863Z" fill="#CD4353"/>
<path d="M227.306 168.095C227.306 168.288 227.303 168.477 227.303 168.669L219.835 170.053C219.871 169.854 219.911 169.655 219.951 169.459L227.306 168.095Z" fill="#CD4353"/>
<path d="M227.289 170.324C227.286 170.517 227.282 170.706 227.282 170.898L219.382 172.362C219.418 172.163 219.458 171.964 219.498 171.765L227.289 170.324Z" fill="#CD4353"/>
<path d="M227.266 172.552C227.266 172.748 227.263 172.94 227.263 173.13L218.935 174.673C218.971 174.474 219.008 174.275 219.051 174.076L227.266 172.552Z" fill="#CD4353"/>
<path d="M227.249 174.782C227.246 174.975 227.242 175.167 227.242 175.36L218.489 176.98C218.525 176.784 218.565 176.585 218.602 176.386L227.249 174.782Z" fill="#CD4353"/>
<path d="M227.226 177.013C227.226 177.206 227.223 177.398 227.219 177.587L218.052 179.286C218.089 179.09 218.125 178.891 218.165 178.692L227.226 177.013Z" fill="#CD4353"/>
<path d="M227.206 179.243C227.203 179.436 227.199 179.628 227.199 179.82L217.62 181.593C217.657 181.397 217.693 181.198 217.733 180.999L227.206 179.243Z" fill="#CD4353"/>
<path d="M227.183 181.474C227.18 181.67 227.18 181.859 227.176 182.048L217.202 183.9C217.235 183.704 217.272 183.508 217.308 183.306L227.183 181.474Z" fill="#CD4353"/>
<path d="M227.16 183.704C227.157 183.896 227.157 184.089 227.153 184.278L216.797 186.196C216.83 186.004 216.863 185.804 216.9 185.605L227.16 183.704Z" fill="#CD4353"/>
<path d="M227.133 185.935C227.133 186.131 227.13 186.323 227.13 186.512L216.416 188.497C216.446 188.304 216.479 188.109 216.509 187.903L227.133 185.935Z" fill="#CD4353"/>
<path d="M227.11 188.165C227.107 188.364 227.103 188.557 227.1 188.742L216.09 190.783C216.11 190.604 216.133 190.408 216.163 190.196L227.11 188.165Z" fill="#CD4353"/>
<path d="M227.073 190.398C227.073 190.607 227.07 190.8 227.063 190.975L216.246 192.98C216.186 192.781 216.133 192.595 216.09 192.432L227.073 190.398Z" fill="#CD4353"/>
<path d="M226.698 192.692C226.565 192.874 226.389 193.104 226.184 193.366L216.957 195.075C216.891 194.889 216.828 194.71 216.764 194.534L226.698 192.692Z" fill="#CD4353"/>
<path d="M224.667 195.298C224.491 195.517 224.312 195.743 224.129 195.972L217.736 197.157C217.666 196.981 217.6 196.802 217.53 196.623L224.667 195.298Z" fill="#CD4353"/>
<path d="M231.763 145.148C231.8 145.579 231.245 146.625 230.538 147.558C230.16 148.053 229.738 148.514 229.34 148.839C228.185 149.775 226.917 150.93 224.604 150.213C223.393 149.838 222.682 148.756 222.287 147.777C221.932 146.891 221.832 146.091 221.852 145.975C222.237 143.827 224.992 142.506 226.588 142.284C228.185 142.065 231.707 144.488 231.763 145.148Z" fill="#D84554"/>
<path d="M231.763 145.148C231.8 145.579 231.245 146.625 230.538 147.558C228.845 148.305 226.694 149.071 225.928 149.002C224.66 148.892 223.668 147.737 223.283 147.571C223.077 147.481 222.659 147.617 222.287 147.777C221.932 146.891 221.832 146.091 221.852 145.975C222.237 143.827 224.992 142.506 226.588 142.284C228.185 142.065 231.707 144.488 231.763 145.148Z" fill="#CD4353"/>
<path d="M241.784 120.314C240.493 122.252 239.042 123.759 237.502 124.914C229.284 131.078 218.526 127.168 215.715 125.243C215.645 125.197 215.579 125.15 215.519 125.104C212.601 122.903 212.635 117.181 212.967 114.645C213.458 110.874 216.177 109.563 216.346 109.484C216.15 109.511 212.107 110.101 212.27 108.973C215.025 104.071 221.796 102.255 225.43 102.089C229.064 101.923 234.846 104.071 237.326 108.585C245.694 112.166 241.784 120.314 241.784 120.314Z" fill="#3E3F59"/>
<path d="M239.417 122.681L239.251 122.186C238.737 123.225 238.146 124.128 237.502 124.914C229.284 131.078 218.526 127.168 215.715 125.243C215.161 124.085 214.729 122.694 214.474 121.031C212.931 111.007 220.256 107.761 220.256 107.761C220.256 107.761 215.576 108.146 215.025 108.199C214.474 108.256 215.479 104.965 221.412 104.015C233.801 102.033 236.115 111.505 236.115 111.505C236.115 111.505 238.757 111.89 240.134 114.589C241.508 117.288 239.417 122.681 239.417 122.681Z" fill="#2E2D44"/>
<path d="M225.303 136.834C225.303 136.834 220.164 139.624 219.429 141.68C218.695 143.736 218.401 149.462 218.401 149.462C218.401 149.462 222.145 145.497 223.467 145.791C224.789 146.085 225.743 147.039 225.743 147.039C225.743 147.039 228.753 144.616 230.222 145.717C231.69 146.818 234.407 150.269 234.407 150.269C234.407 150.269 238.298 145.35 238.739 142.707C239.18 140.064 234.481 135.879 232.792 135.439C231.103 134.999 225.303 136.834 225.303 136.834Z" fill="#FFCD08"/>
<path d="M234.2 140.946C233.337 142.821 231.827 144.172 229.56 144.544C226.404 145.055 224.568 144.763 223.174 142.636C221.78 140.505 224.054 138.889 224.054 138.451C224.051 138.355 224.044 138.249 224.037 138.136C223.901 136.188 223.247 131.989 223.247 131.989L233.085 130.08C233.085 130.219 233.404 132.988 233.895 135.357C234.048 136.094 234.217 136.794 234.4 137.362C234.774 138.54 234.714 139.824 234.2 140.946Z" fill="#F68962"/>
<path d="M233.894 135.357C232.776 136.104 231.176 136.924 229.121 137.385C227.193 137.82 225.417 138.032 224.036 138.135C223.9 136.187 223.246 131.988 223.246 131.988L233.084 130.079C233.084 130.219 233.403 132.987 233.894 135.357Z" fill="#D84554"/>
<path d="M236.988 125.051C236.762 127.341 236.301 129.897 235.362 131.328C233.38 134.338 225.229 135.879 223.689 136.028C222.146 136.174 220.127 136.32 218.219 133.97C217.051 132.533 216.155 125.888 216.022 120.723C216.015 120.477 216.012 120.235 216.009 119.996C215.973 117.015 218.372 114.579 221.353 114.556C224.735 114.533 228.878 114.606 231.207 114.656C232.203 114.676 233.076 115.343 233.341 116.302C233.504 116.893 233.749 117.6 234.114 118.333C234.568 119.242 235.289 119.735 235.919 120.001C236.704 120.333 237.205 121.11 237.18 121.962C237.155 122.803 237.102 123.893 236.988 125.051Z" fill="#F68962"/>
<path d="M236.988 125.051L236.444 121.582C236.444 121.582 236.059 121.692 234.187 121.031C232.315 120.37 231.379 116.789 230.885 116.461C230.387 116.129 223.065 115.91 219.431 116.79C217.38 117.288 216.454 119.153 216.022 120.723C216.015 120.477 216.012 120.235 216.009 119.996C215.973 117.015 218.372 114.579 221.353 114.556C224.735 114.533 228.878 114.606 231.207 114.656C232.203 114.676 233.076 115.343 233.341 116.302C233.504 116.893 233.749 117.6 234.114 118.333C234.568 119.242 235.289 119.735 235.919 120.001C236.704 120.333 237.205 121.11 237.18 121.962C237.155 122.803 237.102 123.893 236.988 125.051Z" fill="#F67159"/>
<path d="M220.971 129.4C220.971 129.4 222.182 130.666 224.495 130.501C226.808 130.336 227.964 127.252 227.964 127.252C227.964 127.252 225.266 129.786 220.971 129.4Z" fill="#D84554"/>
<path d="M222.586 119.361C222.29 119.318 221.972 125.6 222.261 125.821C222.549 126.042 225.363 126.029 225.189 125.667C225.016 125.305 223.447 125.425 223.108 125.109C222.77 124.794 222.883 119.405 222.586 119.361Z" fill="#D84554"/>
<path d="M227.858 120.681C227.143 120.37 226.261 120.823 226.125 121.596C226.036 122.103 226.286 122.594 226.694 122.845C227.18 123.208 227.988 123.067 228.355 122.559C228.809 121.932 228.577 120.994 227.858 120.681Z" fill="#002734"/>
<path d="M225.569 119.244C225.569 119.244 226.819 118.744 227.689 118.884C228.559 119.023 229.781 119.627 229.781 119.627C229.781 119.627 229.224 117.886 227.831 117.712C226.439 117.538 225.569 119.244 225.569 119.244Z" fill="#002734"/>
<path d="M220.167 120.681C219.452 120.37 218.57 120.823 218.434 121.596C218.345 122.103 218.595 122.594 219.003 122.845C219.489 123.208 220.297 123.067 220.664 122.559C221.119 121.932 220.886 120.994 220.167 120.681Z" fill="#002734"/>
<path d="M217.724 119.413C217.724 119.413 218.839 118.817 219.664 118.863C220.489 118.909 221.689 119.359 221.689 119.359C221.689 119.359 220.995 117.768 219.679 117.741C218.365 117.714 217.724 119.413 217.724 119.413Z" fill="#002734"/>
<path d="M240.684 118.663C242.115 118.541 243.272 120.26 243.107 122.628C242.942 124.996 240.574 128.079 239.142 128.189C237.71 128.299 236.939 128.079 236.499 127.198C236.059 126.317 238.096 118.883 240.684 118.663Z" fill="#F68962"/>
<path d="M241.556 122.417C241.556 122.27 241.813 120.545 240.822 120.214C239.831 119.884 238.693 122.857 238.362 123.701C239.426 123.261 239.94 124.105 239.977 124.729C240.014 125.353 238.912 126.895 237.591 125.83C237.371 126.601 237.371 126.601 237.371 126.601C237.371 126.601 239.207 127.372 240.308 125.904C241.409 124.436 240.051 123.151 239.317 123.114C239.684 122.27 240.271 121.279 240.602 121.279C241.055 121.279 241.556 122.417 241.556 122.417Z" fill="#D84554"/>
<path d="M212.942 118.663C211.511 118.541 210.354 120.26 210.519 122.628C210.684 124.996 213.052 128.079 214.484 128.189C215.916 128.299 216.686 128.079 217.127 127.198C217.568 126.317 215.53 118.883 212.942 118.663Z" fill="#F68962"/>
<path d="M212.07 122.417C212.07 122.27 211.813 120.545 212.804 120.214C213.795 119.884 214.933 122.857 215.264 123.701C214.199 123.261 213.685 124.105 213.649 124.729C213.612 125.353 214.714 126.895 216.035 125.83C216.255 126.601 216.255 126.601 216.255 126.601C216.255 126.601 214.419 127.372 213.318 125.904C212.217 124.436 213.575 123.151 214.309 123.114C213.942 122.27 213.355 121.279 213.024 121.279C212.571 121.279 212.07 122.417 212.07 122.417Z" fill="#D84554"/>
<path d="M326.288 194.177C326.651 194.271 327.619 195.932 327.619 195.932L323.429 198.824H266.762L268.742 196.792L267.219 194.142L269.385 193.142L267.004 190.813L269.358 188.41L267.67 185.608L269.237 184.479L268.297 183.013L269.281 181.809L266.427 180.883L269.088 179.265L267.394 177.592L268.917 176.588L266.431 175.025L269.428 173.939L267.657 172.966L269.301 171.817L267.767 170.129L269.89 169.394L267.982 168.05L269.621 166.768L269.137 165.588L301.372 165.377L327.267 165.209L326.123 166.573L327.822 168.332L326.216 170.044L328.619 172.823L326.76 174.828L328.498 176.579L326.277 177.689L328.73 179.381L326.492 181.19L327.9 183.613L326.113 184.582L328.967 187.935L326.196 189.549L328 192.714C327.998 192.711 325.925 194.087 326.288 194.177Z" fill="white"/>
<path d="M326.288 194.177C326.651 194.271 327.619 195.932 327.619 195.932L323.429 198.824H299.937L303.423 196.964L300.503 196.057L303.241 194.502L300.503 193.076L302.51 191.259L299.771 190.743L302.878 188.668L299.408 187.113L303.422 184.26H298.863L304.334 182.185L301.233 181.278L304.516 179.59L300.502 178.425L303.604 176.737L301.778 175.053L304.885 172.978L300.139 171.165L304.885 168.957L301.597 167.792L304.154 166.753L301.372 165.377L327.267 165.209L326.123 166.573L327.822 168.332L326.216 170.044L328.619 172.823L326.76 174.828L328.498 176.579L326.277 177.689L328.73 179.381L326.492 181.19L327.9 183.613L326.113 184.582L328.967 187.935L326.196 189.549L328 192.714C327.998 192.711 325.925 194.087 326.288 194.177Z" fill="#F9EFCD"/>
<path d="M272.954 169.346H322.764C322.764 169.346 282.624 174.273 272.954 169.346Z" fill="#EFD7B2"/>
<path d="M272.771 175.051C272.771 175.051 278.731 173.063 291.381 174.619C286.394 176.262 272.771 175.051 272.771 175.051Z" fill="#F9EFCD"/>
<path d="M271.92 192.167C271.92 192.167 277.88 190.179 290.53 191.735C285.543 193.377 271.92 192.167 271.92 192.167Z" fill="#EFD7B2"/>
<path d="M283.718 184.646C283.718 183.695 323.371 183.436 325.196 184.473C323.25 185.684 283.718 185.597 283.718 184.646Z" fill="#F9EFCD"/>
<path d="M119.867 182.797C118.997 181.949 118.946 180.523 119.392 179.393C119.838 178.263 120.683 177.347 121.467 176.419C122.251 175.491 123.012 174.473 123.227 173.278C123.642 170.977 121.986 168.387 123.212 166.396C124.349 164.55 127.274 164.526 128.44 162.698C129.215 161.484 128.938 159.915 128.962 158.475C129.01 155.497 130.586 152.562 133.097 150.96C135.608 149.358 138.992 149.183 141.609 150.605C146.703 153.372 147.276 161.999 141.544 164.473C140.626 164.869 139.63 165.054 138.695 165.407C137.759 165.761 136.841 166.334 136.41 167.236C135.714 168.693 136.46 170.599 135.572 171.948C134.48 173.607 131.886 173.171 130.204 174.228C129.113 174.913 128.52 176.163 128.117 177.386C127.714 178.61 127.432 179.9 126.726 180.977C125.386 183.023 122.05 183.352 119.867 182.797Z" fill="white"/>
<path d="M116.852 194.854V198.824H128.068L127.77 194.557L116.852 194.854Z" fill="#F9EFCD"/>
<path d="M117.595 196.706H114.612C111.946 196.706 109.684 194.751 109.297 192.114L108.735 188.28C108.41 186.06 110.13 184.069 112.374 184.069H116.852V186.054H112.133C111.137 186.054 110.376 186.944 110.532 187.928L111.081 191.404C111.395 193.391 113.107 194.854 115.119 194.854H117.383L117.595 196.706Z" fill="#F9EFCD"/>
<path d="M130.68 180.825V193.706C130.68 195.363 129.337 196.706 127.68 196.706H117.596C115.966 196.706 114.638 195.408 114.596 193.78L114.273 180.825H130.68Z" fill="white"/>
<path d="M130.68 180.825V193.706C130.68 195.363 129.337 196.706 127.68 196.706H124.925V180.825H130.68Z" fill="#F9EFCD"/>
<path d="M272.266 202.122H267.138V316.105H272.266V202.122Z" fill="#F9EFCD"/>
<path d="M327.629 202.122H322.501V313.739H327.629V202.122Z" fill="white"/>
<path d="M108.778 202.123H103.65V316.106H108.778V202.123Z" fill="#F9EFCD"/>
<path d="M327.914 204.081H268.828V237.805H327.914V204.081Z" fill="#F9EFCD"/>
<path d="M103.65 198.823V237.804H155.515C162.396 237.804 168.995 235.071 173.86 230.205H208.11L208.533 230.608C213.382 235.223 219.827 237.785 226.521 237.759C242.734 237.694 272.146 237.605 272.146 237.805C272.146 238.08 272.146 198.824 272.146 198.824H103.65V198.823Z" fill="#F9EFCD"/>
<path d="M333.94 198.823H103.65V212.89H333.94V198.823Z" fill="#B76D5C"/>
<path d="M333.939 198.823H272.146V212.89H333.939V198.823Z" fill="#B25842"/>
<path d="M327.629 293.884H267.138V299.012H327.629V293.884Z" fill="#F9EFCD"/>
<path d="M285.585 244.141C286.356 248.468 284.639 253.669 287.668 256.852C289.757 259.048 293.404 259.293 295.279 261.673C297.293 264.226 296.356 267.883 296.204 271.13C295.975 275.954 297.963 280.75 301.267 284.229C302.931 285.985 306.289 289.599 309.178 289.72C309.885 289.751 310.566 289.571 311.186 289.105C311.388 288.955 311.578 288.795 311.763 288.631C317.052 283.912 316.166 273.506 313.065 268.046C310.955 264.333 307.496 261.015 307.423 256.744C307.367 253.346 309.551 250.094 308.999 246.739C308.248 242.208 303.107 239.959 300.535 236.156C296.974 230.886 298.807 223.406 295.633 217.896C292.982 213.297 286.774 211.125 281.836 213.071C276.894 215.015 273.833 220.836 275.034 226.007C276.63 232.894 284.34 237.184 285.585 244.141Z" fill="#80B230"/>
<path d="M309.179 289.719C309.886 289.75 310.567 289.57 311.187 289.104C311.389 288.954 311.579 288.794 311.764 288.63C311.345 287.28 310.876 285.941 310.493 284.637C309.566 281.482 308.63 278.331 307.632 275.197C305.672 269.036 303.536 262.925 301.299 256.858C299.062 250.79 296.693 244.767 294.205 238.797C292.976 235.845 291.71 232.908 290.395 229.99C289.072 227.054 287.911 223.809 286.094 221.14C285.363 220.068 283.612 220.768 283.975 222.066C284.845 225.175 286.516 228.165 287.795 231.125C289.097 234.144 290.389 237.167 291.658 240.203C294.109 246.07 296.438 251.991 298.654 257.949C300.869 263.915 302.941 269.925 304.941 275.961C305.977 279.084 307.006 282.21 307.979 285.354C308.413 286.758 308.772 288.246 309.179 289.719Z" fill="#6B9117"/>
<path d="M326.377 239.338C327.23 243.65 330.718 247.872 329.052 251.938C327.904 254.743 324.594 256.296 323.711 259.194C322.762 262.304 324.962 265.371 326.283 268.342C328.248 272.753 328.138 277.944 326.323 282.385C325.41 284.625 323.595 289.212 320.946 290.374C320.299 290.659 319.598 290.739 318.852 290.53C318.61 290.464 318.374 290.384 318.142 290.298C311.5 287.822 308.546 277.805 309.452 271.591C310.069 267.366 312.087 263.018 310.604 259.011C309.422 255.825 306.206 253.588 305.502 250.262C304.556 245.768 308.529 241.805 309.545 237.327C310.949 231.124 306.525 224.82 307.481 218.534C308.281 213.287 313.276 209.008 318.583 209.028C323.894 209.045 328.859 213.356 329.619 218.61C330.635 225.606 325.009 232.404 326.377 239.338Z" fill="#8BC53F"/>
<path d="M320.947 290.373C320.3 290.658 319.599 290.738 318.853 290.529C318.611 290.463 318.375 290.383 318.143 290.297C318.043 288.886 317.994 287.469 317.877 286.115C317.595 282.839 317.323 279.563 317.114 276.28C316.702 269.828 316.473 263.359 316.354 256.893C316.235 250.427 316.255 243.955 316.404 237.489C316.477 234.293 316.59 231.096 316.756 227.9C316.922 224.684 316.826 221.239 317.549 218.092C317.841 216.827 319.726 216.844 319.859 218.185C320.178 221.398 319.706 224.79 319.59 228.013C319.474 231.299 319.368 234.585 319.288 237.874C319.135 244.23 319.115 250.593 319.215 256.949C319.318 263.312 319.57 269.665 319.899 276.014C320.068 279.3 320.244 282.586 320.48 285.869C320.585 287.336 320.791 288.853 320.947 290.373Z" fill="#80B230"/>
<path d="M352.046 244.141C351.275 248.468 352.992 253.669 349.963 256.852C347.874 259.048 344.227 259.293 342.352 261.673C340.338 264.226 341.274 267.883 341.426 271.13C341.655 275.954 339.667 280.75 336.363 284.229C334.699 285.985 331.341 289.599 328.452 289.72C327.745 289.751 327.064 289.571 326.444 289.105C326.242 288.955 326.052 288.795 325.867 288.631C320.578 283.912 321.464 273.506 324.565 268.046C326.675 264.333 330.134 261.015 330.207 256.744C330.263 253.346 328.079 250.094 328.631 246.739C329.382 242.208 334.523 239.959 337.095 236.156C340.656 230.886 338.823 223.406 341.997 217.896C344.648 213.297 350.856 211.125 355.794 213.071C360.736 215.015 363.797 220.836 362.597 226.007C361 232.894 353.29 237.184 352.046 244.141Z" fill="#80B230"/>
<path d="M328.451 289.719C327.744 289.75 327.063 289.57 326.443 289.104C326.241 288.954 326.051 288.794 325.866 288.63C326.286 287.28 326.754 285.941 327.137 284.637C328.064 281.482 329 278.331 329.997 275.197C331.957 269.036 334.093 262.925 336.33 256.858C338.567 250.79 340.936 244.767 343.424 238.797C344.653 235.845 345.919 232.908 347.234 229.99C348.557 227.054 349.718 223.809 351.535 221.14C352.266 220.068 354.017 220.768 353.654 222.066C352.784 225.175 351.113 228.165 349.834 231.125C348.532 234.144 347.24 237.167 345.971 240.203C343.52 246.07 341.191 251.991 338.975 257.949C336.76 263.915 334.688 269.925 332.688 275.961C331.652 279.084 330.623 282.21 329.65 285.354C329.217 286.758 328.858 288.246 328.451 289.719Z" fill="#6B9117"/>
<path d="M295.272 284.829C295.272 284.829 295.933 305.533 301.439 309.277C309.831 309.277 329.39 309.277 337.781 309.277C343.287 305.533 343.948 284.829 343.948 284.829H295.272Z" fill="#3E3F59"/>
<path d="M293.62 303.991L295.052 309.243C296.157 313.295 299.837 316.105 304.037 316.105H335.184C339.383 316.105 343.063 313.294 344.168 309.243L345.6 303.991H293.62Z" fill="#F9EFCD"/>
<path d="M180.744 91.167H105.546C102.428 91.167 99.901 93.694 99.901 96.812V140.88C99.901 143.997 102.428 146.525 105.546 146.525H175.89L186.389 157.024C186.389 157.024 186.389 141.386 186.389 140.88V96.812C186.389 93.694 183.861 91.167 180.744 91.167Z" fill="white"/>
<path d="M181.91 95.3516H104.38V142.267H181.91V95.3516Z" fill="#3E3F59"/>
<path d="M174.99 99.8671H110.565C110.048 99.8671 109.629 99.4481 109.629 98.9311C109.629 98.4141 110.048 97.9951 110.565 97.9951H174.99C175.507 97.9951 175.926 98.4141 175.926 98.9311C175.926 99.4481 175.507 99.8671 174.99 99.8671Z" fill="#EB008B"/>
<path d="M174.99 124.426H110.565C110.048 124.426 109.629 124.007 109.629 123.49C109.629 122.973 110.048 122.554 110.565 122.554H174.99C175.507 122.554 175.926 122.973 175.926 123.49C175.926 124.007 175.507 124.426 174.99 124.426Z" fill="#EB008B"/>
<path d="M135.675 104.933H110.566C110.049 104.933 109.63 104.514 109.63 103.997C109.63 103.48 110.049 103.061 110.566 103.061H135.675C136.192 103.061 136.611 103.48 136.611 103.997C136.611 104.514 136.192 104.933 135.675 104.933Z" fill="#8BC53F"/>
<path d="M135.675 130.263H110.566C110.049 130.263 109.63 129.844 109.63 129.327C109.63 128.81 110.049 128.391 110.566 128.391H135.675C136.192 128.391 136.611 128.81 136.611 129.327C136.611 129.844 136.192 130.263 135.675 130.263Z" fill="#8BC53F"/>
<path d="M135.675 135.549H110.566C110.049 135.549 109.63 135.13 109.63 134.613C109.63 134.096 110.049 133.677 110.566 133.677H135.675C136.192 133.677 136.611 134.096 136.611 134.613C136.611 135.13 136.192 135.549 135.675 135.549Z" fill="#8BC53F"/>
<path d="M142.172 111.431H117.063C116.546 111.431 116.127 111.012 116.127 110.495C116.127 109.978 116.546 109.559 117.063 109.559H142.172C142.689 109.559 143.108 109.978 143.108 110.495C143.108 111.012 142.689 111.431 142.172 111.431Z" fill="#8BC53F"/>
<path d="M142.172 118.479H117.063C116.546 118.479 116.127 118.06 116.127 117.543C116.127 117.026 116.546 116.607 117.063 116.607H142.172C142.689 116.607 143.108 117.026 143.108 117.543C143.108 118.06 142.689 118.479 142.172 118.479Z" fill="#8BC53F"/>
<path d="M171.797 111.431H146.688C146.171 111.431 145.752 111.012 145.752 110.495C145.752 109.978 146.171 109.559 146.688 109.559H171.797C172.314 109.559 172.733 109.978 172.733 110.495C172.733 111.012 172.314 111.431 171.797 111.431Z" fill="#8BC53F"/>
<path d="M236.705 32.0371H304.445C307.253 32.0371 309.53 34.3141 309.53 37.1221V76.8201C309.53 79.6281 307.253 81.9051 304.445 81.9051H241.078L231.621 91.3631C231.621 91.3631 231.621 77.2761 231.621 76.8211V37.1231C231.621 34.3131 233.897 32.0371 236.705 32.0371Z" fill="white"/>
<path d="M235.655 78.0684L305.496 78.0684V35.8064L235.655 35.8064V78.0684Z" fill="#3E3F59"/>
<path d="M257.815 61.9975H293.571C294.037 61.9975 294.414 61.6195 294.414 61.1545C294.414 60.6885 294.036 60.3115 293.571 60.3115H257.815C257.349 60.3115 256.972 60.6895 256.972 61.1545C256.971 61.6195 257.349 61.9975 257.815 61.9975Z" fill="#EB008B"/>
<path d="M263.481 44.9985H299.237C299.703 44.9985 300.08 44.6205 300.08 44.1555C300.08 43.6895 299.702 43.3125 299.237 43.3125H263.481C263.015 43.3125 262.638 43.6905 262.638 44.1555C262.638 44.6205 263.015 44.9985 263.481 44.9985Z" fill="#EB008B"/>
<path d="M277.305 67.2553H299.924C300.39 67.2553 300.767 66.8773 300.767 66.4123C300.767 65.9463 300.389 65.5693 299.924 65.5693H277.305C276.839 65.5693 276.462 65.9473 276.462 66.4123C276.461 66.8773 276.839 67.2553 277.305 67.2553Z" fill="#8BC53F"/>
<path d="M277.305 72.0161H299.924C300.39 72.0161 300.767 71.6381 300.767 71.1731C300.767 70.7071 300.389 70.3301 299.924 70.3301H277.305C276.839 70.3301 276.462 70.7081 276.462 71.1731C276.461 71.6391 276.839 72.0161 277.305 72.0161Z" fill="#EB008B"/>
<path d="M249.102 67.2553H271.721C272.187 67.2553 272.564 66.8773 272.564 66.4123C272.564 65.9463 272.186 65.5693 271.721 65.5693H249.102C248.636 65.5693 248.259 65.9473 248.259 66.4123C248.259 66.8773 248.636 67.2553 249.102 67.2553Z" fill="#8BC53F"/>
<path d="M249.102 72.0161H271.721C272.187 72.0161 272.564 71.6381 272.564 71.1731C272.564 70.7071 272.186 70.3301 271.721 70.3301H249.102C248.636 70.3301 248.259 70.7081 248.259 71.1731C248.259 71.6391 248.636 72.0161 249.102 72.0161Z" fill="#EB008B"/>
<path d="M277.305 51.6216H299.924C300.39 51.6216 300.767 51.2435 300.767 50.7785C300.767 50.3125 300.389 49.9355 299.924 49.9355H277.305C276.839 49.9355 276.462 50.3135 276.462 50.7785C276.461 51.2435 276.839 51.6216 277.305 51.6216Z" fill="#8BC53F"/>
<path d="M277.305 56.3833H299.924C300.39 56.3833 300.767 56.0053 300.767 55.5403C300.767 55.0743 300.389 54.6973 299.924 54.6973H277.305C276.839 54.6973 276.462 55.0753 276.462 55.5403C276.461 56.0053 276.839 56.3833 277.305 56.3833Z" fill="#EB008B"/>
<path d="M249.102 51.6216H271.721C272.187 51.6216 272.564 51.2435 272.564 50.7785C272.564 50.3125 272.186 49.9355 271.721 49.9355H249.102C248.636 49.9355 248.259 50.3135 248.259 50.7785C248.259 51.2435 248.636 51.6216 249.102 51.6216Z" fill="#8BC53F"/>
<path d="M249.102 56.3833H271.721C272.187 56.3833 272.564 56.0053 272.564 55.5403C272.564 55.0743 272.186 54.6973 271.721 54.6973H249.102C248.636 54.6973 248.259 55.0753 248.259 55.5403C248.259 56.0053 248.636 56.3833 249.102 56.3833Z" fill="#EB008B"/>
<path d="M202.162 47.6045H170.353C168.189 47.6045 166.434 49.3595 166.434 51.5235V68.3545C166.434 70.5185 168.189 72.2735 170.353 72.2735H179.168C180.993 72.2735 182.647 73.3465 183.392 75.0125L185.449 79.6155L187.746 74.8815C188.52 73.2865 190.136 72.2745 191.909 72.2745H202.162C204.326 72.2745 206.081 70.5205 206.081 68.3555V51.5245C206.081 49.3595 204.326 47.6045 202.162 47.6045Z" fill="white"/>
<path d="M172.577 59.8764L178.625 62.7474C178.965 62.9084 179.204 63.0684 179.34 63.2254C179.476 63.3824 179.544 63.5734 179.544 63.7964C179.544 64.0564 179.463 64.2674 179.302 64.4284C179.141 64.5894 178.927 64.6704 178.661 64.6704C178.55 64.6704 178.427 64.6514 178.294 64.6144C178.161 64.5774 177.998 64.5154 177.806 64.4284L170.486 61.0564C170.449 61.0374 170.39 61.0134 170.31 60.9824C169.654 60.6794 169.325 60.3224 169.325 59.9144C169.325 59.4994 169.669 59.1344 170.356 58.8184L170.43 58.7724L177.806 55.3354C178.054 55.2244 178.236 55.1514 178.354 55.1174C178.472 55.0834 178.574 55.0664 178.661 55.0664C178.927 55.0664 179.141 55.1474 179.302 55.3084C179.463 55.4694 179.544 55.6804 179.544 55.9404C179.544 56.1634 179.474 56.3574 179.335 56.5214C179.196 56.6854 178.959 56.8484 178.624 57.0094L172.577 59.8764Z" fill="#3E3F59"/>
<path d="M189.838 54.1909L184.394 65.8499C184.227 66.2149 184.072 66.4688 183.93 66.6118C183.788 66.7538 183.62 66.8259 183.428 66.8259C183.143 66.8259 182.891 66.7359 182.671 66.5569C182.451 66.3769 182.341 66.1538 182.341 65.8878C182.341 65.7078 182.425 65.4298 182.592 65.0518L182.611 65.0149L188.046 53.3748C188.219 52.9968 188.377 52.7368 188.52 52.5948C188.662 52.4528 188.83 52.3809 189.022 52.3809C189.301 52.3809 189.552 52.4709 189.775 52.6499C189.998 52.8299 190.109 53.0528 190.109 53.3188C190.109 53.4308 190.091 53.5479 190.053 53.6719C190.015 53.7949 189.943 53.9679 189.838 54.1909Z" fill="#3E3F59"/>
<path d="M199.62 59.8765L193.563 57.0055C193.235 56.8445 193.001 56.6815 192.862 56.5175C192.723 56.3535 192.653 56.1595 192.653 55.9365C192.653 55.6765 192.73 55.4655 192.885 55.3045C193.04 55.1435 193.247 55.0625 193.507 55.0625C193.606 55.0625 193.719 55.0815 193.846 55.1185C193.973 55.1555 194.154 55.2265 194.39 55.3325L201.748 58.7695L201.822 58.8155C202.51 59.1315 202.853 59.4965 202.853 59.9115C202.853 60.3265 202.522 60.6825 201.859 60.9795C201.797 61.0165 201.748 61.0415 201.71 61.0535L194.362 64.4255C194.176 64.5125 194.017 64.5745 193.884 64.6115C193.751 64.6485 193.625 64.6675 193.508 64.6675C193.248 64.6675 193.04 64.5885 192.886 64.4305C192.731 64.2725 192.654 64.0605 192.654 63.7945C192.654 63.5715 192.72 63.3815 192.854 63.2235C192.987 63.0655 193.224 62.9065 193.565 62.7455L199.62 59.8765Z" fill="#3E3F59"/>
<path d="M96.1961 120.752H93.1961C92.9201 120.752 92.6961 120.528 92.6961 120.252C92.6961 119.976 92.9201 119.752 93.1961 119.752H96.1961C96.4721 119.752 96.6961 119.976 96.6961 120.252C96.6961 120.528 96.4721 120.752 96.1961 120.752ZM90.2821 120.246C90.1991 120.246 90.1161 120.225 90.0381 120.182C89.0401 119.624 88.2971 118.719 87.9471 117.634C87.8631 117.371 88.0071 117.09 88.2701 117.005C88.5321 116.922 88.8141 117.065 88.8991 117.328C89.1711 118.172 89.7491 118.876 90.5261 119.31C90.7671 119.445 90.8531 119.749 90.7181 119.991C90.6271 120.154 90.4571 120.246 90.2821 120.246ZM88.2321 115.002C87.9561 115.002 87.7321 114.778 87.7321 114.502V111.502C87.7321 111.226 87.9561 111.002 88.2321 111.002C88.5081 111.002 88.7321 111.226 88.7321 111.502V114.502C88.7321 114.778 88.5091 115.002 88.2321 115.002ZM88.2321 109.002C87.9561 109.002 87.7321 108.778 87.7321 108.502V105.502C87.7321 105.226 87.9561 105.002 88.2321 105.002C88.5081 105.002 88.7321 105.226 88.7321 105.502V108.502C88.7321 108.778 88.5091 109.002 88.2321 109.002ZM88.2321 103.002C87.9561 103.002 87.7321 102.778 87.7321 102.502V99.5017C87.7321 99.2257 87.9561 99.0017 88.2321 99.0017C88.5081 99.0017 88.7321 99.2257 88.7321 99.5017V102.502C88.7321 102.778 88.5091 103.002 88.2321 103.002ZM88.2321 97.0017C87.9561 97.0017 87.7321 96.7777 87.7321 96.5017V93.5017C87.7321 93.2257 87.9561 93.0017 88.2321 93.0017C88.5081 93.0017 88.7321 93.2257 88.7321 93.5017V96.5017C88.7321 96.7777 88.5091 97.0017 88.2321 97.0017ZM88.59 91.0387C88.541 91.0387 88.4921 91.0317 88.4431 91.0167C88.1791 90.9357 88.0311 90.6557 88.1131 90.3917C88.4271 89.3717 88.9261 88.4297 89.5941 87.5917C89.7661 87.3757 90.0811 87.3407 90.2971 87.5127C90.5131 87.6847 90.5481 87.9997 90.3771 88.2157C89.7871 88.9557 89.3471 89.7877 89.0691 90.6877C89.0021 90.9007 88.804 91.0387 88.59 91.0387ZM92.2411 86.4517C92.0691 86.4517 91.9021 86.3627 91.8081 86.2037C91.6691 85.9647 91.7501 85.6587 91.9881 85.5197C92.9121 84.9807 93.9171 84.6247 94.9741 84.4607C95.2461 84.4227 95.5031 84.6057 95.5451 84.8777C95.5871 85.1507 95.4001 85.4057 95.1271 85.4487C94.1941 85.5937 93.3071 85.9077 92.4921 86.3837C92.4141 86.4297 92.3271 86.4517 92.2411 86.4517ZM206.046 85.3597C205.77 85.3597 205.547 85.1367 205.546 84.8597C205.546 84.5837 205.769 84.3597 206.046 84.3597C206.998 84.3577 207.931 84.1957 208.818 83.8767C209.076 83.7817 209.363 83.9177 209.458 84.1787C209.551 84.4387 209.417 84.7247 209.156 84.8187C208.16 85.1767 207.114 85.3587 206.046 85.3597ZM203.046 85.3597H200.046C199.77 85.3597 199.546 85.1357 199.546 84.8597C199.546 84.5837 199.77 84.3597 200.046 84.3597H203.046C203.322 84.3597 203.546 84.5837 203.546 84.8597C203.546 85.1367 203.322 85.3597 203.046 85.3597ZM197.046 85.3597H194.046C193.77 85.3597 193.546 85.1357 193.546 84.8597C193.546 84.5837 193.77 84.3597 194.046 84.3597H197.046C197.322 84.3597 197.546 84.5837 197.546 84.8597C197.546 85.1367 197.322 85.3597 197.046 85.3597ZM191.046 85.3597H188.046C187.77 85.3597 187.546 85.1357 187.546 84.8597C187.546 84.5837 187.77 84.3597 188.046 84.3597H191.046C191.322 84.3597 191.546 84.5837 191.546 84.8597C191.546 85.1367 191.322 85.3597 191.046 85.3597ZM185.046 85.3597H182.046C181.77 85.3597 181.546 85.1357 181.546 84.8597C181.546 84.5837 181.77 84.3597 182.046 84.3597H185.046C185.322 84.3597 185.546 84.5837 185.546 84.8597C185.546 85.1367 185.322 85.3597 185.046 85.3597ZM179.046 85.3597H176.046C175.77 85.3597 175.546 85.1357 175.546 84.8597C175.546 84.5837 175.77 84.3597 176.046 84.3597H179.046C179.322 84.3597 179.546 84.5837 179.546 84.8597C179.546 85.1367 179.322 85.3597 179.046 85.3597ZM173.046 85.3597H170.046C169.77 85.3597 169.546 85.1357 169.546 84.8597C169.546 84.5837 169.77 84.3597 170.046 84.3597H173.046C173.322 84.3597 173.546 84.5837 173.546 84.8597C173.546 85.1367 173.322 85.3597 173.046 85.3597ZM167.046 85.3597H164.046C163.77 85.3597 163.546 85.1357 163.546 84.8597C163.546 84.5837 163.77 84.3597 164.046 84.3597H167.046C167.322 84.3597 167.546 84.5837 167.546 84.8597C167.546 85.1367 167.322 85.3597 167.046 85.3597ZM161.046 85.3597H158.046C157.77 85.3597 157.546 85.1357 157.546 84.8597C157.546 84.5837 157.77 84.3597 158.046 84.3597H161.046C161.322 84.3597 161.546 84.5837 161.546 84.8597C161.546 85.1367 161.322 85.3597 161.046 85.3597ZM155.046 85.3597H152.046C151.77 85.3597 151.546 85.1357 151.546 84.8597C151.546 84.5837 151.77 84.3597 152.046 84.3597H155.046C155.322 84.3597 155.546 84.5837 155.546 84.8597C155.546 85.1367 155.322 85.3597 155.046 85.3597ZM149.046 85.3597H146.046C145.77 85.3597 145.546 85.1357 145.546 84.8597C145.546 84.5837 145.77 84.3597 146.046 84.3597H149.046C149.322 84.3597 149.546 84.5837 149.546 84.8597C149.546 85.1367 149.322 85.3597 149.046 85.3597ZM143.046 85.3597H140.046C139.77 85.3597 139.546 85.1357 139.546 84.8597C139.546 84.5837 139.77 84.3597 140.046 84.3597H143.046C143.322 84.3597 143.546 84.5837 143.546 84.8597C143.546 85.1367 143.322 85.3597 143.046 85.3597ZM137.046 85.3597H134.046C133.77 85.3597 133.546 85.1357 133.546 84.8597C133.546 84.5837 133.77 84.3597 134.046 84.3597H137.046C137.322 84.3597 137.546 84.5837 137.546 84.8597C137.546 85.1367 137.322 85.3597 137.046 85.3597ZM131.046 85.3597H128.046C127.77 85.3597 127.546 85.1357 127.546 84.8597C127.546 84.5837 127.77 84.3597 128.046 84.3597H131.046C131.322 84.3597 131.546 84.5837 131.546 84.8597C131.546 85.1367 131.322 85.3597 131.046 85.3597ZM125.046 85.3597H122.046C121.77 85.3597 121.546 85.1357 121.546 84.8597C121.546 84.5837 121.77 84.3597 122.046 84.3597H125.046C125.322 84.3597 125.546 84.5837 125.546 84.8597C125.546 85.1367 125.322 85.3597 125.046 85.3597ZM119.046 85.3597H116.046C115.77 85.3597 115.546 85.1357 115.546 84.8597C115.546 84.5837 115.77 84.3597 116.046 84.3597H119.046C119.322 84.3597 119.546 84.5837 119.546 84.8597C119.546 85.1367 119.322 85.3597 119.046 85.3597ZM113.046 85.3597H110.046C109.77 85.3597 109.546 85.1357 109.546 84.8597C109.546 84.5837 109.77 84.3597 110.046 84.3597H113.046C113.322 84.3597 113.546 84.5837 113.546 84.8597C113.546 85.1367 113.322 85.3597 113.046 85.3597ZM107.046 85.3597H104.046C103.77 85.3597 103.546 85.1357 103.546 84.8597C103.546 84.5837 103.77 84.3597 104.046 84.3597H107.046C107.322 84.3597 107.546 84.5837 107.546 84.8597C107.546 85.1367 107.322 85.3597 107.046 85.3597ZM101.046 85.3597H98.0461C97.7701 85.3597 97.5461 85.1357 97.5461 84.8597C97.5461 84.5837 97.7701 84.3597 98.0461 84.3597H101.046C101.322 84.3597 101.546 84.5837 101.546 84.8597C101.546 85.1367 101.322 85.3597 101.046 85.3597ZM211.581 83.3707C211.436 83.3707 211.293 83.3087 211.195 83.1887C211.019 82.9757 211.049 82.6607 211.263 82.4847C211.994 81.8807 212.612 81.1637 213.097 80.3517C213.239 80.1147 213.546 80.0377 213.783 80.1797C214.02 80.3217 214.097 80.6287 213.955 80.8657C213.41 81.7757 212.719 82.5807 211.898 83.2567C211.806 83.3327 211.693 83.3707 211.581 83.3707ZM214.596 78.3217C214.564 78.3217 214.532 78.3187 214.499 78.3127C214.228 78.2597 214.051 77.9967 214.104 77.7257C214.206 77.2047 214.258 76.6707 214.257 76.1377V74.8337C214.257 74.5577 214.481 74.3337 214.757 74.3337C215.033 74.3337 215.257 74.5577 215.257 74.8337V76.1377C215.257 76.7347 215.2 77.3347 215.085 77.9187C215.039 78.1557 214.83 78.3217 214.596 78.3217ZM214.758 72.3327C214.482 72.3327 214.258 72.1087 214.258 71.8327V68.8327C214.258 68.5567 214.482 68.3327 214.758 68.3327C215.034 68.3327 215.258 68.5567 215.258 68.8327V71.8327C215.258 72.1087 215.034 72.3327 214.758 72.3327ZM214.758 66.3327C214.482 66.3327 214.258 66.1087 214.258 65.8327V62.8327C214.258 62.5567 214.482 62.3327 214.758 62.3327C215.034 62.3327 215.258 62.5567 215.258 62.8327V65.8327C215.258 66.1087 215.034 66.3327 214.758 66.3327ZM214.758 60.3327C214.482 60.3327 214.258 60.1087 214.258 59.8327V56.8327C214.258 56.5567 214.482 56.3327 214.758 56.3327C215.034 56.3327 215.258 56.5567 215.258 56.8327V59.8327C215.258 60.1087 215.034 60.3327 214.758 60.3327ZM214.758 54.3327C214.482 54.3327 214.258 54.1087 214.258 53.8327V50.8327C214.258 50.5567 214.482 50.3327 214.758 50.3327C215.034 50.3327 215.258 50.5567 215.258 50.8327V53.8327C215.258 54.1087 215.034 54.3327 214.758 54.3327ZM214.758 48.3327C214.482 48.3327 214.258 48.1087 214.258 47.8327V44.8327C214.258 44.5567 214.482 44.3327 214.758 44.3327C215.034 44.3327 215.258 44.5567 215.258 44.8327V47.8327C215.258 48.1087 215.034 48.3327 214.758 48.3327ZM214.816 42.3357C214.793 42.3357 214.77 42.3337 214.747 42.3307C214.473 42.2927 214.283 42.0407 214.321 41.7667C214.47 40.6937 214.89 39.6647 215.537 38.7897C215.701 38.5687 216.014 38.5197 216.236 38.6857C216.458 38.8497 216.505 39.1627 216.34 39.3847C215.793 40.1247 215.437 40.9957 215.311 41.9047C215.276 42.1547 215.061 42.3357 214.816 42.3357ZM218.235 37.7067C218.047 37.7067 217.867 37.6007 217.782 37.4187C217.665 37.1687 217.772 36.8717 218.023 36.7537C218.893 36.3457 219.825 36.1387 220.793 36.1387H221.151C221.427 36.1387 221.651 36.3627 221.651 36.6387C221.651 36.9147 221.427 37.1387 221.151 37.1387H220.793C219.973 37.1387 219.184 37.3137 218.447 37.6587C218.378 37.6907 218.306 37.7067 218.235 37.7067ZM224.49 37.1387H224.15C223.874 37.1387 223.65 36.9147 223.65 36.6387C223.65 36.3627 223.874 36.1387 224.15 36.1387H224.49C224.766 36.1387 224.99 36.3627 224.99 36.6387C224.99 36.9147 224.767 37.1387 224.49 37.1387Z" fill="white"/>
<path d="M97.8551 120.472C97.8551 121.999 96.6171 123.237 95.0901 123.237C93.5631 123.237 92.3251 121.999 92.3251 120.472C92.3251 118.945 93.5631 117.707 95.0901 117.707C96.6171 117.707 97.8551 118.945 97.8551 120.472Z" fill="white"/>
<path d="M225.321 37.0023C225.321 38.5293 224.083 39.7673 222.556 39.7673C221.029 39.7673 219.791 38.5293 219.791 37.0023C219.791 35.4753 221.029 34.2373 222.556 34.2373C224.083 34.2373 225.321 35.4753 225.321 37.0023Z" fill="white"/>
<path d="M295.59 173.512C295.314 173.512 295.09 173.288 295.09 173.012V170.333C295.09 170.057 295.314 169.833 295.59 169.833C295.866 169.833 296.09 170.057 296.09 170.333V173.012C296.09 173.288 295.866 173.512 295.59 173.512ZM295.59 167.833C295.314 167.833 295.09 167.609 295.09 167.333V164.333C295.09 164.057 295.314 163.833 295.59 163.833C295.866 163.833 296.09 164.057 296.09 164.333V167.333C296.09 167.609 295.866 167.833 295.59 167.833ZM295.59 161.833C295.314 161.833 295.09 161.609 295.09 161.333V158.333C295.09 158.057 295.314 157.833 295.59 157.833C295.866 157.833 296.09 158.057 296.09 158.333V161.333C296.09 161.609 295.866 161.833 295.59 161.833ZM295.59 155.833C295.314 155.833 295.09 155.609 295.09 155.333V152.333C295.09 152.057 295.314 151.833 295.59 151.833C295.866 151.833 296.09 152.057 296.09 152.333V155.333C296.09 155.609 295.866 155.833 295.59 155.833ZM295.59 149.833C295.314 149.833 295.09 149.609 295.09 149.333V146.333C295.09 146.057 295.314 145.833 295.59 145.833C295.866 145.833 296.09 146.057 296.09 146.333V149.333C296.09 149.609 295.866 149.833 295.59 149.833ZM295.59 143.833C295.314 143.833 295.09 143.609 295.09 143.333V140.333C295.09 140.057 295.314 139.833 295.59 139.833C295.866 139.833 296.09 140.057 296.09 140.333V143.333C296.09 143.609 295.866 143.833 295.59 143.833ZM295.59 137.833C295.314 137.833 295.09 137.609 295.09 137.333V134.333C295.09 134.057 295.314 133.833 295.59 133.833C295.866 133.833 296.09 134.057 296.09 134.333V137.333C296.09 137.609 295.866 137.833 295.59 137.833ZM295.59 131.833C295.314 131.833 295.09 131.609 295.09 131.333V128.333C295.09 128.057 295.314 127.833 295.59 127.833C295.866 127.833 296.09 128.057 296.09 128.333V131.333C296.09 131.609 295.866 131.833 295.59 131.833ZM295.59 125.833C295.314 125.833 295.09 125.609 295.09 125.333V122.333C295.09 122.057 295.314 121.833 295.59 121.833C295.866 121.833 296.09 122.057 296.09 122.333V125.333C296.09 125.609 295.866 125.833 295.59 125.833ZM295.59 119.833C295.314 119.833 295.09 119.609 295.09 119.333V116.333C295.09 116.057 295.314 115.833 295.59 115.833C295.866 115.833 296.09 116.057 296.09 116.333V119.333C296.09 119.609 295.866 119.833 295.59 119.833ZM295.59 113.833C295.314 113.833 295.09 113.609 295.09 113.333V110.333C295.09 110.057 295.314 109.833 295.59 109.833C295.866 109.833 296.09 110.057 296.09 110.333V113.333C296.09 113.609 295.866 113.833 295.59 113.833ZM295.59 107.833C295.314 107.833 295.09 107.609 295.09 107.333V104.333C295.09 104.057 295.314 103.833 295.59 103.833C295.866 103.833 296.09 104.057 296.09 104.333V107.333C296.09 107.609 295.866 107.833 295.59 107.833ZM295.561 101.834C295.304 101.834 295.086 101.637 295.064 101.376C294.984 100.44 294.712 99.5495 294.257 98.7285C294.123 98.4865 294.211 98.1825 294.452 98.0485C294.694 97.9155 294.997 98.0015 295.132 98.2435C295.655 99.1885 295.968 100.214 296.06 101.291C296.084 101.566 295.879 101.808 295.605 101.831C295.591 101.833 295.576 101.834 295.561 101.834ZM292.745 96.7355C292.64 96.7355 292.533 96.7025 292.442 96.6335C291.693 96.0645 290.85 95.6685 289.937 95.4545C289.668 95.3915 289.502 95.1225 289.564 94.8535C289.627 94.5855 289.886 94.4175 290.166 94.4805C291.216 94.7265 292.186 95.1825 293.048 95.8365C293.268 96.0035 293.311 96.3175 293.144 96.5375C293.045 96.6675 292.895 96.7355 292.745 96.7355ZM287.066 95.2795H284.066C283.79 95.2795 283.566 95.0555 283.566 94.7795C283.566 94.5035 283.79 94.2795 284.066 94.2795H287.066C287.342 94.2795 287.566 94.5035 287.566 94.7795C287.566 95.0555 287.343 95.2795 287.066 95.2795ZM281.066 95.2795H278.066C277.79 95.2795 277.566 95.0555 277.566 94.7795C277.566 94.5035 277.79 94.2795 278.066 94.2795H281.066C281.342 94.2795 281.566 94.5035 281.566 94.7795C281.566 95.0555 281.343 95.2795 281.066 95.2795ZM275.066 95.2795H272.066C271.79 95.2795 271.566 95.0555 271.566 94.7795C271.566 94.5035 271.79 94.2795 272.066 94.2795H275.066C275.342 94.2795 275.566 94.5035 275.566 94.7795C275.566 95.0555 275.343 95.2795 275.066 95.2795ZM269.066 95.2795H266.066C265.79 95.2795 265.566 95.0555 265.566 94.7795C265.566 94.5035 265.79 94.2795 266.066 94.2795H269.066C269.342 94.2795 269.566 94.5035 269.566 94.7795C269.566 95.0555 269.343 95.2795 269.066 95.2795ZM263.066 95.2795H260.066C259.79 95.2795 259.566 95.0555 259.566 94.7795C259.566 94.5035 259.79 94.2795 260.066 94.2795H263.066C263.342 94.2795 263.566 94.5035 263.566 94.7795C263.566 95.0555 263.343 95.2795 263.066 95.2795ZM257.066 95.2795H254.066C253.79 95.2795 253.566 95.0555 253.566 94.7795C253.566 94.5035 253.79 94.2795 254.066 94.2795H257.066C257.342 94.2795 257.566 94.5035 257.566 94.7795C257.566 95.0555 257.343 95.2795 257.066 95.2795ZM251.066 95.2795H248.066C247.79 95.2795 247.566 95.0555 247.566 94.7795C247.566 94.5035 247.79 94.2795 248.066 94.2795H251.066C251.342 94.2795 251.566 94.5035 251.566 94.7795C251.566 95.0555 251.343 95.2795 251.066 95.2795ZM245.066 95.2795H242.066C241.79 95.2795 241.566 95.0555 241.566 94.7795C241.566 94.5035 241.79 94.2795 242.066 94.2795H245.066C245.342 94.2795 245.566 94.5035 245.566 94.7795C245.566 95.0555 245.343 95.2795 245.066 95.2795ZM239.066 95.2795H236.066C235.79 95.2795 235.566 95.0555 235.566 94.7795C235.566 94.5035 235.79 94.2795 236.066 94.2795H239.066C239.342 94.2795 239.566 94.5035 239.566 94.7795C239.566 95.0555 239.343 95.2795 239.066 95.2795ZM233.066 95.2795H230.066C229.79 95.2795 229.566 95.0555 229.566 94.7795C229.566 94.5035 229.79 94.2795 230.066 94.2795H233.066C233.342 94.2795 233.566 94.5035 233.566 94.7795C233.566 95.0555 233.343 95.2795 233.066 95.2795ZM227.066 95.2795H224.066C223.79 95.2795 223.566 95.0555 223.566 94.7795C223.566 94.5035 223.79 94.2795 224.066 94.2795H227.066C227.342 94.2795 227.566 94.5035 227.566 94.7795C227.566 95.0555 227.343 95.2795 227.066 95.2795ZM221.067 95.2795H218.067C217.791 95.2795 217.567 95.0555 217.567 94.7795C217.567 94.5035 217.791 94.2795 218.067 94.2795H221.067C221.343 94.2795 221.567 94.5035 221.567 94.7795C221.567 95.0555 221.343 95.2795 221.067 95.2795ZM215.067 95.2795H212.067C211.791 95.2795 211.567 95.0555 211.567 94.7795C211.567 94.5035 211.791 94.2795 212.067 94.2795H215.067C215.343 94.2795 215.567 94.5035 215.567 94.7795C215.567 95.0555 215.343 95.2795 215.067 95.2795ZM209.067 95.2795H206.067C205.791 95.2795 205.567 95.0555 205.567 94.7795C205.567 94.5035 205.791 94.2795 206.067 94.2795H209.067C209.343 94.2795 209.567 94.5035 209.567 94.7795C209.567 95.0555 209.343 95.2795 209.067 95.2795ZM203.095 94.9855C203.048 94.9855 203.001 94.9795 202.953 94.9645C201.92 94.6595 200.978 94.1485 200.154 93.4445C199.943 93.2655 199.919 92.9495 200.098 92.7395C200.277 92.5295 200.593 92.5045 200.803 92.6835C201.521 93.2945 202.34 93.7395 203.237 94.0045C203.502 94.0825 203.653 94.3605 203.575 94.6255C203.51 94.8455 203.311 94.9855 203.095 94.9855ZM198.661 91.2065C198.475 91.2065 198.296 91.1025 198.21 90.9235C197.743 89.9525 197.49 88.9115 197.458 87.8285C197.45 87.5525 197.668 87.3225 197.943 87.3135C198.208 87.3175 198.449 87.5225 198.458 87.7985C198.485 88.7405 198.705 89.6465 199.111 90.4895C199.231 90.7385 199.126 91.0365 198.877 91.1565C198.808 91.1915 198.734 91.2065 198.661 91.2065ZM197.955 85.3145C197.679 85.3145 197.455 85.0905 197.455 84.8145V81.8145C197.455 81.5385 197.679 81.3145 197.955 81.3145C198.231 81.3145 198.455 81.5385 198.455 81.8145V84.8145C198.455 85.0905 198.231 85.3145 197.955 85.3145ZM197.955 79.3145C197.679 79.3145 197.455 79.0905 197.455 78.8145V75.8145C197.455 75.5385 197.679 75.3145 197.955 75.3145C198.231 75.3145 198.455 75.5385 198.455 75.8145V78.8145C198.455 79.0905 198.231 79.3145 197.955 79.3145Z" fill="white"/>
</svg>
