<svg width="491" height="548" viewBox="0 0 491 548" fill="none" xmlns="http://www.w3.org/2000/svg">
<mask id="mask0_1221_305" style="mask-type:luminance" maskUnits="userSpaceOnUse" x="0" y="0" width="491" height="548">
<path d="M491 0H0V548H491V0Z" fill="white"/>
</mask>
<g mask="url(#mask0_1221_305)">
<path d="M491 0H0V583.817H491V0Z" fill="url(#paint0_linear_1221_305)"/>
<path opacity="0.25" d="M254.99 404.201C321.878 404.201 376.1 364.982 376.1 316.603C376.1 268.224 321.878 229.005 254.99 229.005C188.103 229.005 133.881 268.224 133.881 316.603C133.881 364.982 188.103 404.201 254.99 404.201Z" fill="#241033"/>
<path d="M269.387 257.972C269.387 257.972 277.737 280.25 269.387 284.961C268.173 285.647 266.8 286.42 265.35 287.238C265.346 287.241 265.341 287.242 265.338 287.244L249.51 296.177C247.282 297.435 247.283 299.492 249.512 300.749L271.747 313.296C273.976 314.554 277.604 314.523 279.81 313.231L291.098 306.706C291.137 306.724 291.174 306.742 291.211 306.76C292.509 305.971 293.721 305.229 294.813 304.561L295.309 304.274C295.356 304.245 295.386 304.212 295.429 304.183C297.718 302.779 299.269 301.818 299.269 301.818C299.269 301.818 306.332 296.766 306.332 278.813L269.387 257.972Z" fill="#E6E6E6"/>
<path d="M306.334 276.525C306.334 294.48 299.272 299.53 299.272 299.53C299.272 299.53 297.726 300.484 295.426 301.896C295.386 301.915 295.345 301.956 295.304 301.995L294.815 302.273C293.717 302.949 292.516 303.685 291.213 304.48C291.173 304.461 291.132 304.441 291.091 304.421L289.789 305.176L279.817 310.943C277.598 312.236 273.975 312.275 271.736 311.003L249.513 298.456C247.274 297.203 247.274 295.155 249.513 293.883L259.505 288.236L265.326 284.955C265.346 284.955 265.346 284.955 265.346 284.955C266.791 284.14 268.175 283.364 269.376 282.668C277.537 278.075 269.783 256.78 269.397 255.727C269.397 255.727 269.397 255.727 269.397 255.706H269.417L306.334 276.525Z" fill="white"/>
<path opacity="0.5" d="M306.333 276.525C306.333 294.48 299.272 299.53 299.272 299.53C299.272 299.53 297.725 300.484 295.426 301.896C295.385 301.915 295.344 301.956 295.303 301.995L294.815 302.273C293.716 302.949 292.515 303.685 291.213 304.48C291.172 304.461 291.131 304.441 291.09 304.421L289.788 305.176L259.506 288.236L265.326 284.955C265.346 284.955 265.346 284.955 265.346 284.955C266.791 284.14 268.175 283.364 269.376 282.668C277.537 278.075 269.783 256.78 269.397 255.727L269.417 255.706L306.333 276.525Z" fill="#BDCCD4"/>
<path d="M366.505 206.339V304.034C366.505 314.092 359.187 318.233 350.259 313.247L239.478 251.404C230.542 246.409 223.232 234.104 223.232 224.046V126.917C223.232 116.868 230.559 112.701 239.504 117.662L282.611 141.555L295.63 148.773L350.224 179.031C359.178 183.992 366.505 196.281 366.505 206.339Z" fill="#E6E6E6"/>
<path d="M362.985 209.756V307.456C362.985 317.51 355.687 321.671 346.751 316.666L244.063 259.348L235.97 254.823C227.034 249.841 219.713 237.523 219.713 227.467V130.34C219.713 120.284 227.058 116.125 235.993 121.084L308.319 161.17L346.728 182.469C355.664 187.428 362.985 199.701 362.985 209.756Z" fill="white"/>
<path d="M362.984 209.756V300.531L219.713 219.56V130.34C219.713 120.284 227.058 116.125 235.993 121.084L346.728 182.469C355.663 187.428 362.984 199.701 362.984 209.756Z" fill="#333333"/>
<path d="M151.073 337.831C150.018 336.943 148.763 336.148 147.37 335.447V329.147H120.077V335.4C118.643 336.112 117.35 336.921 116.272 337.831H112.406V344.853C112.403 344.936 112.385 345.017 112.385 345.101C112.385 345.185 112.403 345.267 112.406 345.35V345.371H112.407C112.652 352.23 122.07 357.749 133.673 357.749C145.277 357.749 154.695 352.23 154.939 345.371H154.963V337.831H151.073ZM133.672 349.094C126.662 349.094 120.98 347.945 120.98 343.781C120.98 339.895 125.929 336.698 132.286 336.288H135.06C141.417 336.698 146.366 339.895 146.366 343.781C146.365 347.946 140.683 349.094 133.672 349.094Z" fill="#6EA8E3"/>
<path d="M355.965 209.759V288.649L351.392 292.431L342.947 281.381L343.279 281.472L226.729 215.604V132.932L223.232 130.051L227.671 126.412C227.962 126.068 228.345 125.846 228.841 125.846C229.41 125.846 230.652 126.007 232.525 127.05L343.27 188.438C346.632 190.309 349.789 193.705 352.117 197.598C354.464 201.519 355.965 205.937 355.965 209.759Z" fill="#0071BC"/>
<path d="M352.117 197.597L343.641 203.338L226.729 143.769V132.932L223.232 130.051L227.671 126.411C227.962 126.067 228.345 125.845 228.841 125.845C229.41 125.845 230.652 126.007 232.525 127.049L343.27 188.437C346.631 190.308 349.788 193.704 352.117 197.597Z" fill="#58C90F"/>
<path d="M222.148 219.397L351.386 292.435V213.548C351.386 212.938 351.335 212.309 351.261 211.674L222.149 138.706V219.397H222.148Z" fill="white"/>
<path d="M338.685 192.223L227.944 130.836C226.068 129.793 224.83 129.638 224.261 129.638C222.354 129.638 222.148 132.78 222.148 134.131V138.706L351.26 211.674C350.416 204.382 344.907 195.677 338.685 192.223Z" fill="url(#paint1_linear_1221_305)"/>
<path d="M229.723 136.684C229.723 137.801 229.105 138.706 228.342 138.706C227.581 138.706 226.963 137.801 226.963 136.684C226.963 135.568 227.581 134.663 228.342 134.663C229.105 134.662 229.723 135.568 229.723 136.684Z" fill="#BDCCD4"/>
<path d="M233.599 139.129C233.599 140.246 232.982 141.152 232.219 141.152C231.457 141.152 230.84 140.246 230.84 139.129C230.84 138.013 231.457 137.108 232.219 137.108C232.982 137.107 233.599 138.012 233.599 139.129Z" fill="#BDCCD4"/>
<path d="M237.683 141.583C237.683 142.699 237.066 143.605 236.303 143.605C235.541 143.605 234.924 142.699 234.924 141.583C234.924 140.467 235.541 139.562 236.303 139.562C237.066 139.561 237.683 140.466 237.683 141.583Z" fill="#BDCCD4"/>
<path d="M225.666 144.758V156.475L236.014 162.27V150.578L225.666 144.758Z" fill="#41AEBE"/>
<path d="M225.666 159.671V171.388L236.014 177.183V165.491L225.666 159.671Z" fill="#F75852"/>
<path d="M227.424 162.645V170.382L234.256 174.208V166.488L227.424 162.645Z" fill="#F7931E"/>
<path d="M223.117 164.875V172.612L229.949 176.437V168.718L223.117 164.875Z" fill="#F75852"/>
<path d="M225.666 174.583V186.3L236.014 192.095V180.404L225.666 174.583Z" fill="#FAC230"/>
<path d="M229.949 168.718L234.257 166.488V174.208L229.949 176.437V168.718Z" fill="#D4332D"/>
<path d="M234.258 166.488L227.425 162.645L223.117 164.875L229.949 168.718L234.258 166.488Z" fill="#F78E8A"/>
<path d="M225.666 188.653V200.371L236.014 206.165V194.473L225.666 188.653Z" fill="#1CA0E8"/>
<path d="M227.424 191.629V199.364L234.256 203.19V195.47L227.424 191.629Z" fill="#F7931E"/>
<path d="M223.117 193.857V201.594L229.949 205.419V197.7L223.117 193.857Z" fill="#1CA0E8"/>
<path d="M225.666 203.566V215.283L236.014 221.077V209.386L225.666 203.566Z" fill="#662D91"/>
<path d="M229.949 197.7L234.257 195.47V203.19L229.949 205.419V197.7Z" fill="#0776B3"/>
<path d="M234.258 195.47L227.425 191.629L223.117 193.857L229.949 197.7L234.258 195.47Z" fill="#89C6E8"/>
<path d="M242.039 154.163L273.099 171.65V206.687L242.055 189.185L242.039 154.163Z" fill="#AFC9E3"/>
<path d="M238.502 156.1L269.561 173.588V208.625L238.517 191.123L238.502 156.1Z" fill="#662D91"/>
<path d="M269.561 173.588L270.94 172.83V207.867L269.561 208.625V173.588Z" fill="#4A1473"/>
<path d="M238.502 156.1L239.881 155.342L270.942 172.829L269.561 173.588L238.502 156.1Z" fill="#AB83C9"/>
<path d="M267.406 189.013C267.303 191.014 267.737 192.945 268.524 194.654V206.877L239.549 190.539V186.242L242.395 181.268L246.793 180.429C246.793 180.429 247.745 182.38 249.152 183.684C250.135 184.615 251.336 185.231 252.577 184.634C255.588 183.198 256.623 178.316 260.245 178.569C262.502 178.73 264.849 180.126 266.226 182.774C267.066 184.393 267.53 186.465 267.406 189.013Z" fill="#FF931E"/>
<path d="M268.523 183.837V206.877L239.549 190.539V186.242L239.539 169.712C241.08 168.498 242.177 168.468 242.746 168.538C246.172 168.983 248.355 175.515 248.955 179.832C249.172 181.42 249.172 182.653 249.151 183.683C249.109 185.625 248.986 186.899 250.072 188.597C251.614 191.004 254.729 192.915 256.54 192.137C258.371 191.337 257.274 188.487 259.821 185.565C260.131 185.201 262.604 182.431 265.676 182.693C265.862 182.714 266.039 182.734 266.225 182.775C267.034 182.927 267.81 183.301 268.523 183.837Z" fill="#8CC63F"/>
<path d="M283.447 177.502L314.491 195.014V218.362L283.447 200.85V177.502Z" fill="#AFC9E3"/>
<path d="M316.207 195.982V219.331L335.186 230.036V206.878L316.207 195.982Z" fill="#AFC9E3"/>
<path d="M280.514 179.244L311.557 196.756V220.104L280.514 202.592V179.244Z" fill="#2E3192"/>
<path d="M313.082 197.567V220.915L332.06 231.621V208.462L313.082 197.567Z" fill="#F0B71E"/>
<path d="M332.061 208.462L333.376 207.936L333.373 230.763L332.061 231.62V208.462Z" fill="#ED4A08"/>
<path d="M313.082 197.567L314.397 197.04L333.375 207.936L332.06 208.462L313.082 197.567Z" fill="#F0CE73"/>
<path d="M311.559 196.756L312.679 196.071V219.419L311.559 220.103V196.756Z" fill="#121682"/>
<path d="M280.514 179.244L281.635 178.559L312.679 196.071L311.557 196.756L280.514 179.244Z" fill="#696CB5"/>
<path d="M327.429 220.479C325.323 217.686 323.97 216.603 323.97 216.603L324.008 215.562C324.419 215.348 324.757 214.946 324.976 214.395C325.265 214.513 325.561 214.155 325.654 213.548C325.752 212.908 325.586 212.244 325.286 212.06C325.282 212.057 325.277 212.057 325.273 212.055L325.314 210.288L325.306 210.285C325.299 210.108 325.265 209.926 325.204 209.744C325.138 209.459 325.035 209.161 324.913 208.885C324.813 208.664 324.706 208.475 324.552 208.295C324.393 208.106 324.169 207.935 324.071 207.708C324.138 207.68 324.195 207.643 324.248 207.59C324.016 207.603 323.496 207.358 323.222 207.246C323.303 207.147 323.339 207.004 323.388 206.879C323.12 207.06 322.668 206.996 322.326 207C321.986 207.006 321.654 207.033 321.349 207.144C321.133 207.224 320.906 207.319 320.743 207.499C320.7 207.547 320.644 207.641 320.596 207.743C320.504 207.877 320.444 208.034 320.416 208.216L320.41 208.214L320.278 209.873C320.023 209.856 319.841 210.303 319.864 210.924C319.885 211.505 320.076 212.045 320.313 212.227C320.451 212.918 320.71 213.582 321.056 214.146L320.989 215.142C320.989 215.142 319.707 214.911 317.741 215.529C316.358 215.965 316.045 217.614 315.977 218.572C316.092 219.004 316.344 219.396 316.666 219.576L328.209 226.034C328.617 226.262 328.971 226.175 329.166 225.863C329.2 224.748 329.019 222.587 327.429 220.479Z" fill="white"/>
<path d="M283.316 186.536V190.075L307.511 203.641V200.227L283.316 186.536Z" fill="white"/>
<path d="M283.316 191.086V194.625L307.511 208.191V204.777L283.316 191.086Z" fill="white"/>
<path d="M283.316 195.635V199.174L307.511 212.741V209.327L283.316 195.635Z" fill="white"/>
<path d="M242.039 200.86L242.055 206.687L273.099 223.938V218.362L242.039 200.86Z" fill="#AFC9E3"/>
<path d="M239.883 202.06L239.898 207.888L270.942 225.138V219.562L239.883 202.06Z" fill="#29ABE2"/>
<path d="M270.941 219.562L271.804 219.091V224.549L270.941 225.138V219.562Z" fill="#11739C"/>
<path d="M240.85 201.53L239.883 202.06L270.942 219.562L271.804 219.091L240.85 201.53Z" fill="#5CC6F2"/>
<path d="M242.039 211.674L242.055 217.502L273.099 234.753V229.176L242.039 211.674Z" fill="#AFC9E3"/>
<path d="M239.883 212.874L239.898 218.702L270.942 235.952V230.376L239.883 212.874Z" fill="#39B54A"/>
<path d="M270.941 230.376L271.804 229.906V235.363L270.941 235.952V230.376Z" fill="#188F28"/>
<path d="M240.85 212.344L239.883 212.873L270.942 230.376L271.804 229.906L240.85 212.344Z" fill="#52DE65"/>
<path d="M242.039 222.488L242.055 228.316L273.099 245.567V239.99L242.039 222.488Z" fill="#AFC9E3"/>
<path d="M239.883 223.688L239.898 229.516L270.942 246.767V241.19L239.883 223.688Z" fill="#ED1C24"/>
<path d="M270.941 241.19L271.804 240.719V246.177L270.941 246.767V241.19Z" fill="#991218"/>
<path d="M240.85 223.158L239.883 223.689L270.942 241.19L271.804 240.72L240.85 223.158Z" fill="#ED585D"/>
<path d="M280.514 245.894L304.142 259.221V224.199L280.514 210.871V245.894Z" fill="#E6E6E6"/>
<path d="M298.34 244.967L286.403 238.293C285.904 238.015 285.505 237.314 285.512 236.727L285.636 226.238C285.643 225.666 286.048 225.446 286.54 225.75L289.175 227.368L289.183 226.346C289.188 225.783 289.579 225.569 290.054 225.865L295.095 229.009C295.549 229.292 295.913 229.963 295.912 230.512L295.91 231.507L298.333 232.996C298.773 233.267 299.13 233.925 299.131 234.468L299.146 244.411C299.145 244.967 298.786 245.217 298.34 244.967ZM297.53 234.486L295.085 233.005L294.258 232.504L294.265 230.496L290.897 228.427L290.884 230.462L290.024 229.941L287.405 228.356L287.321 236.689L297.53 242.492V234.486ZM288.713 230.183C288.954 230.327 289.147 230.675 289.144 230.959C289.142 231.243 288.944 231.357 288.704 231.213C288.462 231.069 288.268 230.721 288.271 230.436C288.273 230.15 288.471 230.037 288.713 230.183ZM292.577 232.505C293.968 233.34 295.079 235.36 295.074 237.033C295.07 238.709 293.946 239.432 292.547 238.631C291.132 237.819 289.98 235.76 289.992 234.05C290.005 232.344 291.171 231.659 292.577 232.505ZM292.553 237.604C293.486 238.143 294.24 237.666 294.244 236.545C294.247 235.427 293.502 234.074 292.574 233.521C291.636 232.962 290.864 233.423 290.857 234.557C290.848 235.692 291.613 237.06 292.553 237.604Z" fill="#999999"/>
<path d="M314.484 230.036L314.489 247.655L345.533 264.673L345.528 247.549L314.484 230.036Z" fill="#AFC9E3"/>
<path d="M299.633 238.388L299.636 256.007L319.664 266.987V249.689L299.633 238.388Z" fill="#1A1A1A"/>
<path d="M321.127 248.883L301.011 237.535L299.633 238.388L319.664 249.688L321.127 248.883Z" fill="#CCCCCC"/>
<path d="M330.677 255.901L319.664 249.689V266.987L330.679 273.026L330.677 255.901Z" fill="#662D91"/>
<path d="M330.678 273.026L332.059 272.173L332.055 255.048L330.676 255.901L330.678 273.026Z" fill="#482066"/>
<path d="M330.677 255.901L332.056 255.048L321.127 248.883L319.664 249.688L330.677 255.901Z" fill="#9C45DE"/>
<path d="M325.776 258.445L322.286 258.318C322.218 258.314 322.155 258.336 322.093 258.353L322.085 258.346L322.047 258.362C322.028 258.37 322.01 258.376 321.992 258.385L320.946 258.834V259.64C320.946 259.64 321.14 262.546 320.881 262.516C320.161 262.437 319.663 262.625 319.664 263.285C319.665 263.594 319.79 263.913 319.987 264.196L319.728 264.285L320.673 265.402L321.728 264.952V264.95C321.968 264.823 322.118 264.562 322.121 264.196C322.121 264.196 322.137 261.18 322.139 260.863C322.141 260.548 322.464 260.559 322.464 260.559L325.027 260.775L325.122 263.653C325.056 263.622 324.997 263.588 324.922 263.559C324.087 263.256 323.429 263.608 323.421 264.332C323.419 264.611 323.516 264.904 323.681 265.181L323.626 265.185L324.839 266.772L325.986 266.304V266.302C326.291 266.176 326.489 265.903 326.497 265.508L326.611 259.422C326.619 258.91 326.242 258.472 325.776 258.445Z" fill="#482066"/>
<path d="M324.784 258.865L321.295 258.74C320.911 258.717 320.603 259.066 320.602 259.517L320.587 263.344C320.587 263.344 320.587 263.395 320.587 263.397C320.587 263.397 320.369 263.106 319.889 262.938C319.206 262.698 318.671 263.046 318.672 263.705C318.673 264.361 319.206 265.074 319.884 265.355C320.588 265.646 321.123 265.314 321.128 264.617C321.128 264.617 321.144 261.601 321.146 261.284C321.148 260.969 321.472 260.979 321.472 260.979L324.534 261.238C324.534 261.238 324.902 261.261 324.896 261.632C324.89 262.003 324.848 264.568 324.848 264.568C324.848 264.568 324.848 264.569 324.848 264.571C324.848 264.571 324.518 264.195 323.929 263.982C323.095 263.678 322.436 264.03 322.429 264.753C322.422 265.475 323.065 266.294 323.891 266.648C324.754 267.015 325.49 266.701 325.503 265.929L325.617 259.842C325.628 259.331 325.251 258.893 324.784 258.865Z" fill="white"/>
<path d="M301.684 249.279L317.616 258.215" stroke="#1CA0E8" stroke-width="0.8972" stroke-miterlimit="10" stroke-linecap="round" stroke-linejoin="round"/>
<path d="M309.633 252.885C309.783 253.785 309.37 254.601 308.708 254.707C308.047 254.812 307.389 254.168 307.238 253.268C307.087 252.368 307.501 251.552 308.163 251.446C308.824 251.341 309.482 251.985 309.633 252.885Z" fill="#662D91"/>
<path d="M309.055 252.978C309.133 253.444 308.92 253.865 308.577 253.92C308.236 253.974 307.895 253.642 307.817 253.176C307.739 252.71 307.953 252.29 308.294 252.234C308.636 252.18 308.977 252.512 309.055 252.978Z" fill="#1CA0E8"/>
<path d="M294.331 336.947L291.333 336.323L201.389 285.66C200.5 285.16 199.045 285.16 198.155 285.661L157.662 308.487L156.173 308.177V309.802C156.169 309.844 156.169 309.886 156.173 309.928V309.931C156.201 310.24 156.42 310.543 156.833 310.776L249.056 362.797C249.945 363.299 251.399 363.299 252.289 362.797L293.664 339.458C294.127 339.197 294.346 338.851 294.328 338.506L294.332 338.507L294.331 336.947Z" fill="#B3B3B3"/>
<path d="M293.662 336.037C294.551 336.537 294.551 337.358 293.663 337.858L252.288 361.198C251.4 361.7 249.944 361.7 249.055 361.198L156.833 309.177C155.943 308.675 155.944 307.855 156.833 307.353L198.154 284.061C199.042 283.56 200.498 283.56 201.388 284.06L293.662 336.037Z" fill="#E6E6E6"/>
<path d="M195.844 290.681C195.646 290.57 195.646 290.388 195.842 290.275L199.401 288.253C199.599 288.141 199.921 288.14 200.12 288.252L203.659 290.248C203.856 290.36 203.856 290.543 203.659 290.653L200.1 292.661C199.903 292.772 199.58 292.772 199.381 292.661L195.844 290.681Z" fill="#4D4D4D"/>
<path d="M195.844 290.554C195.646 290.443 195.646 290.262 195.842 290.149L199.401 288.126C199.599 288.014 199.921 288.014 200.12 288.125L203.659 290.122C203.856 290.233 203.856 290.416 203.659 290.527L200.1 292.534C199.903 292.645 199.58 292.646 199.381 292.535L195.844 290.554Z" fill="#1A1A1A"/>
<path d="M202.254 294.243C202.056 294.132 202.056 293.951 202.253 293.838L205.813 291.815C206.01 291.703 206.333 291.703 206.53 291.814L210.07 293.81C210.267 293.922 210.267 294.105 210.07 294.216L206.511 296.223C206.314 296.334 205.99 296.335 205.793 296.225L202.254 294.243Z" fill="#4D4D4D"/>
<path d="M202.254 294.117C202.056 294.006 202.056 293.824 202.253 293.711L205.813 291.689C206.01 291.577 206.333 291.576 206.53 291.688L210.07 293.684C210.267 293.796 210.267 293.979 210.07 294.089L206.511 296.096C206.314 296.208 205.99 296.208 205.793 296.097L202.254 294.117Z" fill="#1A1A1A"/>
<path d="M208.659 297.814C208.461 297.703 208.46 297.521 208.658 297.409L212.216 295.386C212.413 295.274 212.736 295.274 212.934 295.385L216.474 297.381C216.672 297.493 216.672 297.676 216.474 297.787L212.915 299.794C212.718 299.905 212.394 299.905 212.196 299.794L208.659 297.814Z" fill="#4D4D4D"/>
<path d="M208.659 297.688C208.461 297.577 208.46 297.394 208.658 297.283L212.216 295.26C212.413 295.148 212.736 295.148 212.934 295.259L216.474 297.256C216.672 297.367 216.672 297.55 216.474 297.66L212.915 299.668C212.718 299.78 212.394 299.78 212.196 299.669L208.659 297.688Z" fill="#1A1A1A"/>
<path d="M214.946 301.424C214.747 301.313 214.747 301.13 214.945 301.018L218.504 298.995C218.701 298.883 219.024 298.883 219.222 298.994L222.762 300.991C222.959 301.102 222.959 301.285 222.762 301.395L219.203 303.403C219.006 303.515 218.682 303.515 218.484 303.404L214.946 301.424Z" fill="#4D4D4D"/>
<path d="M214.946 301.296C214.747 301.185 214.747 301.004 214.945 300.891L218.504 298.869C218.701 298.756 219.024 298.756 219.222 298.868L222.762 300.864C222.959 300.975 222.959 301.158 222.762 301.269L219.203 303.276C219.006 303.387 218.682 303.387 218.484 303.277L214.946 301.296Z" fill="#1A1A1A"/>
<path d="M221.334 305.02C221.137 304.909 221.136 304.726 221.333 304.615L224.893 302.592C225.09 302.48 225.412 302.48 225.611 302.591L229.15 304.588C229.347 304.7 229.347 304.882 229.15 304.993L225.592 307C225.394 307.112 225.071 307.112 224.873 307.001L221.334 305.02Z" fill="#4D4D4D"/>
<path d="M221.334 304.893C221.137 304.782 221.136 304.6 221.333 304.487L224.893 302.465C225.09 302.352 225.412 302.352 225.611 302.464L229.15 304.46C229.347 304.571 229.347 304.754 229.15 304.865L225.592 306.873C225.394 306.983 225.071 306.983 224.873 306.873L221.334 304.893Z" fill="#1A1A1A"/>
<path d="M227.661 308.616C227.463 308.505 227.462 308.323 227.66 308.21L231.218 306.188C231.416 306.075 231.738 306.075 231.936 306.187L235.477 308.183C235.674 308.295 235.674 308.478 235.477 308.589L231.917 310.595C231.72 310.707 231.397 310.708 231.198 310.596L227.661 308.616Z" fill="#4D4D4D"/>
<path d="M227.661 308.489C227.463 308.379 227.462 308.196 227.66 308.084L231.218 306.062C231.416 305.949 231.738 305.95 231.936 306.061L235.477 308.058C235.674 308.168 235.674 308.351 235.477 308.462L231.917 310.47C231.72 310.581 231.397 310.581 231.198 310.471L227.661 308.489Z" fill="#1A1A1A"/>
<path d="M233.997 312.199C233.799 312.088 233.798 311.907 233.996 311.794L237.555 309.772C237.752 309.659 238.075 309.659 238.273 309.77L241.813 311.767C242.01 311.878 242.01 312.061 241.813 312.172L238.254 314.179C238.057 314.29 237.733 314.29 237.535 314.18L233.997 312.199Z" fill="#4D4D4D"/>
<path d="M233.997 312.073C233.799 311.962 233.798 311.779 233.996 311.668L237.555 309.645C237.752 309.534 238.075 309.533 238.273 309.644L241.813 311.641C242.01 311.752 242.01 311.935 241.813 312.046L238.254 314.053C238.057 314.165 237.733 314.165 237.535 314.054L233.997 312.073Z" fill="#1A1A1A"/>
<path d="M240.401 315.783C240.202 315.673 240.202 315.49 240.4 315.378L243.959 313.356C244.156 313.243 244.479 313.243 244.677 313.355L248.216 315.351C248.414 315.463 248.414 315.646 248.216 315.756L244.658 317.763C244.461 317.875 244.137 317.875 243.939 317.764L240.401 315.783Z" fill="#4D4D4D"/>
<path d="M240.401 315.657C240.202 315.546 240.202 315.364 240.4 315.252L243.959 313.229C244.156 313.117 244.479 313.117 244.677 313.228L248.216 315.225C248.414 315.336 248.414 315.518 248.216 315.629L244.658 317.637C244.461 317.748 244.137 317.749 243.939 317.639L240.401 315.657Z" fill="#1A1A1A"/>
<path d="M246.776 319.367C246.578 319.256 246.578 319.074 246.774 318.961L250.333 316.939C250.53 316.827 250.852 316.826 251.051 316.938L254.591 318.934C254.788 319.045 254.788 319.228 254.591 319.34L251.032 321.347C250.834 321.458 250.511 321.458 250.313 321.348L246.776 319.367Z" fill="#4D4D4D"/>
<path d="M246.776 319.241C246.578 319.13 246.578 318.948 246.774 318.836L250.333 316.814C250.53 316.701 250.852 316.701 251.051 316.813L254.591 318.809C254.788 318.921 254.788 319.103 254.591 319.214L251.032 321.221C250.834 321.333 250.511 321.334 250.313 321.222L246.776 319.241Z" fill="#1A1A1A"/>
<path d="M253.125 322.977C252.927 322.866 252.927 322.683 253.124 322.571L256.683 320.548C256.881 320.436 257.203 320.436 257.402 320.547L260.941 322.544C261.138 322.655 261.138 322.838 260.941 322.949L257.383 324.956C257.185 325.067 256.862 325.068 256.664 324.957L253.125 322.977Z" fill="#4D4D4D"/>
<path d="M253.125 322.849C252.927 322.739 252.927 322.557 253.124 322.445L256.683 320.423C256.881 320.311 257.203 320.31 257.402 320.422L260.941 322.418C261.138 322.53 261.138 322.712 260.941 322.823L257.383 324.83C257.185 324.942 256.862 324.943 256.664 324.831L253.125 322.849Z" fill="#1A1A1A"/>
<path d="M259.528 326.548C259.33 326.437 259.329 326.254 259.527 326.142L263.085 324.12C263.283 324.008 263.606 324.007 263.804 324.119L267.344 326.115C267.541 326.227 267.541 326.41 267.344 326.521L263.785 328.527C263.587 328.639 263.264 328.639 263.066 328.528L259.528 326.548Z" fill="#4D4D4D"/>
<path d="M259.528 326.42C259.33 326.31 259.329 326.128 259.527 326.016L263.085 323.994C263.283 323.881 263.606 323.881 263.804 323.992L267.344 325.989C267.541 326.1 267.541 326.283 267.344 326.393L263.785 328.401C263.587 328.512 263.264 328.512 263.066 328.402L259.528 326.42Z" fill="#1A1A1A"/>
<path d="M265.84 330.156C265.642 330.046 265.642 329.863 265.839 329.751L269.399 327.728C269.596 327.617 269.918 327.616 270.117 327.728L273.656 329.724C273.853 329.835 273.853 330.018 273.656 330.128L270.098 332.136C269.9 332.247 269.577 332.247 269.379 332.137L265.84 330.156Z" fill="#4D4D4D"/>
<path d="M265.84 330.03C265.642 329.919 265.642 329.736 265.839 329.624L269.399 327.601C269.596 327.489 269.918 327.489 270.117 327.601L273.656 329.597C273.853 329.709 273.853 329.891 273.656 330.002L270.098 332.009C269.9 332.121 269.577 332.122 269.379 332.011L265.84 330.03Z" fill="#1A1A1A"/>
<path d="M272.172 333.74C271.974 333.629 271.974 333.446 272.171 333.335L275.731 331.312C275.927 331.2 276.251 331.2 276.448 331.311L279.988 333.308C280.186 333.419 280.186 333.602 279.988 333.714L276.428 335.72C276.232 335.832 275.908 335.832 275.71 335.721L272.172 333.74Z" fill="#4D4D4D"/>
<path d="M272.172 333.613C271.974 333.503 271.974 333.32 272.171 333.208L275.731 331.185C275.927 331.074 276.251 331.073 276.448 331.184L279.988 333.181C280.186 333.292 280.186 333.474 279.988 333.585L276.429 335.593C276.232 335.704 275.908 335.705 275.711 335.594L272.172 333.613Z" fill="#1A1A1A"/>
<path d="M278.613 337.298C278.416 337.187 278.416 337.005 278.612 336.893L282.171 334.87C282.368 334.758 282.691 334.758 282.889 334.869L286.429 336.866C286.626 336.977 286.626 337.159 286.429 337.27L282.87 339.278C282.672 339.389 282.349 339.389 282.151 339.279L278.613 337.298Z" fill="#4D4D4D"/>
<path d="M278.613 337.172C278.416 337.061 278.416 336.878 278.612 336.766L282.171 334.744C282.368 334.631 282.691 334.631 282.889 334.743L286.429 336.739C286.626 336.851 286.626 337.034 286.429 337.145L282.87 339.152C282.672 339.263 282.349 339.263 282.151 339.152L278.613 337.172Z" fill="#1A1A1A"/>
<path d="M257.622 339.775C257.424 339.664 257.423 339.482 257.62 339.37L261.179 337.348C261.376 337.235 261.699 337.235 261.897 337.347L265.437 339.343C265.634 339.455 265.634 339.638 265.437 339.748L261.878 341.755C261.681 341.867 261.357 341.868 261.159 341.756L257.622 339.775Z" fill="#4D4D4D"/>
<path d="M257.622 339.648C257.424 339.538 257.423 339.355 257.62 339.244L261.179 337.221C261.376 337.11 261.699 337.109 261.897 337.221L265.437 339.217C265.634 339.329 265.634 339.511 265.437 339.621L261.878 341.629C261.681 341.741 261.357 341.741 261.159 341.63L257.622 339.648Z" fill="#1A1A1A"/>
<path d="M251.412 336.279C251.214 336.168 251.214 335.986 251.411 335.873L254.971 333.851C255.168 333.739 255.491 333.739 255.689 333.85L259.228 335.847C259.426 335.957 259.426 336.14 259.228 336.251L255.67 338.259C255.473 338.37 255.149 338.37 254.951 338.259L251.412 336.279Z" fill="#4D4D4D"/>
<path d="M251.412 336.152C251.214 336.041 251.214 335.859 251.411 335.747L254.971 333.725C255.168 333.612 255.491 333.612 255.689 333.724L259.228 335.72C259.426 335.832 259.426 336.015 259.228 336.125L255.67 338.132C255.473 338.244 255.149 338.244 254.951 338.133L251.412 336.152Z" fill="#1A1A1A"/>
<path d="M245.2 332.782C245.002 332.672 245.001 332.489 245.199 332.377L248.757 330.354C248.955 330.242 249.277 330.242 249.476 330.353L253.016 332.35C253.213 332.461 253.213 332.643 253.016 332.754L249.457 334.762C249.259 334.874 248.936 334.874 248.737 334.763L245.2 332.782Z" fill="#4D4D4D"/>
<path d="M245.2 332.656C245.002 332.545 245.001 332.362 245.199 332.251L248.757 330.228C248.955 330.116 249.277 330.116 249.476 330.227L253.016 332.223C253.213 332.335 253.213 332.518 253.016 332.63L249.457 334.636C249.259 334.748 248.936 334.748 248.737 334.637L245.2 332.656Z" fill="#1A1A1A"/>
<path d="M238.99 329.285C238.793 329.174 238.793 328.992 238.989 328.88L242.547 326.857C242.745 326.745 243.068 326.745 243.266 326.857L246.806 328.853C247.003 328.965 247.003 329.147 246.806 329.258L243.247 331.265C243.049 331.377 242.726 331.377 242.527 331.266L238.99 329.285Z" fill="#4D4D4D"/>
<path d="M238.99 329.159C238.793 329.049 238.793 328.866 238.989 328.753L242.547 326.731C242.745 326.618 243.068 326.618 243.266 326.73L246.806 328.726C247.003 328.837 247.003 329.02 246.806 329.131L243.247 331.139C243.049 331.25 242.726 331.25 242.527 331.139L238.99 329.159Z" fill="#1A1A1A"/>
<path d="M232.777 325.789C232.58 325.678 232.58 325.495 232.776 325.383L236.336 323.36C236.533 323.248 236.855 323.248 237.054 323.359L240.593 325.356C240.79 325.467 240.79 325.65 240.593 325.761L237.035 327.768C236.837 327.879 236.514 327.879 236.316 327.769L232.777 325.789Z" fill="#4D4D4D"/>
<path d="M232.777 325.662C232.58 325.551 232.58 325.368 232.776 325.257L236.336 323.234C236.533 323.122 236.855 323.122 237.054 323.233L240.593 325.23C240.79 325.341 240.79 325.524 240.593 325.634L237.035 327.642C236.837 327.754 236.514 327.754 236.316 327.643L232.777 325.662Z" fill="#1A1A1A"/>
<path d="M226.569 322.292C226.37 322.182 226.37 321.999 226.568 321.887L230.127 319.865C230.324 319.752 230.647 319.752 230.845 319.864L234.385 321.86C234.582 321.971 234.582 322.154 234.385 322.266L230.826 324.273C230.629 324.384 230.305 324.384 230.107 324.274L226.569 322.292Z" fill="#4D4D4D"/>
<path d="M226.569 322.165C226.37 322.054 226.37 321.872 226.568 321.759L230.127 319.737C230.324 319.624 230.647 319.624 230.845 319.736L234.385 321.732C234.582 321.844 234.582 322.027 234.385 322.138L230.826 324.144C230.629 324.256 230.305 324.256 230.107 324.145L226.569 322.165Z" fill="#1A1A1A"/>
<path d="M220.358 318.794C220.16 318.684 220.159 318.501 220.356 318.39L223.916 316.367C224.113 316.255 224.436 316.255 224.634 316.366L228.173 318.363C228.37 318.474 228.37 318.657 228.173 318.767L224.614 320.775C224.417 320.887 224.094 320.887 223.896 320.776L220.358 318.794Z" fill="#4D4D4D"/>
<path d="M220.358 318.669C220.16 318.558 220.159 318.375 220.356 318.263L223.916 316.24C224.113 316.129 224.436 316.128 224.634 316.239L228.173 318.236C228.37 318.347 228.37 318.53 228.173 318.641L224.614 320.648C224.417 320.759 224.094 320.759 223.896 320.649L220.358 318.669Z" fill="#1A1A1A"/>
<path d="M214.147 315.298C213.949 315.187 213.949 315.005 214.145 314.893L217.703 312.871C217.901 312.758 218.223 312.758 218.421 312.87L221.962 314.866C222.159 314.978 222.159 315.16 221.962 315.271L218.403 317.278C218.205 317.39 217.882 317.391 217.683 317.279L214.147 315.298Z" fill="#4D4D4D"/>
<path d="M214.147 315.171C213.949 315.061 213.949 314.878 214.145 314.766L217.703 312.744C217.901 312.632 218.223 312.632 218.421 312.743L221.962 314.74C222.159 314.851 222.159 315.033 221.962 315.144L218.403 317.152C218.205 317.263 217.882 317.263 217.683 317.153L214.147 315.171Z" fill="#1A1A1A"/>
<path d="M207.936 311.801C207.738 311.69 207.737 311.508 207.935 311.396L211.495 309.373C211.692 309.262 212.015 309.261 212.212 309.372L215.752 311.368C215.95 311.48 215.95 311.663 215.752 311.774L212.193 313.781C211.996 313.892 211.672 313.892 211.475 313.781L207.936 311.801Z" fill="#4D4D4D"/>
<path d="M207.936 311.675C207.738 311.564 207.737 311.381 207.935 311.27L211.495 309.247C211.692 309.135 212.015 309.135 212.212 309.247L215.752 311.243C215.95 311.355 215.95 311.537 215.752 311.649L212.193 313.656C211.996 313.768 211.672 313.768 211.475 313.657L207.936 311.675Z" fill="#1A1A1A"/>
<path d="M201.727 308.305C201.529 308.194 201.529 308.012 201.726 307.9L205.284 305.878C205.481 305.765 205.805 305.765 206.002 305.877L209.543 307.873C209.74 307.984 209.74 308.167 209.543 308.278L205.983 310.285C205.786 310.396 205.463 310.396 205.264 310.286L201.727 308.305Z" fill="#4D4D4D"/>
<path d="M201.727 308.178C201.529 308.067 201.529 307.885 201.726 307.773L205.284 305.751C205.481 305.638 205.805 305.638 206.002 305.75L209.543 307.746C209.74 307.858 209.74 308.04 209.543 308.151L205.983 310.158C205.786 310.27 205.463 310.271 205.264 310.159L201.727 308.178Z" fill="#1A1A1A"/>
<path d="M195.516 304.808C195.318 304.697 195.318 304.514 195.515 304.403L199.074 302.38C199.271 302.268 199.594 302.268 199.792 302.379L203.332 304.376C203.529 304.487 203.529 304.67 203.332 304.78L199.773 306.788C199.576 306.9 199.252 306.9 199.054 306.789L195.516 304.808Z" fill="#4D4D4D"/>
<path d="M195.516 304.682C195.318 304.571 195.318 304.388 195.515 304.276L199.074 302.253C199.271 302.142 199.594 302.141 199.792 302.252L203.332 304.248C203.529 304.36 203.529 304.543 203.332 304.654L199.773 306.661C199.576 306.772 199.252 306.772 199.054 306.661L195.516 304.682Z" fill="#1A1A1A"/>
<path d="M189.303 301.311C189.105 301.2 189.104 301.017 189.302 300.905L192.862 298.882C193.059 298.77 193.381 298.77 193.58 298.881L197.119 300.877C197.316 300.989 197.316 301.172 197.119 301.282L193.561 303.289C193.363 303.401 193.04 303.401 192.842 303.29L189.303 301.311Z" fill="#4D4D4D"/>
<path d="M189.303 301.184C189.105 301.074 189.104 300.891 189.302 300.779L192.862 298.756C193.059 298.644 193.381 298.644 193.58 298.756L197.119 300.752C197.316 300.864 197.316 301.045 197.119 301.156L193.561 303.164C193.363 303.276 193.04 303.275 192.842 303.165L189.303 301.184Z" fill="#1A1A1A"/>
<path d="M183.095 297.814C182.896 297.704 182.895 297.521 183.093 297.41L186.652 295.387C186.849 295.276 187.172 295.275 187.37 295.386L190.909 297.382C191.107 297.494 191.107 297.677 190.909 297.788L187.351 299.794C187.154 299.906 186.83 299.907 186.632 299.795L183.095 297.814Z" fill="#4D4D4D"/>
<path d="M183.095 297.688C182.896 297.577 182.895 297.394 183.093 297.283L186.652 295.26C186.849 295.148 187.172 295.148 187.37 295.259L190.909 297.256C191.107 297.367 191.107 297.55 190.909 297.66L187.351 299.668C187.154 299.78 186.83 299.78 186.632 299.669L183.095 297.688Z" fill="#1A1A1A"/>
<path d="M197.752 298.865C197.554 298.755 197.554 298.572 197.751 298.46L201.311 296.438C201.508 296.325 201.831 296.325 202.029 296.437L205.568 298.433C205.766 298.545 205.766 298.727 205.568 298.838L202.009 300.845C201.813 300.957 201.489 300.957 201.291 300.846L197.752 298.865Z" fill="#4D4D4D"/>
<path d="M197.752 298.738C197.554 298.627 197.554 298.445 197.751 298.333L201.311 296.311C201.508 296.198 201.831 296.198 202.029 296.31L205.568 298.306C205.766 298.418 205.766 298.6 205.568 298.711L202.009 300.718C201.813 300.83 201.489 300.83 201.291 300.72L197.752 298.738Z" fill="#1A1A1A"/>
<path d="M203.951 302.368C203.753 302.258 203.753 302.075 203.951 301.963L207.51 299.94C207.707 299.829 208.03 299.828 208.228 299.94L211.767 301.937C211.965 302.048 211.965 302.23 211.767 302.341L208.209 304.349C208.012 304.461 207.688 304.461 207.49 304.35L203.951 302.368Z" fill="#4D4D4D"/>
<path d="M203.951 302.241C203.753 302.131 203.753 301.948 203.951 301.836L207.51 299.814C207.707 299.701 208.03 299.701 208.228 299.813L211.767 301.809C211.965 301.921 211.965 302.104 211.767 302.215L208.209 304.221C208.012 304.333 207.688 304.333 207.49 304.222L203.951 302.241Z" fill="#1A1A1A"/>
<path d="M210.149 305.871C209.95 305.76 209.95 305.578 210.148 305.465L213.707 303.443C213.904 303.33 214.227 303.33 214.425 303.442L217.964 305.438C218.162 305.55 218.162 305.732 217.964 305.843L214.406 307.851C214.209 307.962 213.885 307.962 213.687 307.851L210.149 305.871Z" fill="#4D4D4D"/>
<path d="M210.149 305.744C209.95 305.633 209.95 305.451 210.148 305.339L213.707 303.316C213.904 303.204 214.227 303.204 214.425 303.316L217.964 305.312C218.162 305.424 218.162 305.606 217.964 305.717L214.406 307.724C214.209 307.836 213.885 307.836 213.687 307.725L210.149 305.744Z" fill="#1A1A1A"/>
<path d="M216.348 309.373C216.15 309.263 216.149 309.08 216.346 308.968L219.906 306.946C220.103 306.834 220.426 306.834 220.624 306.945L224.163 308.942C224.36 309.053 224.36 309.235 224.163 309.346L220.605 311.354C220.407 311.465 220.084 311.465 219.886 311.355L216.348 309.373Z" fill="#4D4D4D"/>
<path d="M216.348 309.246C216.15 309.135 216.149 308.953 216.346 308.84L219.906 306.818C220.103 306.706 220.426 306.705 220.624 306.817L224.163 308.813C224.36 308.925 224.36 309.108 224.163 309.219L220.605 311.225C220.407 311.337 220.084 311.338 219.886 311.226L216.348 309.246Z" fill="#1A1A1A"/>
<path d="M222.545 312.875C222.347 312.765 222.347 312.583 222.544 312.471L226.103 310.449C226.3 310.336 226.623 310.336 226.821 310.448L230.361 312.444C230.558 312.556 230.558 312.738 230.361 312.848L226.802 314.856C226.605 314.968 226.281 314.968 226.083 314.857L222.545 312.875Z" fill="#4D4D4D"/>
<path d="M222.545 312.749C222.347 312.638 222.347 312.455 222.544 312.343L226.103 310.32C226.3 310.208 226.623 310.208 226.821 310.32L230.361 312.316C230.558 312.428 230.558 312.61 230.361 312.721L226.802 314.728C226.605 314.84 226.281 314.84 226.083 314.729L222.545 312.749Z" fill="#1A1A1A"/>
<path d="M228.742 316.378C228.545 316.268 228.545 316.085 228.741 315.973L232.299 313.951C232.497 313.839 232.819 313.838 233.018 313.95L236.558 315.946C236.754 316.058 236.754 316.24 236.558 316.351L232.999 318.359C232.801 318.47 232.478 318.471 232.279 318.359L228.742 316.378Z" fill="#4D4D4D"/>
<path d="M228.742 316.251C228.545 316.141 228.545 315.958 228.741 315.846L232.299 313.824C232.497 313.711 232.819 313.711 233.018 313.823L236.558 315.819C236.754 315.931 236.754 316.114 236.558 316.225L232.999 318.231C232.801 318.343 232.478 318.343 232.279 318.232L228.742 316.251Z" fill="#1A1A1A"/>
<path d="M234.941 319.881C234.744 319.771 234.744 319.588 234.941 319.476L238.499 317.453C238.697 317.341 239.019 317.341 239.217 317.453L242.758 319.449C242.954 319.561 242.954 319.742 242.758 319.853L239.198 321.861C239.001 321.973 238.678 321.973 238.479 321.862L234.941 319.881Z" fill="#4D4D4D"/>
<path d="M234.941 319.755C234.744 319.644 234.744 319.461 234.941 319.349L238.499 317.327C238.697 317.214 239.019 317.214 239.217 317.326L242.758 319.322C242.954 319.434 242.954 319.617 242.758 319.728L239.198 321.735C239.001 321.846 238.678 321.846 238.479 321.735L234.941 319.755Z" fill="#1A1A1A"/>
<path d="M241.141 323.384C240.943 323.273 240.943 323.091 241.139 322.978L244.699 320.956C244.895 320.843 245.218 320.843 245.416 320.955L248.956 322.951C249.153 323.063 249.153 323.245 248.956 323.356L245.397 325.363C245.199 325.475 244.876 325.475 244.679 325.364L241.141 323.384Z" fill="#4D4D4D"/>
<path d="M241.141 323.257C240.943 323.146 240.943 322.964 241.139 322.852L244.699 320.83C244.895 320.718 245.218 320.717 245.416 320.829L248.956 322.825C249.153 322.937 249.153 323.119 248.956 323.23L245.397 325.237C245.199 325.349 244.876 325.35 244.679 325.238L241.141 323.257Z" fill="#1A1A1A"/>
<path d="M247.338 326.886C247.14 326.776 247.14 326.593 247.337 326.482L250.897 324.459C251.094 324.347 251.416 324.347 251.614 324.458L255.154 326.455C255.351 326.566 255.351 326.748 255.154 326.859L251.595 328.867C251.398 328.978 251.074 328.979 250.877 328.868L247.338 326.886Z" fill="#4D4D4D"/>
<path d="M247.338 326.76C247.14 326.649 247.14 326.466 247.337 326.354L250.897 324.331C251.094 324.22 251.416 324.219 251.614 324.33L255.154 326.327C255.351 326.438 255.351 326.621 255.154 326.733L251.595 328.74C251.398 328.851 251.074 328.851 250.877 328.741L247.338 326.76Z" fill="#1A1A1A"/>
<path d="M253.537 330.389C253.339 330.278 253.339 330.096 253.536 329.984L257.096 327.962C257.293 327.849 257.615 327.849 257.814 327.961L261.353 329.957C261.55 330.069 261.55 330.251 261.353 330.362L257.795 332.369C257.597 332.481 257.274 332.481 257.076 332.37L253.537 330.389Z" fill="#4D4D4D"/>
<path d="M253.537 330.263C253.339 330.152 253.339 329.969 253.536 329.857L257.096 327.834C257.293 327.722 257.615 327.722 257.814 327.834L261.353 329.83C261.55 329.942 261.55 330.124 261.353 330.235L257.795 332.242C257.597 332.354 257.274 332.354 257.076 332.243L253.537 330.263Z" fill="#1A1A1A"/>
<path d="M259.736 333.891C259.539 333.781 259.539 333.598 259.735 333.486L263.295 331.464C263.492 331.352 263.815 331.352 264.013 331.463L267.552 333.46C267.749 333.57 267.749 333.753 267.552 333.864L263.994 335.872C263.796 335.983 263.473 335.983 263.275 335.873L259.736 333.891Z" fill="#4D4D4D"/>
<path d="M259.736 333.765C259.539 333.654 259.539 333.471 259.735 333.359L263.295 331.337C263.492 331.224 263.815 331.224 264.013 331.336L267.552 333.332C267.749 333.444 267.749 333.627 267.552 333.738L263.994 335.745C263.796 335.856 263.473 335.856 263.275 335.745L259.736 333.765Z" fill="#1A1A1A"/>
<path d="M265.932 337.394C265.734 337.284 265.734 337.102 265.931 336.989L269.49 334.967C269.687 334.854 270.01 334.854 270.208 334.966L273.748 336.962C273.946 337.073 273.946 337.256 273.748 337.367L270.189 339.374C269.992 339.485 269.668 339.485 269.47 339.375L265.932 337.394Z" fill="#4D4D4D"/>
<path d="M265.932 337.268C265.734 337.157 265.734 336.974 265.931 336.862L269.49 334.839C269.687 334.727 270.01 334.727 270.208 334.839L273.748 336.835C273.946 336.947 273.946 337.129 273.748 337.24L270.189 339.247C269.992 339.359 269.668 339.359 269.47 339.248L265.932 337.268Z" fill="#1A1A1A"/>
<path d="M272.17 340.858C271.972 340.747 271.972 340.564 272.17 340.452L275.729 338.429C275.925 338.317 276.249 338.317 276.446 338.428L279.986 340.425C280.184 340.536 280.184 340.719 279.986 340.83L276.427 342.838C276.23 342.949 275.906 342.95 275.709 342.838L272.17 340.858Z" fill="#4D4D4D"/>
<path d="M272.17 340.73C271.972 340.619 271.972 340.437 272.17 340.326L275.729 338.303C275.925 338.191 276.249 338.191 276.446 338.302L279.986 340.299C280.184 340.41 280.184 340.593 279.986 340.703L276.427 342.71C276.23 342.822 275.906 342.822 275.709 342.712L272.17 340.73Z" fill="#1A1A1A"/>
<path d="M193.005 291.905C193.203 291.795 193.526 291.795 193.724 291.905L199.368 295.09C199.565 295.201 199.565 295.383 199.368 295.494L195.845 297.482C195.647 297.594 195.324 297.594 195.126 297.482L189.482 294.299C189.285 294.187 189.285 294.004 189.482 293.894L193.005 291.905Z" fill="#4D4D4D"/>
<path d="M193.005 291.766C193.203 291.655 193.526 291.655 193.724 291.766L199.368 294.95C199.565 295.061 199.565 295.244 199.368 295.355L195.845 297.343C195.647 297.455 195.324 297.455 195.126 297.343L189.482 294.159C189.285 294.048 189.285 293.865 189.482 293.754L193.005 291.766Z" fill="#1A1A1A"/>
<path d="M184.971 305.963C184.773 305.853 184.773 305.671 184.971 305.558L188.529 303.536C188.726 303.423 189.049 303.423 189.247 303.535L192.788 305.531C192.984 305.643 192.984 305.825 192.788 305.936L189.228 307.944C189.031 308.056 188.707 308.056 188.509 307.945L184.971 305.963Z" fill="#4D4D4D"/>
<path d="M184.971 305.837C184.773 305.726 184.773 305.544 184.971 305.431L188.529 303.409C188.726 303.296 189.049 303.296 189.247 303.408L192.788 305.404C192.984 305.516 192.984 305.699 192.788 305.809L189.228 307.816C189.031 307.928 188.707 307.928 188.509 307.817L184.971 305.837Z" fill="#1A1A1A"/>
<path d="M191.016 309.371C190.818 309.261 190.817 309.078 191.015 308.967L194.574 306.944C194.772 306.832 195.094 306.832 195.292 306.944L198.832 308.94C199.029 309.051 199.029 309.233 198.832 309.344L195.273 311.352C195.076 311.463 194.753 311.463 194.554 311.353L191.016 309.371Z" fill="#4D4D4D"/>
<path d="M191.016 309.246C190.818 309.135 190.817 308.952 191.015 308.84L194.574 306.817C194.772 306.705 195.094 306.705 195.292 306.816L198.832 308.813C199.029 308.924 199.029 309.107 198.832 309.219L195.273 311.226C195.076 311.337 194.753 311.337 194.554 311.226L191.016 309.246Z" fill="#1A1A1A"/>
<path d="M183.095 312.208C182.896 312.098 182.895 311.915 183.093 311.803L186.652 309.781C186.849 309.668 187.172 309.668 187.37 309.78L190.909 311.776C191.107 311.888 191.107 312.071 190.909 312.181L187.351 314.188C187.154 314.3 186.83 314.3 186.632 314.189L183.095 312.208Z" fill="#4D4D4D"/>
<path d="M183.095 312.082C182.896 311.971 182.895 311.789 183.093 311.677L186.652 309.653C186.849 309.543 187.172 309.542 187.37 309.653L190.909 311.649C191.107 311.761 191.107 311.943 190.909 312.054L187.351 314.061C187.154 314.173 186.83 314.174 186.632 314.063L183.095 312.082Z" fill="#1A1A1A"/>
<path d="M164.016 308.679C163.818 308.569 163.818 308.386 164.015 308.274L167.574 306.251C167.771 306.139 168.094 306.139 168.292 306.25L171.832 308.247C172.029 308.358 172.029 308.54 171.832 308.651L168.273 310.659C168.076 310.771 167.752 310.771 167.554 310.66L164.016 308.679Z" fill="#4D4D4D"/>
<path d="M164.016 308.553C163.818 308.442 163.818 308.259 164.015 308.148L167.574 306.125C167.771 306.013 168.094 306.013 168.292 306.124L171.832 308.12C172.029 308.232 172.029 308.415 171.832 308.526L168.273 310.533C168.076 310.644 167.752 310.644 167.554 310.533L164.016 308.553Z" fill="#1A1A1A"/>
<path d="M170.37 312.146C170.171 312.035 170.171 311.852 170.368 311.739L173.927 309.717C174.124 309.605 174.447 309.605 174.645 309.716L178.184 311.713C178.382 311.824 178.382 312.007 178.184 312.119L174.626 314.126C174.429 314.237 174.105 314.237 173.907 314.126L170.37 312.146Z" fill="#4D4D4D"/>
<path d="M170.37 312.018C170.171 311.908 170.171 311.726 170.368 311.614L173.927 309.592C174.124 309.48 174.447 309.479 174.645 309.591L178.184 311.587C178.382 311.699 178.382 311.881 178.184 311.991L174.626 313.999C174.429 314.111 174.105 314.111 173.907 314L170.37 312.018Z" fill="#1A1A1A"/>
<path d="M176.86 315.818C176.662 315.707 176.661 315.525 176.859 315.413L180.418 313.391C180.615 313.278 180.938 313.278 181.136 313.39L184.676 315.386C184.873 315.497 184.873 315.68 184.676 315.791L181.117 317.799C180.919 317.909 180.596 317.909 180.398 317.799L176.86 315.818Z" fill="#4D4D4D"/>
<path d="M176.86 315.691C176.662 315.58 176.661 315.398 176.859 315.285L180.418 313.263C180.615 313.151 180.938 313.15 181.136 313.262L184.676 315.259C184.873 315.371 184.873 315.553 184.676 315.664L181.117 317.671C180.919 317.783 180.596 317.783 180.398 317.672L176.86 315.691Z" fill="#1A1A1A"/>
<path d="M183.095 319.389C182.896 319.278 182.895 319.095 183.093 318.983L186.652 316.96C186.849 316.848 187.172 316.848 187.37 316.959L190.909 318.956C191.107 319.067 191.107 319.25 190.909 319.361L187.351 321.368C187.154 321.479 186.83 321.479 186.632 321.369L183.095 319.389Z" fill="#4D4D4D"/>
<path d="M183.095 319.262C182.896 319.151 182.895 318.969 183.093 318.857L186.652 316.835C186.849 316.722 187.172 316.722 187.37 316.834L190.909 318.83C191.107 318.942 191.107 319.124 190.909 319.234L187.351 321.242C187.154 321.354 186.83 321.355 186.632 321.243L183.095 319.262Z" fill="#1A1A1A"/>
<path d="M189.524 315.753C189.326 315.643 189.326 315.46 189.522 315.349L193.081 313.326C193.278 313.214 193.6 313.214 193.799 313.325L197.339 315.322C197.536 315.433 197.536 315.615 197.339 315.726L193.78 317.734C193.582 317.846 193.259 317.846 193.061 317.735L189.524 315.753Z" fill="#4D4D4D"/>
<path d="M189.524 315.628C189.326 315.517 189.326 315.334 189.522 315.222L193.081 313.199C193.278 313.088 193.6 313.087 193.799 313.198L197.339 315.195C197.536 315.306 197.536 315.489 197.339 315.6L193.78 317.607C193.582 317.718 193.259 317.719 193.061 317.608L189.524 315.628Z" fill="#1A1A1A"/>
<path d="M195.819 319.325C195.621 319.215 195.62 319.032 195.818 318.92L199.376 316.897C199.574 316.785 199.897 316.785 200.094 316.897L203.635 318.893C203.832 319.005 203.832 319.187 203.635 319.298L200.075 321.306C199.878 321.418 199.555 321.418 199.357 321.307L195.819 319.325Z" fill="#4D4D4D"/>
<path d="M195.819 319.199C195.621 319.088 195.62 318.905 195.818 318.794L199.376 316.771C199.574 316.658 199.897 316.659 200.094 316.77L203.635 318.766C203.832 318.878 203.832 319.061 203.635 319.172L200.075 321.179C199.878 321.29 199.555 321.29 199.357 321.179L195.819 319.199Z" fill="#1A1A1A"/>
<path d="M202.222 322.941C202.023 322.83 202.022 322.648 202.22 322.536L205.779 320.514C205.976 320.401 206.299 320.401 206.497 320.513L210.037 322.509C210.234 322.62 210.234 322.803 210.037 322.914L206.478 324.922C206.281 325.033 205.957 325.033 205.759 324.922L202.222 322.941Z" fill="#4D4D4D"/>
<path d="M202.222 322.815C202.023 322.704 202.022 322.522 202.22 322.409L205.779 320.387C205.976 320.275 206.299 320.274 206.497 320.386L210.037 322.382C210.234 322.494 210.234 322.677 210.037 322.787L206.478 324.794C206.281 324.906 205.957 324.906 205.759 324.795L202.222 322.815Z" fill="#1A1A1A"/>
<path d="M208.545 326.477C208.347 326.366 208.347 326.183 208.544 326.071L212.103 324.049C212.301 323.937 212.623 323.937 212.821 324.048L216.361 326.045C216.558 326.156 216.558 326.339 216.361 326.45L212.802 328.457C212.605 328.568 212.281 328.568 212.083 328.458L208.545 326.477Z" fill="#4D4D4D"/>
<path d="M208.545 326.349C208.347 326.238 208.347 326.057 208.544 325.945L212.103 323.922C212.301 323.81 212.623 323.81 212.821 323.922L216.361 325.918C216.558 326.029 216.558 326.211 216.361 326.322L212.802 328.33C212.605 328.441 212.281 328.442 212.083 328.331L208.545 326.349Z" fill="#1A1A1A"/>
<path d="M214.948 330.123C214.75 330.013 214.749 329.83 214.946 329.718L218.505 327.696C218.702 327.583 219.025 327.583 219.223 327.695L222.763 329.691C222.96 329.803 222.96 329.986 222.763 330.097L219.204 332.103C219.006 332.215 218.683 332.215 218.486 332.104L214.948 330.123Z" fill="#4D4D4D"/>
<path d="M214.948 329.996C214.75 329.886 214.749 329.704 214.946 329.591L218.505 327.569C218.702 327.457 219.025 327.456 219.223 327.568L222.763 329.564C222.96 329.676 222.96 329.858 222.763 329.969L219.204 331.976C219.006 332.088 218.683 332.089 218.486 331.977L214.948 329.996Z" fill="#1A1A1A"/>
<path d="M221.268 333.745C221.07 333.634 221.069 333.451 221.267 333.34L224.826 331.317C225.024 331.206 225.346 331.206 225.544 331.316L229.084 333.313C229.281 333.424 229.281 333.607 229.084 333.718L225.525 335.725C225.328 335.837 225.004 335.837 224.806 335.726L221.268 333.745Z" fill="#4D4D4D"/>
<path d="M221.268 333.619C221.07 333.508 221.069 333.325 221.267 333.213L224.826 331.19C225.024 331.078 225.346 331.078 225.544 331.189L229.084 333.186C229.281 333.297 229.281 333.48 229.084 333.59L225.525 335.598C225.328 335.71 225.004 335.71 224.806 335.599L221.268 333.619Z" fill="#1A1A1A"/>
<path d="M227.649 337.35C227.451 337.24 227.451 337.057 227.648 336.946L231.206 334.923C231.404 334.811 231.726 334.811 231.924 334.923L235.465 336.919C235.662 337.031 235.662 337.212 235.465 337.323L231.905 339.331C231.708 339.443 231.385 339.443 231.186 339.332L227.649 337.35Z" fill="#4D4D4D"/>
<path d="M227.649 337.225C227.451 337.114 227.451 336.931 227.648 336.819L231.206 334.796C231.404 334.685 231.726 334.684 231.924 334.795L235.465 336.792C235.662 336.903 235.662 337.086 235.465 337.197L231.905 339.204C231.708 339.316 231.385 339.316 231.186 339.205L227.649 337.225Z" fill="#1A1A1A"/>
<path d="M233.997 340.856C233.799 340.745 233.798 340.562 233.996 340.451L237.555 338.428C237.752 338.316 238.075 338.316 238.273 338.427L241.813 340.424C242.01 340.535 242.01 340.718 241.813 340.828L238.254 342.836C238.057 342.948 237.733 342.948 237.535 342.837L233.997 340.856Z" fill="#4D4D4D"/>
<path d="M233.997 340.729C233.799 340.618 233.798 340.435 233.996 340.323L237.555 338.3C237.752 338.188 238.075 338.188 238.273 338.299L241.813 340.296C242.01 340.407 242.01 340.59 241.813 340.701L238.254 342.708C238.057 342.82 237.733 342.82 237.535 342.709L233.997 340.729Z" fill="#1A1A1A"/>
<path d="M240.422 344.511C240.224 344.4 240.224 344.218 240.421 344.106L243.98 342.083C244.177 341.971 244.5 341.971 244.698 342.082L248.238 344.078C248.435 344.19 248.435 344.373 248.238 344.484L244.679 346.491C244.482 346.603 244.158 346.603 243.96 346.493L240.422 344.511Z" fill="#4D4D4D"/>
<path d="M240.422 344.384C240.224 344.274 240.224 344.091 240.421 343.979L243.98 341.957C244.177 341.845 244.5 341.844 244.698 341.956L248.238 343.952C248.435 344.064 248.435 344.247 248.238 344.357L244.679 346.364C244.482 346.476 244.158 346.476 243.96 346.365L240.422 344.384Z" fill="#1A1A1A"/>
<path d="M246.721 355.249C246.523 355.138 246.523 354.956 246.721 354.845L250.279 352.822C250.476 352.71 250.799 352.709 250.997 352.821L254.537 354.817C254.735 354.929 254.735 355.111 254.537 355.222L250.978 357.229C250.781 357.341 250.457 357.342 250.259 357.23L246.721 355.249Z" fill="#4D4D4D"/>
<path d="M246.721 355.123C246.523 355.012 246.523 354.829 246.721 354.717L250.279 352.695C250.476 352.583 250.799 352.583 250.997 352.694L254.537 354.691C254.735 354.802 254.735 354.985 254.537 355.095L250.978 357.103C250.781 357.214 250.457 357.214 250.259 357.104L246.721 355.123Z" fill="#1A1A1A"/>
<path d="M240.422 351.534C240.224 351.424 240.224 351.241 240.421 351.128L243.98 349.106C244.177 348.993 244.5 348.993 244.698 349.105L248.238 351.101C248.435 351.213 248.435 351.396 248.238 351.507L244.679 353.514C244.482 353.625 244.158 353.626 243.96 353.514L240.422 351.534Z" fill="#4D4D4D"/>
<path d="M240.422 351.408C240.224 351.297 240.224 351.115 240.421 351.003L243.98 348.981C244.177 348.869 244.5 348.868 244.698 348.98L248.238 350.976C248.435 351.088 248.435 351.27 248.238 351.381L244.679 353.388C244.482 353.5 244.158 353.5 243.96 353.389L240.422 351.408Z" fill="#1A1A1A"/>
<path d="M233.997 348.101C233.799 347.99 233.798 347.807 233.996 347.695L237.555 345.672C237.752 345.56 238.075 345.56 238.273 345.671L241.813 347.668C242.01 347.78 242.01 347.963 241.813 348.074L238.254 350.081C238.057 350.192 237.733 350.192 237.535 350.081L233.997 348.101Z" fill="#4D4D4D"/>
<path d="M233.997 347.973C233.799 347.863 233.798 347.681 233.996 347.569L237.555 345.547C237.752 345.435 238.075 345.434 238.273 345.546L241.813 347.542C242.01 347.654 242.01 347.836 241.813 347.947L238.254 349.954C238.057 350.066 237.733 350.066 237.535 349.955L233.997 347.973Z" fill="#1A1A1A"/>
<path d="M227.649 344.447C227.451 344.337 227.451 344.155 227.648 344.042L231.206 342.02C231.404 341.908 231.726 341.907 231.924 342.019L235.465 344.015C235.662 344.127 235.662 344.309 235.465 344.42L231.905 346.427C231.708 346.539 231.385 346.54 231.186 346.428L227.649 344.447Z" fill="#4D4D4D"/>
<path d="M227.649 344.321C227.451 344.21 227.451 344.027 227.648 343.916L231.206 341.893C231.404 341.781 231.726 341.781 231.924 341.893L235.465 343.889C235.662 344.001 235.662 344.183 235.465 344.294L231.905 346.301C231.708 346.413 231.385 346.413 231.186 346.302L227.649 344.321Z" fill="#1A1A1A"/>
<path d="M221.268 340.793C221.07 340.682 221.069 340.499 221.267 340.386L224.826 338.364C225.024 338.252 225.346 338.252 225.544 338.363L229.084 340.36C229.281 340.471 229.281 340.654 229.084 340.765L225.525 342.772C225.328 342.883 225.004 342.883 224.806 342.773L221.268 340.793Z" fill="#4D4D4D"/>
<path d="M221.268 340.665C221.07 340.555 221.069 340.372 221.267 340.26L224.826 338.238C225.024 338.126 225.346 338.125 225.544 338.237L229.084 340.233C229.281 340.344 229.281 340.527 229.084 340.637L225.525 342.645C225.328 342.756 225.004 342.758 224.806 342.646L221.268 340.665Z" fill="#1A1A1A"/>
<path d="M197.057 312.78C196.859 312.669 196.859 312.487 197.056 312.375L200.614 310.353C200.811 310.241 201.134 310.241 201.332 310.352L204.873 312.349C205.07 312.459 205.07 312.642 204.873 312.753L201.313 314.761C201.116 314.872 200.793 314.872 200.594 314.762L197.057 312.78Z" fill="#4D4D4D"/>
<path d="M197.057 312.654C196.859 312.543 196.859 312.36 197.056 312.248L200.614 310.225C200.811 310.113 201.134 310.113 201.332 310.224L204.873 312.221C205.07 312.333 205.07 312.516 204.873 312.627L201.313 314.634C201.116 314.745 200.793 314.745 200.594 314.634L197.057 312.654Z" fill="#1A1A1A"/>
<path d="M203.099 316.188C202.9 316.077 202.899 315.895 203.097 315.783L206.656 313.761C206.853 313.648 207.176 313.648 207.374 313.759L210.913 315.756C211.111 315.867 211.111 316.049 210.913 316.16L207.354 318.168C207.158 318.279 206.834 318.28 206.636 318.169L203.099 316.188Z" fill="#4D4D4D"/>
<path d="M203.099 316.062C202.9 315.951 202.899 315.769 203.097 315.656L206.656 313.634C206.853 313.521 207.176 313.521 207.374 313.633L210.913 315.629C211.111 315.741 211.111 315.924 210.913 316.035L207.354 318.041C207.158 318.153 206.834 318.153 206.636 318.042L203.099 316.062Z" fill="#1A1A1A"/>
<path d="M209.141 319.597C208.943 319.486 208.943 319.303 209.14 319.192L212.698 317.169C212.895 317.057 213.218 317.057 213.416 317.168L216.957 319.164C217.154 319.276 217.154 319.459 216.957 319.57L213.397 321.577C213.2 321.688 212.876 321.688 212.678 321.577L209.141 319.597Z" fill="#4D4D4D"/>
<path d="M209.141 319.47C208.943 319.359 208.943 319.176 209.14 319.064L212.698 317.042C212.895 316.929 213.218 316.929 213.416 317.041L216.957 319.037C217.154 319.149 217.154 319.331 216.957 319.441L213.397 321.449C213.2 321.561 212.876 321.561 212.678 321.45L209.141 319.47Z" fill="#1A1A1A"/>
<path d="M215.184 323.005C214.986 322.894 214.986 322.712 215.183 322.601L218.741 320.578C218.938 320.466 219.261 320.466 219.459 320.577L222.999 322.573C223.197 322.685 223.197 322.867 222.999 322.978L219.44 324.985C219.243 325.097 218.919 325.097 218.721 324.986L215.184 323.005Z" fill="#4D4D4D"/>
<path d="M215.184 322.879C214.986 322.768 214.986 322.585 215.183 322.473L218.741 320.45C218.938 320.338 219.261 320.338 219.459 320.449L222.999 322.446C223.197 322.558 223.197 322.74 222.999 322.85L219.44 324.858C219.243 324.97 218.919 324.971 218.721 324.859L215.184 322.879Z" fill="#1A1A1A"/>
<path d="M221.227 326.413C221.029 326.302 221.029 326.119 221.226 326.008L224.785 323.985C224.982 323.873 225.305 323.873 225.503 323.985L229.042 325.981C229.24 326.093 229.24 326.275 229.042 326.386L225.484 328.393C225.287 328.505 224.963 328.505 224.765 328.394L221.227 326.413Z" fill="#4D4D4D"/>
<path d="M221.227 326.286C221.029 326.176 221.029 325.993 221.226 325.881L224.785 323.858C224.982 323.746 225.305 323.746 225.503 323.857L229.042 325.854C229.24 325.965 229.24 326.148 229.042 326.258L225.484 328.266C225.287 328.378 224.963 328.378 224.765 328.267L221.227 326.286Z" fill="#1A1A1A"/>
<path d="M227.266 329.822C227.068 329.711 227.067 329.528 227.265 329.416L230.824 327.394C231.021 327.282 231.345 327.282 231.542 327.393L235.081 329.39C235.279 329.501 235.279 329.684 235.081 329.795L231.523 331.802C231.326 331.913 231.002 331.914 230.804 331.803L227.266 329.822Z" fill="#4D4D4D"/>
<path d="M227.266 329.695C227.068 329.584 227.067 329.402 227.265 329.289L230.824 327.267C231.021 327.154 231.345 327.154 231.542 327.266L235.081 329.262C235.279 329.374 235.279 329.556 235.081 329.667L231.523 331.675C231.326 331.786 231.002 331.786 230.804 331.675L227.266 329.695Z" fill="#1A1A1A"/>
<path d="M233.307 333.229C233.109 333.119 233.109 332.936 233.306 332.824L236.865 330.802C237.062 330.689 237.384 330.689 237.583 330.801L241.123 332.797C241.32 332.909 241.32 333.092 241.123 333.203L237.564 335.209C237.366 335.321 237.043 335.321 236.845 335.21L233.307 333.229Z" fill="#4D4D4D"/>
<path d="M233.307 333.102C233.109 332.992 233.109 332.81 233.306 332.697L236.865 330.675C237.062 330.562 237.384 330.562 237.583 330.674L241.123 332.67C241.32 332.781 241.32 332.964 241.123 333.075L237.564 335.082C237.366 335.193 237.043 335.195 236.845 335.083L233.307 333.102Z" fill="#1A1A1A"/>
<path d="M239.351 336.638C239.152 336.527 239.151 336.345 239.35 336.233L242.908 334.211C243.105 334.098 243.428 334.098 243.626 334.21L247.167 336.206C247.364 336.318 247.364 336.501 247.167 336.611L243.607 338.618C243.41 338.73 243.086 338.73 242.888 338.619L239.351 336.638Z" fill="#4D4D4D"/>
<path d="M239.351 336.511C239.152 336.401 239.151 336.218 239.35 336.106L242.908 334.084C243.105 333.971 243.428 333.971 243.626 334.083L247.167 336.079C247.364 336.19 247.364 336.373 247.167 336.483L243.607 338.491C243.41 338.602 243.086 338.602 242.888 338.492L239.351 336.511Z" fill="#1A1A1A"/>
<path d="M245.393 340.046C245.195 339.935 245.194 339.753 245.391 339.641L248.95 337.619C249.148 337.506 249.47 337.506 249.669 337.618L253.208 339.614C253.405 339.726 253.405 339.909 253.208 340.019L249.65 342.026C249.452 342.138 249.129 342.139 248.931 342.027L245.393 340.046Z" fill="#4D4D4D"/>
<path d="M245.393 339.92C245.195 339.809 245.194 339.627 245.391 339.515L248.95 337.492C249.148 337.38 249.47 337.38 249.669 337.491L253.208 339.488C253.405 339.599 253.405 339.781 253.208 339.892L249.65 341.9C249.452 342.011 249.129 342.011 248.931 341.901L245.393 339.92Z" fill="#1A1A1A"/>
<path d="M251.436 343.455C251.238 343.344 251.238 343.161 251.435 343.05L254.993 341.027C255.19 340.915 255.513 340.915 255.711 341.026L259.252 343.023C259.449 343.134 259.449 343.317 259.252 343.427L255.692 345.435C255.495 345.547 255.171 345.547 254.973 345.436L251.436 343.455Z" fill="#4D4D4D"/>
<path d="M251.436 343.328C251.238 343.217 251.238 343.034 251.435 342.923L254.993 340.899C255.19 340.788 255.513 340.788 255.711 340.899L259.252 342.895C259.449 343.007 259.449 343.189 259.252 343.3L255.692 345.307C255.495 345.419 255.171 345.419 254.973 345.308L251.436 343.328Z" fill="#1A1A1A"/>
<path d="M180.382 298.958C180.58 298.848 180.903 298.848 181.1 298.958L186.745 302.143C186.942 302.255 186.942 302.436 186.745 302.547L183.222 304.535C183.024 304.646 182.701 304.646 182.503 304.535L176.859 301.351C176.662 301.239 176.662 301.057 176.859 300.946L180.382 298.958Z" fill="#4D4D4D"/>
<path d="M180.382 298.82C180.58 298.709 180.903 298.709 181.1 298.82L186.745 302.004C186.942 302.116 186.942 302.298 186.745 302.409L183.222 304.397C183.024 304.509 182.701 304.509 182.503 304.397L176.859 301.213C176.662 301.101 176.662 300.919 176.859 300.808L180.382 298.82Z" fill="#1A1A1A"/>
<path d="M267.353 340.857C267.551 340.745 267.874 340.745 268.071 340.857L273.716 344.04C273.913 344.152 273.913 344.334 273.716 344.445L270.193 346.433C269.995 346.545 269.672 346.545 269.474 346.433L263.829 343.249C263.632 343.138 263.632 342.955 263.829 342.844L267.353 340.857Z" fill="#4D4D4D"/>
<path d="M267.353 340.717C267.551 340.606 267.874 340.606 268.071 340.717L273.716 343.901C273.913 344.013 273.913 344.195 273.716 344.305L270.193 346.294C269.995 346.405 269.672 346.405 269.474 346.294L263.829 343.11C263.632 342.998 263.632 342.816 263.829 342.705L267.353 340.717Z" fill="#1A1A1A"/>
<path d="M261.001 344.446C261.199 344.334 261.522 344.334 261.72 344.446L267.365 347.63C267.562 347.741 267.562 347.924 267.365 348.035L263.842 350.023C263.644 350.134 263.321 350.134 263.123 350.023L257.478 346.838C257.281 346.727 257.281 346.545 257.478 346.434L261.001 344.446Z" fill="#4D4D4D"/>
<path d="M261.001 344.307C261.199 344.196 261.522 344.196 261.72 344.307L267.365 347.491C267.562 347.602 267.562 347.785 267.365 347.896L263.842 349.884C263.644 349.996 263.321 349.996 263.123 349.884L257.478 346.7C257.281 346.589 257.281 346.406 257.478 346.294L261.001 344.307Z" fill="#1A1A1A"/>
<path d="M173.96 302.634C174.157 302.522 174.481 302.522 174.678 302.634L184.565 308.21C184.762 308.322 184.762 308.504 184.565 308.615L181.04 310.603C180.844 310.714 180.52 310.714 180.322 310.603L170.395 305.049C170.197 304.938 170.197 304.757 170.394 304.646L173.96 302.634Z" fill="#4D4D4D"/>
<path d="M173.96 302.494C174.157 302.383 174.481 302.383 174.678 302.494L184.565 308.071C184.762 308.182 184.762 308.365 184.565 308.476L181.04 310.463C180.844 310.575 180.52 310.576 180.322 310.465L170.395 304.911C170.197 304.8 170.197 304.618 170.394 304.507L173.96 302.494Z" fill="#1A1A1A"/>
<path d="M250.259 345.684C250.456 345.573 250.78 345.573 250.977 345.684L260.863 351.261C261.06 351.372 261.06 351.555 260.863 351.666L257.34 353.653C257.142 353.765 256.819 353.765 256.621 353.654L246.693 348.1C246.496 347.989 246.496 347.807 246.693 347.695L250.259 345.684Z" fill="#4D4D4D"/>
<path d="M250.259 345.545C250.456 345.433 250.78 345.433 250.977 345.545L260.863 351.121C261.06 351.233 261.06 351.416 260.863 351.526L257.34 353.514C257.142 353.626 256.819 353.626 256.621 353.515L246.693 347.96C246.496 347.85 246.496 347.668 246.693 347.556L250.259 345.545Z" fill="#1A1A1A"/>
<path d="M189.523 322.959C189.326 322.847 189.326 322.664 189.523 322.554L193.046 320.566C193.244 320.454 193.567 320.454 193.764 320.566L222.738 336.909C222.935 337.021 222.935 337.204 222.738 337.314L219.212 339.3C219.014 339.412 218.691 339.412 218.494 339.3L189.523 322.959Z" fill="#4D4D4D"/>
<path d="M189.523 322.833C189.326 322.721 189.326 322.539 189.523 322.428L193.046 320.44C193.244 320.329 193.567 320.329 193.764 320.44L222.738 336.784C222.935 336.896 222.935 337.078 222.738 337.189L219.212 339.175C219.014 339.287 218.691 339.287 218.494 339.175L189.523 322.833Z" fill="#1A1A1A"/>
<path d="M318.729 367.497C318.729 367.497 328.961 362.924 341.336 354.744C341.336 354.744 331.029 350.999 318.729 367.497Z" fill="#CCCCCC"/>
<path d="M326.213 344.405C322.167 344.809 319.506 345.73 311.166 350.435C302.824 355.14 303.527 358.922 303.527 358.922C303.527 358.922 302.877 362.821 307.385 365.364C307.385 365.364 314.555 369.851 318.728 367.497C322.901 365.143 330.691 355.631 341.336 354.744C341.336 354.744 346.026 353.037 337.633 348.302C337.633 348.302 331.376 343.888 326.213 344.405Z" fill="#F2F2F2"/>
<path d="M314.706 360.117C314.706 360.815 313.989 361.381 313.104 361.381C312.219 361.381 311.502 360.815 311.502 360.117C311.502 359.419 312.219 358.852 313.104 358.852C313.989 358.853 314.706 359.419 314.706 360.117Z" fill="#CCCCCC"/>
<path d="M211.009 171.665V148.317L148.922 183.339V206.687L211.009 171.665Z" fill="#F30078"/>
<path d="M148.922 183.339L143.748 180.42L205.308 145.1L211.01 148.317L148.922 183.339Z" fill="#F361A9"/>
<path d="M143.748 180.42V203.769L148.922 206.687V183.339L143.748 180.42Z" fill="#96005D"/>
<path d="M335.188 159.991V124.968L366.231 142.479V177.502L335.188 159.991Z" fill="#8CC63F"/>
<path d="M335.188 124.968L339.718 122.413L370.525 140.057L366.231 142.479L335.188 124.968Z" fill="#BAEB7A"/>
<path d="M370.524 140.057V175.08L366.23 177.502V142.479L370.524 140.057Z" fill="#67912F"/>
<path d="M402.448 325.871V290.849L371.404 308.36V343.382L402.448 325.871Z" fill="#3ACAFF"/>
<path d="M402.447 290.849L397.916 288.293L367.109 305.937L371.403 308.36L402.447 290.849Z" fill="#7DDCFF"/>
<path d="M367.109 305.937V340.96L371.403 343.381V308.36L367.109 305.937Z" fill="#0B4FE8"/>
<path d="M359.231 152.496C353.145 145.097 346.371 142.037 342.695 143.98L341.396 141.839C345.674 139.585 353.603 142.884 361.124 151.477L359.231 152.496ZM358.286 153.007L356.387 154.03C352.404 148.695 347.564 146.224 344.916 147.635L343.398 145.134C346.748 143.36 352.905 146.257 358.286 153.007ZM355.437 154.543L353.533 155.57C351.583 152.681 348.976 151.175 347.532 151.948L345.737 148.991C348.008 147.781 352.139 149.98 355.437 154.543ZM350.409 153.864C352.011 154.834 353.553 157.185 353.789 159.157C354.04 161.243 352.736 161.952 350.955 160.694C349.265 159.502 347.896 157.052 347.821 155.254C347.75 153.545 348.882 152.938 350.409 153.864Z" fill="white"/>
<path d="M280.907 372.55L281.338 373.53L274.612 374.993L269.111 375.046L271.858 373.478L273.922 374.066L280.038 369.096V362.464L271.508 363.282L266.161 364.209L261.443 370.508L261.457 370.512C258.922 371.817 257.366 373.543 257.366 375.44C257.366 376.613 257.969 377.716 259.016 378.698L233.755 393.587L233.91 392.18L226.21 393.117L226.61 398.437C226.428 398.762 226.279 399.101 226.21 399.462C226.027 400.418 226.267 401.377 226.89 402.163C227.681 403.164 228.961 403.741 230.359 403.741C230.465 403.741 230.573 403.738 230.682 403.731C231.418 403.684 232.135 403.473 232.755 403.121L267.538 383.412C268.004 383.149 268.403 382.836 268.734 382.491C270.145 382.683 271.633 382.79 273.177 382.79C281.434 382.79 288.196 379.86 288.927 376.111L288.999 376.089V369.096L280.907 372.55Z" fill="#9E3B18"/>
<path d="M285.792 364.647L273.705 371.532L269.111 368.702L280.038 362.463C277.959 361.999 275.63 361.736 273.177 361.736C264.443 361.736 257.366 365.032 257.366 369.096C257.366 370.268 257.969 371.371 259.016 372.353L228.077 390.59C227.087 391.173 226.407 392.094 226.21 393.116C226.027 394.073 226.267 395.032 226.89 395.819C227.681 396.819 228.961 397.396 230.359 397.396C230.465 397.396 230.573 397.393 230.682 397.385C231.418 397.338 232.135 397.128 232.755 396.775L267.538 377.068C268.004 376.804 268.403 376.491 268.734 376.146C270.145 376.338 271.633 376.446 273.177 376.446C281.921 376.446 288.999 373.159 288.999 369.096C288.999 367.428 287.809 365.891 285.792 364.647Z" fill="#F15A24"/>
<path d="M200.663 270.896L149.053 300.081L107.531 276.733L159.271 247.547L200.663 270.896Z" fill="#323868"/>
<path d="M200.663 264.834L149.053 294.02L107.531 270.671L159.271 241.486L200.663 264.834Z" fill="white"/>
<path d="M149.053 294.02V297.162L200.663 267.978V264.834L149.053 294.02Z" fill="#999999"/>
<path d="M107.531 270.671V273.815L149.053 297.162V294.02L107.531 270.671Z" fill="#CCCCCC"/>
<path d="M165.852 251.255L182.24 260.495L176.776 263.578L160.391 254.335L165.852 251.255Z" fill="#E6E6E6"/>
<path d="M167.135 268.513C167.138 268.414 167.157 268.318 167.157 268.218C167.157 268.119 167.139 268.023 167.135 267.925V261.117H162.446C159.687 259.41 155.943 258.355 151.81 258.355C147.678 258.355 143.935 259.41 141.175 261.117H136.463V268.753H136.506C136.941 273.95 143.616 278.081 151.81 278.081C160.005 278.081 166.68 273.95 167.115 268.753H167.135V268.513Z" fill="#0071BC"/>
<path d="M167.156 261.119C167.156 266.568 160.285 270.976 151.809 270.976C143.334 270.976 136.463 266.568 136.463 261.119C136.463 258.773 137.735 256.62 139.867 254.921C142.683 252.676 146.987 251.251 151.809 251.251C152.626 251.251 153.423 251.292 154.21 251.372C161.547 252.111 167.156 256.195 167.156 261.119Z" fill="#39B54A"/>
<path d="M154.21 251.372L151.809 261.118L139.867 254.92C142.682 252.675 146.987 251.251 151.809 251.251C152.627 251.252 153.423 251.292 154.21 251.372Z" fill="#ED1C24"/>
<path d="M117.881 270.854V266.832L121.468 268.856V272.852L117.881 270.854Z" fill="#ED1C24"/>
<path d="M117.881 266.833L121.468 264.834L125.01 266.833L121.468 268.856L117.881 266.833Z" fill="#29ABE2"/>
<path d="M125.009 266.832V270.854L121.467 272.852V268.856L125.009 266.832Z" fill="#F7931E"/>
<path d="M123.605 274.139V270.118L127.193 272.141V276.138L123.605 274.139Z" fill="#ED1C24"/>
<path d="M123.605 270.118L127.193 268.12L130.735 270.118L127.193 272.141L123.605 270.118Z" fill="#29ABE2"/>
<path d="M130.736 270.118V274.139L127.193 276.138V272.141L130.736 270.118Z" fill="#F7931E"/>
<path d="M133.671 325.184C121.914 325.184 112.383 330.846 112.383 337.831C112.383 344.815 121.914 350.477 133.671 350.477C145.429 350.477 154.96 344.815 154.96 337.831C154.96 330.846 145.429 325.184 133.671 325.184ZM133.671 345.371C126.661 345.371 120.978 341.996 120.978 337.831C120.978 333.667 126.661 330.29 133.671 330.29C140.682 330.29 146.364 333.666 146.364 337.831C146.364 341.995 140.682 345.371 133.671 345.371Z" fill="white"/>
<path d="M157.154 351.41L157.157 351.402L157.119 351.381C156.925 351.228 156.715 351.096 156.473 351.014C156.461 351.01 156.449 351.01 156.436 351.006L151.346 348.217C151.165 348.081 150.97 347.963 150.747 347.889C149.384 347.43 147.808 348.398 147.228 350.047C146.732 351.456 147.128 352.901 148.102 353.581L148.102 353.583L148.115 353.591C148.2 353.65 148.296 353.695 148.39 353.741L153.854 356.727C153.92 356.772 153.994 356.804 154.064 356.842L154.147 356.887L154.15 356.883C154.224 356.918 154.293 356.963 154.372 356.989C155.735 357.448 157.312 356.481 157.893 354.831C158.363 353.492 158.024 352.126 157.154 351.41Z" fill="#2E3192"/>
<path d="M178.048 362.723L178.052 362.713L177.992 362.677C177.901 362.614 177.804 362.562 177.705 362.509L157.635 350.74C157.374 350.521 157.086 350.335 156.752 350.223C155.028 349.644 153.034 350.866 152.3 352.953C151.565 355.04 152.369 357.201 154.093 357.78L173.749 369.349C174.012 369.571 174.302 369.76 174.64 369.872C176.365 370.451 178.359 369.23 179.093 367.143C179.71 365.392 179.232 363.6 178.048 362.723Z" fill="#1A1A1A"/>
<path d="M379.568 324.42L384.581 323.345L384.918 325.605L378.256 326.94L377.754 324.308L383.434 315.667L383.806 318.155L379.568 324.42Z" fill="white"/>
<path d="M385.369 328.906L387.43 307.013L389.577 305.325L387.3 327.397L385.369 328.906Z" fill="white"/>
<path d="M394.69 312.389L389.719 313.335L389.434 310.794L396.154 309.719L396.369 312.592L390.583 321.026L390.319 318.681L394.69 312.389Z" fill="white"/>
<path d="M159.038 193.972L158.081 188.37L157.411 194.825L156.274 195.421L154.656 187.501L155.822 186.87L156.823 192.805L157.495 185.966L158.574 185.382L159.586 191.344L160.27 184.466L161.411 183.85L160.182 193.374L159.038 193.972Z" fill="white"/>
<path d="M167.351 189.614L166.358 183.938L165.673 190.494L164.501 191.108L162.824 183.085L164.027 182.435L165.064 188.45L165.751 181.504L166.864 180.902L167.914 186.944L168.612 179.957L169.788 179.322L168.53 188.997L167.351 189.614Z" fill="white"/>
<path d="M175.924 185.12L174.893 179.366L174.192 186.027L172.983 186.661L171.246 178.532L172.485 177.862L173.562 183.957L174.264 176.9L175.412 176.28L176.503 182.402L177.215 175.305L178.429 174.649L177.14 184.482L175.924 185.12Z" fill="white"/>
<path d="M179.966 182.003C179.984 182.65 179.761 183.213 179.432 183.385C179.103 183.558 178.863 183.238 178.845 182.593C178.827 181.961 179.043 181.401 179.37 181.227C179.7 181.054 179.948 181.369 179.966 182.003Z" fill="white"/>
<path opacity="0.25" d="M346.61 452.637C353.392 452.637 358.889 449.557 358.889 445.758C358.889 441.958 353.392 438.878 346.61 438.878C339.828 438.878 334.33 441.958 334.33 445.758C334.33 449.557 339.828 452.637 346.61 452.637Z" fill="#241033"/>
<path d="M350.971 328.636L348.078 322.291C348.078 322.291 347.147 319.773 347.746 319.646C348.345 319.521 349.281 319.443 349.894 321.172C349.894 321.172 350.219 317.618 350.147 316.527C350.076 315.435 350.053 312.814 350.676 312.857C351.301 312.899 351.88 313.005 351.951 314.855C352.021 316.703 352.789 318.961 353.45 319.345C354.112 319.731 355.533 320.839 355.687 321.517C355.842 322.196 355.386 327.775 355.386 327.775L350.971 328.636Z" fill="#FCD3B7"/>
<path d="M336.602 399.631C336.602 399.631 338.748 419.793 339.06 422.771C339.372 425.747 343.405 445.717 343.405 445.717C343.405 445.717 344.485 445.888 346.818 445.528C346.818 445.528 346.119 421.731 346.393 420.231C346.666 418.732 347.559 407.741 347.559 407.741L351.844 442.444C351.844 442.444 353.482 443.507 355.881 441.897C355.881 441.897 355.98 409.09 355.786 406.251C355.593 403.411 355.991 395.539 355.593 391.193L336.602 399.631Z" fill="#13041F"/>
<path d="M333.71 401.34L332.855 404.465C332.855 404.465 333.845 406.245 334.426 406.111C335.007 405.977 337.691 406.773 338.133 406.111C338.576 405.448 337.205 401.087 337.205 401.087L334.611 400.776L333.71 401.34Z" fill="#FCD3B7"/>
<path d="M339.13 363.18C339.13 363.18 334.27 366.874 333.72 368.359C333.17 369.844 331.734 375.917 332.385 384.689C333.035 393.46 333.711 401.34 333.711 401.34C333.711 401.34 335.833 401.902 337.205 401.087L337.711 399.249C337.711 399.249 351.306 399.021 355.592 391.194C355.592 391.194 355.813 368.253 355.575 363.396C355.575 363.396 357.988 346.554 358.015 345.522C358.04 344.49 355.866 329.82 355.71 327.383C355.71 327.383 352.231 325.883 350.972 328.636C350.972 328.636 352.078 338.484 351.761 340.482C351.444 342.482 348.397 359.153 348.397 359.153L339.13 363.18Z" fill="#8CC63F"/>
<path d="M344.037 444.372C344.037 444.372 343.262 445.584 342.379 445.338C341.497 445.092 339.047 443.356 337.94 443.311C336.833 443.266 336.701 447.98 339.48 447.861C342.26 447.743 343.724 447.642 344.044 447.843L344.028 448.47L346.219 448.823C346.219 448.823 346.884 447.842 346.82 445.529L344.037 444.372Z" fill="#13041F"/>
<path d="M351.982 441.977C351.982 441.977 351.394 442.636 350.269 441.977C349.146 441.316 347.489 440.655 346.925 441.233C346.361 441.811 346.075 445.35 350.397 445.301C350.397 445.301 351.283 445.454 353.582 444.979V445.923C353.582 445.923 354.694 445.993 355.88 445.367C355.88 445.367 356.259 443.307 355.906 441.094L351.982 441.977Z" fill="#13041F"/>
<path d="M334.98 348.422C334.98 348.422 336.017 350.239 335.874 351.29C335.73 352.343 335.263 355.764 336.146 357.259C337.029 358.752 337.179 359.866 338.977 360.893L341.499 361.334C341.499 361.334 344.85 360.244 343.426 352.314C343.426 352.314 341.223 345.487 334.98 348.422Z" fill="#FCD3B7"/>
<path d="M337.366 343.249C337.366 343.249 334.626 343.644 334.425 344.99C334.223 346.337 334.584 348.367 335.624 349.263C336.665 350.16 336.771 352.007 337.367 352.034C337.963 352.061 338.544 351.162 338.975 352.034C339.405 352.906 339.811 355.247 338.598 355.167C337.386 355.089 336.909 356.598 337.327 357.675C337.746 358.751 340.2 361.563 338.865 363.961C337.53 366.358 336.008 371.4 336.985 374.937C337.963 378.473 339.841 383.188 351.46 379.566C361.572 376.413 359.012 367.603 355.62 364.74C352.226 361.879 348.884 358.67 349.119 355.999C349.352 353.329 352.182 345.098 346.622 341.043C341.062 336.988 338.141 341.622 337.366 343.249Z" fill="#251404"/>
<path d="M338.541 395.729C338.541 395.729 339.999 384.107 339.378 380.585C339.378 380.585 341.424 384.46 338.541 395.729Z" fill="#6FAB20"/>
<path opacity="0.25" d="M295.629 148.773L290.715 151.418C287.411 156.549 282.886 152.213 280.292 150.286C277.696 148.359 278.094 146.238 278.094 146.238L282.609 141.555L295.629 148.773Z" fill="#241033"/>
<path d="M278.371 112.417C278.371 112.417 278.983 132.724 280.393 141.411C280.393 141.411 281.087 143.428 284.691 143.223L284.783 120.885L287.339 144.324C287.339 144.324 287.369 146.795 291.398 146.121L294.109 113.663L278.371 112.417Z" fill="#13041F"/>
<path d="M281.244 84.5486C281.244 84.5486 279.013 84.8829 278.084 88.8062C277.155 92.7286 276.614 101.764 276.614 101.764L271.263 101.41L271.096 103.265L279.85 107.344L281.244 84.5486Z" fill="#ED1E79"/>
<path d="M281.244 84.5486C281.244 84.5486 279.013 84.8829 278.084 88.8062C277.155 92.7286 276.614 101.764 276.614 101.764L271.263 101.41L271.096 103.265L279.85 107.344L281.244 84.5486Z" fill="#CC1A68"/>
<path d="M283.793 84.683C283.793 84.683 293.55 85.823 295.315 89.1966C297.079 92.5703 296.53 104.936 296.53 104.936L295.298 115.965C295.298 115.965 285.696 117.323 277.479 113.267L277.734 94.5209C277.734 94.5209 278.845 86.2976 281.245 84.5476L283.793 84.683Z" fill="#ED1E79"/>
<path d="M292.446 89.5515C292.446 89.5515 290.112 92.9961 291.346 101.603L291.717 106.366L293.916 106.956L294.865 100.366L294.108 89.841L292.446 89.5515Z" fill="#CC1A68"/>
<path d="M291.208 86.584C288.934 88.6717 285.611 87.5398 285.611 87.5398L285.309 85.9423L284.928 83.9639L288.751 81.6227L289.755 81.0061L291.208 86.584Z" fill="#FCD3B7"/>
<path d="M289.392 82.4258C289.392 82.4258 287.964 85.3672 287.247 85.6119C286.754 85.7896 286.088 86.2545 285.309 85.9421L284.928 83.9638L288.751 81.6226L289.392 82.4258Z" fill="#EDA36F"/>
<path d="M281.774 74.2927C281.774 74.2927 281.314 78.9995 282.228 81.0364C283.141 83.0733 285.041 84.9611 286.12 84.6488C287.2 84.3357 289.503 83.0733 290.794 80.2918L291.647 77.0057C291.647 77.0057 292.13 75.5334 291.346 72.9851C291.346 72.9851 290.013 70.1926 286.073 70.8452C286.073 70.8452 281.96 72.1264 281.774 74.2927Z" fill="#FCD3B7"/>
<path d="M279.328 72.0682C279.328 72.0682 280.242 75.1354 282.32 75.3213C284.4 75.5072 285.265 75.7051 285.265 75.7051L287.216 75.4109L287.873 77.3768L288.695 77.0945C288.695 77.0945 288.242 75.0323 288.917 74.7956C289.591 74.5581 290.538 75.7938 290.549 77.0075C290.564 78.4324 290.461 79.5853 289.377 79.5548L289.755 81.0061L289.997 81.9342C289.997 81.9342 291.69 81.7221 292.058 81.339C293.037 80.3189 293.072 76.966 292.954 75.8149C292.835 74.6646 291.594 68.0012 288.917 66.7899C288.917 66.7899 286.169 65.8459 284.204 67.8254C284.204 67.8236 279.556 69.263 279.328 72.0682Z" fill="#251404"/>
<path d="M280.393 141.411C280.393 141.411 279.169 142.858 277.764 143.545C276.358 144.232 275.705 145.638 275.942 146.81C276.181 147.983 280.214 147.375 281.576 146.276L283.566 144.597V145.518L284.606 145.105L284.689 143.222L283.323 141.152L280.393 141.411Z" fill="#13041F"/>
<path d="M287.637 144.851C287.637 144.851 287.209 146.066 286.239 146.854C285.27 147.642 283.355 149.734 283.567 150.54C283.779 151.347 285.664 152.825 287.132 151.536C288.6 150.247 289.572 149.558 290.09 148.32L290.255 148.994L291.488 147.935L291.148 145.519L287.637 144.851Z" fill="#13041F"/>
<path d="M281.97 107.328C282.143 106.425 282.199 105.471 282.14 104.5L284.166 103.399L283.711 101.458L283.243 99.466L280.956 99.7628C280.532 98.8364 280.003 97.9761 279.384 97.225L279.985 94.1597L278.603 93.1583L277.241 92.1707L275.817 92.7742L276.131 94.2241L276.348 94.198L276.093 94.7778C275.357 94.516 274.634 94.428 273.947 94.503L272.806 91.7426L272.626 91.8462L272.664 91.741L271.397 92.3493L271.436 92.5336L270.515 93.0661L271.085 95.9774C270.61 96.4813 270.206 97.1035 269.888 97.8244L268.18 96.938L266.84 97.5023L267.913 98.4042L267.897 98.4833L267.627 99.9659L269.103 101.581C269.083 102.422 269.151 103.27 269.298 104.1L268.084 104.975L268.592 106.447L269.091 107.89L270.557 107.858C270.921 108.565 271.348 109.226 271.83 109.82L271.592 111.735L272.449 112.468L271.862 112.733L272.365 113.874L273.572 113.433L274.388 111.984C274.982 112.294 275.582 112.492 276.172 112.576L276.845 114.106L276.704 114.092L276.877 114.18L277.094 114.673L277.687 114.591L278.097 114.798L279.317 114.362L278.967 112.077C279.349 111.866 279.711 111.59 280.046 111.254L281.141 112.37L282.396 111.917L283.032 110.583L283.698 109.186L281.97 107.328ZM278.331 106.823C277.564 108.875 275.634 109.335 274.004 107.989C272.401 106.667 271.54 103.973 272.084 101.83C272.664 99.5418 274.62 98.6921 276.449 100.103C278.316 101.542 279.149 104.626 278.331 106.823Z" fill="#1579B0"/>
<path d="M280.675 107.814C280.838 106.918 280.885 105.971 280.818 105.007L282.825 103.915L282.352 101.988L281.868 100.012L279.593 100.308C279.161 99.3871 278.626 98.5357 278.004 97.7888L278.572 94.7478L277.185 93.7538L275.819 92.7752L274.702 95.3611C273.968 95.1009 273.246 95.0145 272.563 95.0879L271.401 92.3503L270.242 93.0207L269.132 93.6616L269.727 96.55C269.26 97.0491 268.864 97.6664 268.554 98.3824L266.844 97.5025L266.577 99.0372L266.32 100.508L267.806 102.111C267.794 102.945 267.87 103.787 268.023 104.609L266.821 105.478L267.341 106.939L267.851 108.372L269.312 108.34C269.681 109.042 270.111 109.698 270.598 110.288L270.38 112.189L271.368 113.028L272.368 113.876L273.167 112.437C273.761 112.745 274.361 112.942 274.95 113.025L275.888 115.107L276.973 114.955L278.1 114.799L277.729 112.529C278.27 112.231 278.768 111.807 279.204 111.259L281.144 112.37L281.765 111.046L282.415 109.659L280.675 107.814ZM272.747 108.471C271.139 107.159 270.254 104.484 270.776 102.357C271.332 100.087 273.272 99.2444 275.108 100.644C276.981 102.072 277.841 105.134 277.045 107.314C276.301 109.35 274.384 109.806 272.747 108.471Z" fill="#1CA0E8"/>
<path d="M267.781 99.7905C267.781 99.7905 266.943 100.248 266.761 101.155C266.58 102.062 266.814 103.671 267.087 104.325C267.361 104.979 268.549 105.274 268.909 105.09C269.267 104.907 269.494 102.337 269.207 101.068C268.921 99.797 268.395 99.4203 267.781 99.7905Z" fill="#FCD3B7"/>
<path d="M285.744 104.347L283.684 103.118C283.684 103.118 282.012 101.012 281.443 101.111C280.875 101.208 280.479 102.682 281.29 103.283C282.1 103.884 278.784 102.039 277.486 103.525C276.189 105.011 277.122 107.218 279.607 107.822C282.093 108.426 285.809 108.259 285.809 108.259L285.744 104.347Z" fill="#FCD3B7"/>
<path d="M292.289 90.2512C292.289 90.2512 292.522 87.808 294.434 88.1432C296.346 88.4775 298.391 97.6198 298.042 102.752C297.693 107.884 296.788 110.976 296.319 110.985C295.85 110.994 284.18 108.312 284.18 108.312C284.18 108.312 284.929 105.938 284.934 103.718L292.917 105.804C292.917 105.804 291.027 98.3301 292.289 90.2512Z" fill="#ED1E79"/>
</g>
<defs>
<linearGradient id="paint0_linear_1221_305" x1="245.5" y1="-142.324" x2="245.5" y2="501.141" gradientUnits="userSpaceOnUse">
<stop offset="0.1106" stop-color="#3083DC"/>
<stop offset="0.4141" stop-color="#5B82CF"/>
<stop offset="0.457082" stop-color="#597DCD"/>
<stop offset="0.7895" stop-color="#4659BA"/>
<stop offset="0.9829" stop-color="#3083DC"/>
</linearGradient>
<linearGradient id="paint1_linear_1221_305" x1="222.148" y1="170.656" x2="351.261" y2="170.656" gradientUnits="userSpaceOnUse">
<stop offset="0.2254"/>
<stop offset="0.8663" stop-color="#333333"/>
</linearGradient>
</defs>
</svg>
