<svg width="908" height="908" viewBox="0 0 908 908" fill="none" xmlns="http://www.w3.org/2000/svg">
<path d="M247.533 229.49C213.172 229.49 185.318 201.636 185.318 167.275C185.318 132.915 213.172 105.061 247.533 105.061C281.893 105.061 309.747 132.915 309.747 167.275C309.749 201.636 281.893 229.49 247.533 229.49Z" fill="#EBEBEB"/>
<path d="M232.198 153.406H219.322V195.004H232.198V153.406Z" fill="white"/>
<path d="M225.698 147.96C229.904 147.96 233.313 144.521 233.313 140.282C233.313 136.044 229.904 132.608 225.698 132.608C221.493 132.608 218.084 136.046 218.084 140.282C218.084 144.521 221.491 147.96 225.698 147.96Z" fill="white"/>
<path d="M252.78 173.168C252.78 167.321 255.471 163.836 260.625 163.836C265.36 163.836 267.635 167.179 267.635 173.168C267.635 179.159 267.635 195.004 267.635 195.004H280.451C280.451 195.004 280.451 179.809 280.451 168.666C280.451 157.525 274.135 152.137 265.316 152.137C256.492 152.137 252.78 159.011 252.78 159.011V153.408H240.428V195.006H252.78C252.78 195.006 252.78 179.577 252.78 173.168Z" fill="white"/>
<path d="M330.911 43.377L339.432 58.9546L355.007 67.4735L339.432 75.9923L330.911 91.57L322.392 75.9923L306.814 67.4735L322.392 58.9546L330.911 43.377Z" fill="#F5F5F5"/>
<path d="M686.211 465.392L692.602 477.074L704.284 483.463L692.602 489.853L686.211 501.536L679.823 489.853L668.139 483.463L679.823 477.074L686.211 465.392Z" fill="#EBEBEB"/>
<path d="M704.285 407.707L707.167 412.978L712.439 415.86L707.167 418.744L704.285 424.014L701.403 418.744L696.131 415.86L701.403 412.978L704.285 407.707Z" fill="#E0E0E0"/>
<path d="M270.064 49.2354L272.946 54.5072L278.216 57.3892L272.946 60.273L270.064 65.543L267.18 60.273L261.908 57.3892L267.18 54.5072L270.064 49.2354Z" fill="#E0E0E0"/>
<path d="M125.546 538.912C132.045 536.087 136.607 529.288 136.542 521.344C136.449 510.941 128.468 502.572 118.71 502.654C108.958 502.734 101.124 511.235 101.215 521.639C101.286 529.654 106.055 536.414 112.697 539.08C85.5701 543.527 87.1863 573.051 87.1863 573.051L151.464 572.516C151.464 572.516 152.542 542.632 125.546 538.912Z" fill="#E0E0E0"/>
<path d="M742.082 733.551C741.172 728.928 736.611 725.31 731.902 725.481C727.235 725.65 722.985 729.518 722.35 734.14C721.674 729.524 717.392 725.694 712.723 725.566C708.012 725.439 703.483 729.095 702.615 733.726C701.983 737.098 703.14 740.61 705.039 743.469C706.937 746.327 709.532 748.644 712.095 750.925C715.687 754.121 719.006 757.127 722.597 760.323C726.16 757.094 729.192 754.061 732.753 750.833C735.298 748.528 737.871 746.191 739.743 743.314C741.617 740.44 742.743 736.918 742.082 733.551Z" fill="#EBEBEB"/>
<path d="M783.945 350.76L790.833 349.395L801.709 325.467L798.984 311.718C798.984 311.718 809.5 308.952 811.817 327.203C814.135 345.454 814.581 340.602 814.581 340.602C814.581 340.602 837.203 336.205 839.471 337.798C841.12 338.953 846.191 361.284 848.842 373.415C850.177 379.522 847.547 385.969 842.134 388.548C841.365 388.916 840.57 389.198 839.766 389.358C834.129 390.476 804.412 391.604 804.412 391.604L792.515 393.963L783.945 350.76Z" fill="#E0E0E0"/>
<path d="M763.479 350.897L777.057 397.165L788.853 394.826L779.699 348.667L763.479 350.897Z" fill="#E0E0E0"/>
<path d="M714.474 332.6C677.828 350.423 633.673 335.165 615.849 298.519C598.025 261.874 613.285 217.718 649.93 199.894C686.575 182.072 730.731 197.33 748.555 233.975C766.377 270.622 751.119 314.776 714.474 332.6Z" fill="#E8505B"/>
<path d="M663.968 282.738C665.211 282.66 665.942 281.801 665.686 280.507C665.507 279.611 665.027 277.365 664.842 276.422C664.593 275.137 664.283 274.799 662.964 274.218C660.097 272.952 657.578 270.733 655.66 266.79C650.096 255.351 653.674 240.949 667.403 234.271C679.557 228.36 689.848 232.539 694.673 242.46C701.02 255.511 700.603 269.335 692.027 273.504C687.291 275.807 681.843 273.615 680.643 268.263C679.217 261.865 678.842 254.394 676.828 250.254C675.026 246.549 671.534 244.424 667.417 246.428C662.574 248.783 661.123 255.682 664.384 262.39C666.462 266.663 669.315 268.85 669.315 268.85C669.315 268.85 674.57 292.251 675.489 296.348C677.318 304.509 683.153 312.77 683.719 313.614C684.055 314.117 684.807 313.906 684.921 313.353C685.085 312.552 687.388 302.627 685.886 294.564C685.463 292.28 683.022 280.574 683.022 280.574C686.053 282.809 691.935 283.212 696.82 280.837C711.373 273.758 714.793 255.693 706.156 237.936C699.626 224.508 682.174 217.535 664.887 225.941C643.381 236.401 640.035 257.095 646.288 269.952C650.074 277.743 656.392 283.236 663.968 282.738Z" fill="white"/>
<path d="M788.168 540.723C761.914 530.692 748.763 501.276 758.796 475.022C768.828 448.768 798.243 435.617 824.497 445.65C850.751 455.682 863.903 485.097 853.871 511.351C843.838 537.605 814.422 550.755 788.168 540.723Z" fill="#E8505B"/>
<path fill-rule="evenodd" clip-rule="evenodd" d="M832.898 501.826C837.799 487.959 830.697 472.609 816.77 467.288C803.01 462.03 787.676 468.519 781.91 481.808C781.755 482.175 781.603 482.542 781.459 482.913C779.623 487.72 779.253 492.714 780.112 497.439L770.291 509.303L786.192 510.213C789.09 513.627 792.869 516.391 797.351 518.103C811.494 523.508 827.297 516.51 832.662 502.476C832.743 502.262 832.827 502.046 832.898 501.826ZM798.9 514.053C794.526 512.383 790.957 509.535 788.409 505.994L779.131 505.471L784.848 498.563C783.619 494.054 783.749 489.147 785.534 484.473C785.8 483.777 786.103 483.096 786.435 482.44C791.622 472.033 804.063 467.075 815.222 471.339C826.525 475.658 832.493 487.896 829.151 499.228C828.988 499.798 828.803 500.357 828.586 500.92C824.085 512.702 810.766 518.588 798.9 514.053Z" fill="white"/>
<path fill-rule="evenodd" clip-rule="evenodd" d="M816.836 502.309C816.32 501.755 813.816 499.068 813.318 498.645C812.824 498.209 812.441 497.953 811.783 498.416C811.126 498.879 809.379 499.818 808.863 500.088C808.331 500.366 807.954 500.277 807.438 499.721C806.933 499.171 805.155 497.751 803.573 494.7C802.344 492.348 801.852 489.826 801.73 489.065C801.608 488.304 802.061 488.094 802.491 487.901C802.889 487.723 803.394 487.409 803.855 487.173C803.98 487.097 804.089 487.028 804.196 486.96C804.427 486.788 804.618 486.614 804.875 486.368C805.251 486.032 805.28 485.631 805.244 485.261C805.208 484.89 805.121 481.34 805.07 479.893C805.03 478.449 804.421 478.463 804.049 478.322C803.69 478.184 803.294 477.964 802.874 477.804C802.455 477.644 801.712 477.539 800.898 477.942C800.085 478.345 797.889 479.237 796.718 482.306C796.444 483.025 796.3 483.795 796.231 484.551C796.028 486.986 796.703 489.318 796.823 489.723C796.979 490.249 798.525 498.283 803.944 503.224C809.383 508.146 809.699 507.32 810.892 507.652C812.08 507.995 815.179 507.574 816.253 506.308C817.335 505.06 817.811 503.813 817.754 503.49C817.7 503.176 817.339 502.859 816.836 502.309Z" fill="white"/>
<path d="M126.451 305.526C105.02 305.526 87.6465 288.152 87.6465 266.72C87.6465 245.289 105.02 227.915 126.451 227.915C147.881 227.915 165.255 245.289 165.255 266.72C165.257 288.152 147.883 305.526 126.451 305.526Z" fill="#E8505B"/>
<path d="M105.775 279.711C109.531 282.119 113.989 283.523 118.78 283.523C134.532 283.523 143.43 270.219 142.894 258.286C144.551 257.091 145.991 255.597 147.128 253.895C145.606 254.569 143.97 255.026 142.255 255.23C144.006 254.182 145.351 252.518 145.985 250.537C144.345 251.509 142.529 252.217 140.599 252.597C139.05 250.948 136.847 249.918 134.405 249.918C128.929 249.918 124.905 255.028 126.142 260.335C119.09 259.98 112.84 256.603 108.656 251.471C106.433 255.284 107.502 260.273 111.282 262.799C109.89 262.755 108.581 262.372 107.437 261.737C107.346 265.668 110.161 269.344 114.242 270.163C113.047 270.488 111.739 270.56 110.412 270.306C111.489 273.679 114.623 276.128 118.335 276.199C114.77 278.994 110.275 280.242 105.775 279.711Z" fill="white"/>
<path d="M196.187 740.225C160.279 748.779 124.237 726.605 115.682 690.697C107.129 654.79 129.302 618.748 165.208 610.192C201.116 601.639 237.158 623.812 245.711 659.72C254.268 695.63 232.095 731.672 196.187 740.225Z" fill="#455A64"/>
<path d="M173.736 645.984C183.255 643.716 184.39 643.485 188.19 642.76C191.704 642.092 193.728 642.223 195.103 642.412C196.921 642.662 198.292 643.151 199.837 644.103C201.383 645.052 202.438 646.057 203.48 647.566C204.268 648.706 205.298 650.455 206.286 653.894C207.352 657.612 207.659 658.73 209.925 668.25C212.193 677.768 212.424 678.904 213.149 682.703C213.817 686.217 213.686 688.242 213.497 689.615C213.247 691.433 212.756 692.804 211.807 694.349C210.857 695.895 209.853 696.95 208.344 697.992C207.203 698.78 205.454 699.81 202.017 700.798C198.299 701.864 197.181 702.169 187.661 704.435C178.142 706.704 177.007 706.936 173.208 707.661C169.694 708.331 167.669 708.198 166.296 708.009C164.478 707.759 163.107 707.27 161.562 706.32C160.018 705.369 158.963 704.367 157.919 702.857C157.132 701.717 156.101 699.968 155.115 696.53C154.049 692.811 153.744 691.693 151.475 682.175C149.207 672.656 148.975 671.52 148.252 667.721C147.582 664.207 147.715 662.181 147.903 660.808C148.154 658.99 148.644 657.619 149.594 656.075C150.546 654.53 151.548 653.475 153.059 652.433C154.199 651.644 155.948 650.615 159.386 649.627C163.098 648.557 164.218 648.252 173.736 645.984ZM172.207 639.563C162.526 641.869 161.322 642.199 157.559 643.278C153.805 644.355 151.359 645.575 149.302 646.997C147.175 648.466 145.477 650.159 143.966 652.612C142.455 655.066 141.711 657.347 141.36 659.907C141.019 662.384 141.033 665.119 141.764 668.954C142.495 672.799 142.744 674.023 145.05 683.704C147.357 693.385 147.687 694.589 148.766 698.35C149.843 702.104 151.063 704.55 152.485 706.607C153.953 708.734 155.647 710.432 158.1 711.943C160.554 713.452 162.833 714.198 165.393 714.551C167.87 714.892 170.605 714.878 174.441 714.146C178.285 713.414 179.509 713.165 189.19 710.859C198.871 708.552 200.075 708.222 203.836 707.143C207.59 706.066 210.036 704.846 212.095 703.424C214.224 701.955 215.92 700.262 217.431 697.809C218.94 695.354 219.686 693.076 220.039 690.516C220.378 688.037 220.365 685.304 219.634 681.469C218.9 677.626 218.651 676.402 216.345 666.721C214.038 657.04 213.708 655.836 212.629 652.073C211.552 648.321 210.332 645.873 208.91 643.816C207.441 641.689 205.748 639.989 203.293 638.48C200.84 636.971 198.561 636.225 196 635.872C193.523 635.533 190.788 635.546 186.953 636.277C183.11 637.007 181.888 637.256 172.207 639.563Z" fill="white"/>
<path d="M176.338 656.905C166.229 659.313 159.985 669.463 162.393 679.573C164.801 689.682 174.951 695.926 185.061 693.518C195.17 691.11 201.414 680.962 199.006 670.852C196.596 660.739 186.448 654.495 176.338 656.905ZM183.53 687.093C176.967 688.656 170.38 684.603 168.817 678.042C167.253 671.479 171.306 664.892 177.869 663.328C184.432 661.765 191.019 665.816 192.583 672.381C194.144 678.942 190.093 685.531 183.53 687.093Z" fill="white"/>
<path d="M199.473 650.629C200.036 652.992 198.578 655.364 196.215 655.927C193.851 656.49 191.479 655.029 190.918 652.669C190.355 650.306 191.813 647.934 194.177 647.371C196.538 646.807 198.91 648.267 199.473 650.629Z" fill="white"/>
<path d="M702.441 681.403C685.228 681.403 671.273 667.449 671.273 650.235C671.273 633.021 685.228 619.067 702.441 619.067C719.655 619.067 733.609 633.021 733.609 650.235C733.609 667.447 719.655 681.403 702.441 681.403Z" fill="#455A64"/>
<path d="M697.69 669.074H705.278V650.073H710.571L711.136 643.712H705.278C705.278 643.712 705.278 641.337 705.278 640.089C705.278 638.589 705.579 637.997 707.03 637.997C708.198 637.997 711.136 637.997 711.136 637.997V631.394C711.136 631.394 706.807 631.394 705.882 631.394C700.236 631.394 697.69 633.88 697.69 638.64C697.69 642.786 697.69 643.712 697.69 643.712H693.744V650.153H697.69V669.074Z" fill="white"/>
<path d="M596.138 853.603L345.735 853.455C315.619 853.438 291.215 829.015 291.223 798.9L291.346 171.136C291.352 141.003 315.789 116.584 345.922 116.6L596.325 116.747C626.442 116.765 650.843 141.187 650.838 171.303L650.714 799.069C650.711 829.202 626.273 853.622 596.138 853.603Z" fill="#263238"/>
<path d="M596.061 138.951L547.512 138.924C541.002 138.92 535.721 144.436 535.723 151.24L535.719 160.046C535.719 166.852 530.438 172.367 523.929 172.364L429.298 172.307C422.787 172.304 417.51 166.783 417.512 159.977L417.514 151.171C417.514 144.365 412.236 138.844 405.726 138.84L388.652 138.83L346.159 138.806C325.056 138.795 307.942 155.896 307.936 177L307.816 789.744C307.813 810.839 324.903 827.942 345.994 827.954L595.898 828.1C616.999 828.112 634.115 811.011 634.121 789.907L634.241 177.162C634.242 156.067 617.154 138.964 596.061 138.951Z" fill="white"/>
<path d="M599.716 188.731C599.718 188.895 593.404 189.082 585.617 189.146C577.826 189.209 571.512 189.129 571.512 188.964C571.51 188.8 577.822 188.615 585.613 188.55C593.4 188.486 599.716 188.566 599.716 188.731Z" fill="#263238"/>
<path d="M599.777 195.948C599.778 196.112 593.464 196.299 585.677 196.362C577.886 196.426 571.572 196.346 571.572 196.181C571.57 196.017 577.883 195.832 585.673 195.767C593.46 195.703 599.775 195.783 599.777 195.948Z" fill="#263238"/>
<path d="M599.835 203.163C599.837 203.327 593.523 203.514 585.736 203.577C577.945 203.641 571.631 203.561 571.631 203.396C571.629 203.232 577.941 203.047 585.732 202.982C593.519 202.918 599.833 203 599.835 203.163Z" fill="#263238"/>
<path d="M334.179 210.202C334.193 210.187 334.446 210.173 334.918 210.153C335.501 210.133 336.174 210.111 336.973 210.086C338.913 210.04 341.45 209.979 344.563 209.904L344.352 210.118C344.325 208.435 344.296 206.597 344.263 204.616C344.274 203.594 344.176 202.627 344.276 201.447C344.481 200.268 345.53 199.228 346.822 199.108C348.046 199.084 349.122 199.028 350.448 199.09C351.816 199.257 352.978 200.572 352.938 202.021C352.967 204.587 352.998 207.267 353.029 210.048L352.676 209.701C355.751 209.67 358.953 209.637 362.25 209.603L361.887 209.973C361.853 206.118 361.818 202.13 361.78 198.044C361.771 197.025 361.762 196.012 361.755 195.006C361.751 194.069 361.181 193.442 360.409 192.743C358.992 191.346 357.596 189.97 356.223 188.617C354.852 187.264 353.504 185.935 352.186 184.633C351.527 183.983 350.875 183.338 350.23 182.7C349.558 182.052 349.03 181.382 348.251 181.222C347.495 181.019 346.662 181.18 346.053 181.642C345.474 182.132 344.855 182.826 344.272 183.394C343.093 184.584 341.947 185.74 340.836 186.859C338.675 189.104 336.425 191.154 334.789 193.092C334.099 194.163 334.357 195.472 334.308 196.666C334.306 197.851 334.302 198.977 334.3 200.04C334.288 202.108 334.277 203.92 334.268 205.473C334.251 206.862 334.239 208.008 334.229 208.949C334.211 209.752 334.197 210.184 334.179 210.202C334.16 210.22 334.139 209.824 334.113 209.051C334.088 208.126 334.055 206.997 334.017 205.629C333.981 204.064 333.941 202.237 333.894 200.15C333.874 199.068 333.852 197.92 333.83 196.711C333.821 196.099 333.812 195.471 333.801 194.828C333.795 194.149 333.972 193.446 334.329 192.825C336.1 190.655 338.214 188.733 340.391 186.423C341.493 185.294 342.63 184.13 343.8 182.931C344.414 182.328 344.917 181.729 345.647 181.101C346.413 180.512 347.464 180.302 348.423 180.554C349.442 180.779 350.105 181.615 350.722 182.197C351.371 182.831 352.024 183.474 352.687 184.122C354.011 185.421 355.362 186.745 356.737 188.094C358.112 189.445 359.512 190.818 360.93 192.211C361.266 192.567 361.671 192.868 362 193.369C362.31 193.847 362.486 194.41 362.501 194.984C362.51 195.995 362.519 197.012 362.528 198.037C362.559 202.123 362.59 206.111 362.619 209.966L362.623 210.335L362.256 210.336C358.956 210.358 355.756 210.378 352.682 210.398L352.331 210.4L352.33 210.051C352.315 207.271 352.3 204.591 352.288 202.025C352.328 200.868 351.429 199.847 350.354 199.7C349.253 199.642 347.953 199.68 346.882 199.689C345.852 199.775 344.993 200.601 344.817 201.551C344.724 202.513 344.795 203.635 344.775 204.611C344.775 206.594 344.777 208.431 344.777 210.115V210.331L344.566 210.329C341.401 210.307 338.822 210.289 336.85 210.275C336.069 210.262 335.41 210.249 334.84 210.24C334.391 210.227 334.166 210.217 334.179 210.202Z" fill="#263238"/>
<path d="M499.364 689.001C499.364 689.067 498.431 689.128 496.74 689.185C494.871 689.225 492.469 689.274 489.585 689.335C483.543 689.421 475.197 689.473 465.979 689.473C456.757 689.473 448.411 689.421 442.369 689.335C439.485 689.275 437.083 689.225 435.214 689.185C433.525 689.128 432.59 689.065 432.59 689.001C432.59 688.936 433.523 688.874 435.214 688.818C437.081 688.78 439.485 688.729 442.369 688.667C448.411 688.582 456.757 688.529 465.979 688.529C475.197 688.529 483.543 688.582 489.585 688.667C492.469 688.727 494.873 688.778 496.74 688.818C498.429 688.874 499.364 688.936 499.364 689.001Z" fill="#455A64"/>
<path d="M604.313 705.429C604.313 705.69 565.868 705.901 518.456 705.901C471.027 705.901 432.592 705.688 432.592 705.429C432.592 705.167 471.027 704.957 518.456 704.957C565.87 704.957 604.313 705.167 604.313 705.429Z" fill="#455A64"/>
<path d="M550.65 720.883C550.65 721.144 524.22 721.355 491.624 721.355C459.016 721.355 432.592 721.143 432.592 720.883C432.592 720.623 459.016 720.411 491.624 720.411C524.22 720.409 550.65 720.621 550.65 720.883Z" fill="#455A64"/>
<path d="M607.706 750.963L602.37 745.611L597.291 750.678L597.315 735.36L607.729 735.376L607.706 750.963ZM602.372 744.945L602.539 745.11L607.235 749.823L607.257 735.845L597.785 735.83L597.763 749.539L602.372 744.945Z" fill="#263238"/>
<path d="M465.637 748.971L463.754 748.132C462.844 748.624 462.047 748.868 461.317 748.873C458.433 748.897 456.069 746.569 456.045 743.687C456.021 740.803 458.35 738.438 461.233 738.415C464.117 738.391 466.482 740.719 466.505 743.601C466.516 744.885 466.053 746.118 465.203 747.088L465.637 748.971ZM461.237 738.772C458.551 738.794 456.383 740.997 456.405 743.683C456.426 746.369 458.629 748.537 461.315 748.515C462.005 748.51 462.772 748.267 463.661 747.776L463.739 747.733L465.127 748.352L464.813 746.988L464.876 746.919C465.706 746.007 466.158 744.831 466.147 743.607C466.126 740.919 463.923 738.751 461.237 738.772Z" fill="#263238"/>
<path d="M477.743 748.163L475.585 742.896L471.539 739.21L481.355 739.132L477.743 748.163ZM472.454 739.56L475.901 742.724L477.739 747.209L480.822 739.493L472.454 739.56Z" fill="#263238"/>
<path d="M481.153 739.179L475.801 742.661L475.996 742.961L481.348 739.479L481.153 739.179Z" fill="#263238"/>
<path d="M450.193 740.309C449.912 738.907 448.525 737.813 447.095 737.872C445.679 737.928 444.395 739.106 444.206 740.51C443.995 739.11 442.692 737.953 441.275 737.919C439.846 737.884 438.475 738.999 438.217 740.407C438.028 741.431 438.384 742.495 438.963 743.361C439.543 744.228 440.333 744.927 441.112 745.617C442.205 746.583 443.215 747.491 444.31 748.457C445.386 747.473 446.304 746.55 447.38 745.566C448.15 744.863 448.928 744.151 449.492 743.278C450.059 742.399 450.397 741.329 450.193 740.309Z" fill="#E8505B"/>
<path d="M618.642 764.514C618.642 764.514 618.62 763.926 618.609 762.805C618.602 761.669 618.591 760.011 618.576 757.837C618.558 753.455 618.533 747.012 618.5 738.663C618.46 721.973 618.402 697.691 618.329 667.233L618.64 667.545C548.768 667.583 444.469 667.641 328.232 667.707H328.214L328.686 667.235C328.681 701.043 328.676 733.838 328.672 764.516L328.214 764.058C411.816 764.144 484.358 764.218 536.025 764.271C561.877 764.325 582.503 764.369 596.69 764.4C603.774 764.425 609.244 764.445 612.969 764.46C614.812 764.472 616.219 764.482 617.189 764.489C618.141 764.494 618.642 764.514 618.642 764.514C618.642 764.514 618.181 764.534 617.247 764.543C616.29 764.551 614.903 764.56 613.083 764.572C609.382 764.585 603.943 764.605 596.901 764.63C582.739 764.661 562.15 764.705 536.341 764.759C484.596 764.812 411.943 764.886 328.214 764.972H327.757V764.514C327.751 733.837 327.746 701.041 327.742 667.233V666.761H328.214H328.232C444.471 666.826 548.768 666.882 618.64 666.922H618.952V667.235C618.88 697.773 618.822 722.118 618.782 738.852C618.749 747.17 618.722 753.591 618.705 757.957C618.691 760.107 618.68 761.745 618.673 762.871C618.662 763.968 618.642 764.514 618.642 764.514Z" fill="#263238"/>
<path d="M340.312 683.492L339.945 747.808L420.394 748.266L420.761 683.951L340.312 683.492Z" fill="#EBEBEB"/>
<path d="M420.739 683.944C420.73 683.953 420.596 683.96 420.336 683.965C420.04 683.971 419.668 683.976 419.196 683.984C418.152 683.989 416.686 683.998 414.803 684.009C410.935 684.013 405.358 684.02 398.308 684.027C384.16 683.998 364.109 683.958 340.289 683.909L340.714 683.488C340.619 702.638 340.512 724.577 340.398 747.796C340.496 747.911 339.517 746.901 339.942 747.328H339.964H340.007H340.094L340.269 747.329L340.617 747.331L341.315 747.335L342.706 747.342L345.479 747.358C347.324 747.369 349.16 747.38 350.985 747.391C354.637 747.413 358.253 747.435 361.823 747.456C368.965 747.502 375.937 747.547 382.696 747.591C396.209 747.689 408.874 747.78 420.373 747.863L419.977 748.254C420.171 728.941 420.333 712.92 420.445 701.671C420.52 696.076 420.58 691.673 420.621 688.613C420.649 687.136 420.67 685.985 420.687 685.155C420.709 684.37 420.739 683.944 420.739 683.944C420.739 683.944 420.767 684.314 420.776 685.073C420.781 685.885 420.79 687.013 420.801 688.456C420.808 691.496 420.817 695.871 420.828 701.428C420.814 712.736 420.792 728.844 420.767 748.259V748.651L420.373 748.65C408.875 748.602 396.209 748.55 382.696 748.493C375.937 748.461 368.965 748.426 361.823 748.39C358.251 748.372 354.637 748.352 350.985 748.332C349.158 748.323 347.322 748.312 345.479 748.301L342.706 748.285L341.315 748.277L340.617 748.274L340.269 748.272H340.094H340.007H339.964H339.942C340.356 748.695 339.352 747.696 339.457 747.789C339.608 724.569 339.749 702.63 339.873 683.481L339.875 683.056L340.298 683.059C364.229 683.283 384.374 683.47 398.59 683.602C405.598 683.689 411.142 683.76 414.988 683.807C416.835 683.84 418.271 683.864 419.296 683.882C419.748 683.895 420.106 683.906 420.389 683.913C420.629 683.926 420.748 683.935 420.739 683.944Z" fill="#263238"/>
<path d="M343.061 687.556L342.74 743.774L417.536 744.201L417.856 687.983L343.061 687.556Z" fill="#E0E0E0"/>
<path d="M342.725 743.768L369.046 708.972L385.105 730.927L396.148 719.301L417.518 744.193L342.725 743.768Z" fill="#F5F5F5"/>
<path d="M392.122 704.822C392.104 708.075 389.453 710.697 386.2 710.679C382.948 710.661 380.326 708.009 380.344 704.757C380.362 701.505 383.013 698.882 386.266 698.902C389.518 698.919 392.141 701.57 392.122 704.822Z" fill="#F5F5F5"/>
<path d="M475.95 266.72C475.95 266.752 475.654 266.785 475.091 266.816C474.417 266.839 473.605 266.869 472.628 266.905C470.336 266.943 467.278 266.994 463.568 267.056C455.917 267.141 445.348 267.194 433.677 267.194C422 267.194 411.431 267.141 403.78 267.056C400.07 266.994 397.012 266.943 394.72 266.905C393.743 266.87 392.931 266.839 392.257 266.816C391.694 266.785 391.398 266.752 391.398 266.72C391.398 266.687 391.694 266.654 392.257 266.623C392.931 266.6 393.743 266.571 394.72 266.534C397.01 266.496 400.07 266.445 403.78 266.384C411.431 266.298 422 266.246 433.677 266.246C445.35 266.246 455.917 266.298 463.568 266.384C467.278 266.445 470.338 266.496 472.628 266.534C473.605 266.569 474.417 266.598 475.091 266.623C475.654 266.656 475.95 266.687 475.95 266.72Z" fill="#263238"/>
<path d="M594.798 622.258L586.869 614.305L579.32 621.835L579.355 599.071L594.833 599.095L594.798 622.258ZM586.873 613.316L587.122 613.563L594.103 620.567L594.135 599.794L580.058 599.772L580.027 620.146L586.873 613.316Z" fill="#263238"/>
<path d="M393.479 619.862L389.772 618.21C387.982 619.18 386.411 619.657 384.975 619.67C379.298 619.715 374.643 615.135 374.598 609.46C374.553 603.785 379.133 599.131 384.809 599.086C390.484 599.04 395.139 603.62 395.184 609.295C395.204 611.823 394.296 614.251 392.622 616.16L393.479 619.862ZM384.815 599.788C379.527 599.83 375.261 604.167 375.303 609.453C375.344 614.739 379.681 619.007 384.969 618.963C386.328 618.953 387.837 618.475 389.587 617.509L389.742 617.422L392.473 618.642L391.854 615.956L391.979 615.82C393.612 614.026 394.501 611.709 394.481 609.299C394.438 604.012 390.103 599.747 384.815 599.788Z" fill="#263238"/>
<path d="M417.304 618.274L413.057 607.906L405.092 600.647L424.41 600.491L417.304 618.274ZM406.895 601.337L413.68 607.565L417.297 616.394L423.366 601.205L406.895 601.337Z" fill="#263238"/>
<path d="M423.994 600.5L413.461 607.352L413.846 607.944L424.38 601.092L423.994 600.5Z" fill="#263238"/>
<path d="M363.078 602.812C362.524 600.052 359.793 597.902 356.98 598.014C354.192 598.125 351.662 600.444 351.294 603.206C350.881 600.451 348.314 598.172 345.526 598.105C342.713 598.04 340.015 600.233 339.506 603.001C339.136 605.017 339.835 607.112 340.975 608.816C342.116 610.519 343.67 611.898 345.205 613.254C347.357 615.155 349.345 616.942 351.497 618.846C353.618 616.91 355.423 615.092 357.543 613.156C359.057 611.774 360.588 610.372 361.701 608.651C362.816 606.929 363.481 604.822 363.078 602.812Z" fill="#E8505B"/>
<path d="M361.317 279.824C368.554 279.824 374.421 273.957 374.421 266.719C374.421 259.482 368.554 253.615 361.317 253.615C354.08 253.615 348.213 259.482 348.213 266.719C348.213 273.957 354.08 279.824 361.317 279.824Z" fill="#EBEBEB"/>
<path d="M589.848 547.079C589.848 547.341 534.896 547.551 467.125 547.551C399.33 547.551 344.391 547.339 344.391 547.079C344.391 546.819 399.33 546.607 467.125 546.607C534.896 546.605 589.848 546.818 589.848 547.079Z" fill="#455A64"/>
<path d="M589.848 526.638C589.848 526.9 534.896 527.11 467.125 527.11C399.33 527.11 344.391 526.898 344.391 526.638C344.391 526.378 399.33 526.166 467.125 526.166C534.896 526.166 589.848 526.377 589.848 526.638Z" fill="#455A64"/>
<path d="M477.996 567.791C477.996 568.052 448.084 568.263 411.196 568.263C374.295 568.263 344.391 568.05 344.391 567.791C344.391 567.531 374.295 567.318 411.196 567.318C448.084 567.318 477.996 567.531 477.996 567.791Z" fill="#455A64"/>
<path d="M461.509 790.487C461.497 793.409 459.152 795.766 456.272 795.753C453.392 795.739 451.067 793.358 451.08 790.438C451.093 787.517 453.437 785.157 456.317 785.171C459.198 785.184 461.522 787.563 461.509 790.487Z" fill="#263238"/>
<path d="M477.668 790.561C477.655 793.481 475.31 795.838 472.43 795.827C469.55 795.815 467.226 793.436 467.238 790.512C467.249 787.592 469.596 785.233 472.476 785.246C475.356 785.258 477.68 787.637 477.668 790.561Z" fill="#263238"/>
<path d="M493.828 790.636C493.817 793.556 491.471 795.916 488.59 795.902C485.71 795.889 483.386 793.51 483.398 790.587C483.411 787.665 485.756 785.307 488.636 785.32C491.516 785.333 493.841 787.712 493.828 790.636Z" fill="#263238"/>
<path d="M620.384 292.656H329.957V470.268H620.384V292.656Z" fill="#E0E0E0"/>
<path d="M356.768 470.299L439.991 358.909L491.586 428.57L526.553 391.312L595.138 470.23L356.768 470.299Z" fill="#F5F5F5"/>
<path d="M513.453 345.245C513.456 355.611 505.056 364.017 494.69 364.019C484.324 364.023 475.92 355.622 475.916 345.256C475.912 334.89 484.313 326.486 494.679 326.482C505.045 326.479 513.449 334.879 513.453 345.245Z" fill="#F5F5F5"/>
<path d="M619.601 635.333C619.597 631.534 619.425 471.085 619.172 233.561L619.601 233.99C532.019 234.003 433.294 234.019 329.208 234.033H329.175L329.647 233.561C329.615 383.813 329.584 522.868 329.558 635.333L329.173 634.948C505.293 635.182 616.432 635.329 619.601 635.333C616.434 635.337 505.294 635.484 329.175 635.718H328.79V635.333C328.765 522.87 328.736 383.815 328.701 233.561V233.089H329.173H329.206C433.292 233.105 532.017 233.12 619.599 233.133H620.027V233.561C619.94 352.44 619.866 452.927 619.815 523.707C619.766 559.047 619.726 586.968 619.701 606.068C619.679 615.591 619.661 622.913 619.65 627.866C619.639 630.323 619.63 632.19 619.624 633.457C619.617 634.708 619.601 635.333 619.601 635.333Z" fill="#263238"/>
<path d="M483.135 685.171L489.56 663.583C490.68 658.901 492.17 653.379 494.173 647.077C495.974 641.413 500.592 635.462 504.807 631.176C511.365 624.508 514.485 624.461 518.892 620.921C519.293 620.663 519.742 620.295 520.12 620.091C521.031 619.597 521.701 618.942 522.262 618.237C526.062 614.128 522.413 607.768 514.699 608.373C508.891 608.828 499.419 610.49 484.016 626.38C483.825 626.622 483.622 626.823 483.433 627.07C475.35 637.578 467.757 607.581 466.388 596.416C465.5 589.172 457.664 584.719 450.572 587.342L413.052 604.89C409.954 603.798 406.275 603.983 402.098 605.26C396.573 607.303 393.506 612.983 394.95 618.495L410.168 679.242L365.473 827.96H461.808L483.135 685.171Z" fill="#FFBE9D"/>
<path d="M557.142 548.585L527.363 606.938L512.473 602.801L437.625 663.684C431.256 668.865 421.92 668.035 416.565 661.812L388.068 628.699C388.068 628.699 445.53 603.947 456.157 583.457C466.785 562.967 454.503 558.32 454.503 558.32L481.547 527.588L557.142 548.585Z" fill="#E8505B"/>
<path d="M518.517 429.381C518.517 429.381 474.926 419.739 413.585 360.75C352.244 301.763 323.421 223.428 315.912 223.811C308.403 224.193 275.618 208.971 213.264 344.611C150.91 480.25 175.471 511.749 187.88 511.495C200.289 511.239 284.54 487.761 337.164 493.741C389.788 499.725 457.429 527.15 457.429 527.15L518.517 429.381Z" fill="#E8505B"/>
<path d="M611.12 503.314L596.249 531.589L589.586 544.255C580.45 561.629 559.314 568.809 541.484 560.598L448.053 528.044L502.466 403.822L595.812 453.568C613.73 463.115 620.571 485.342 611.12 503.314Z" fill="#E8505B"/>
<g opacity="0.4">
<path d="M611.12 503.314L596.249 531.589L589.586 544.255C580.45 561.629 559.314 568.809 541.484 560.598L448.053 528.044L502.466 403.822L595.812 453.568C613.73 463.115 620.571 485.342 611.12 503.314Z" fill="black"/>
</g>
<path d="M218.301 347.081C185.115 420.558 171.301 486.034 187.447 493.326C203.591 500.619 243.581 446.963 276.767 373.486C309.951 300.011 323.765 234.535 307.621 227.243C291.476 219.952 251.488 273.604 218.301 347.081Z" fill="#E8505B"/>
<g opacity="0.5">
<path d="M218.301 347.081C185.115 420.558 171.301 486.034 187.447 493.326C203.591 500.619 243.581 446.963 276.767 373.486C309.951 300.011 323.765 234.535 307.621 227.243C291.476 219.952 251.488 273.604 218.301 347.081Z" fill="black"/>
</g>
<path d="M619.141 544.168L593.816 536.216L609.487 506.419L628.478 518.225L619.141 544.168Z" fill="#E8505B"/>
<g opacity="0.6">
<path d="M609.487 506.419L593.816 536.216L599.019 537.852L611.76 507.832L609.487 506.419Z" fill="black"/>
</g>
<path d="M592.038 513.292C591.666 514.111 579.028 509.199 563.812 502.32C548.583 495.441 536.55 489.201 536.92 488.382C537.289 487.565 549.925 492.477 565.148 499.356C580.368 506.235 592.405 512.475 592.038 513.292Z" fill="#E8505B"/>
<path d="M599.826 495.546C599.426 496.355 587.991 491.533 574.28 484.783C560.564 478.028 549.773 471.902 550.171 471.094C550.567 470.29 561.998 475.109 575.716 481.865C589.427 488.615 600.222 494.74 599.826 495.546Z" fill="#E8505B"/>
<path d="M582.214 531.906C582.08 532.339 579.073 531.645 574.273 530.161C571.876 529.422 569.036 528.483 565.892 527.396C562.77 526.264 559.529 524.626 556.057 523.052C542.202 516.621 531.624 510.325 531.969 509.579C532.38 508.696 543.688 513.728 557.413 520.097C560.856 521.657 564.049 523.375 567.06 524.633C570.083 525.854 572.795 526.996 575.057 528C579.587 530.011 582.345 531.476 582.214 531.906Z" fill="#E8505B"/>
<path d="M285.957 330.741C285.957 330.741 248.069 307.247 227.34 358.435C206.612 409.623 246.473 418.04 246.473 418.04C262.786 392.743 276.038 363.754 285.957 330.741Z" fill="#E8505B"/>
<g opacity="0.5">
<path d="M326.249 269.736C326.471 269.774 325.931 273.25 324.766 279.515C323.567 285.769 321.873 294.849 319.443 305.998C317.841 311.488 316.091 317.484 314.213 323.911C313.263 327.132 312.279 330.459 311.269 333.888C310.761 335.604 310.245 337.342 309.722 339.103C309.155 340.852 308.418 342.567 307.759 344.334C305.029 351.378 302.167 358.763 299.2 366.42C298.455 368.334 297.704 370.264 296.944 372.211C296.207 374.167 295.167 376.006 294.282 377.933C292.43 381.75 290.552 385.626 288.651 389.545C286.744 393.464 284.859 397.335 283.001 401.153C282.035 403.039 281.229 404.997 280.15 406.788C279.088 408.587 278.034 410.374 276.99 412.143C272.806 419.209 268.767 426.028 264.918 432.529C263.933 434.14 263.043 435.78 262.017 437.307C260.953 438.811 259.904 440.295 258.867 441.756C256.795 444.675 254.781 447.51 252.834 450.252C248.937 455.705 245.301 460.794 241.972 465.452C234.728 474.23 228.652 481.155 224.479 485.96C220.28 490.745 217.876 493.324 217.703 493.18C217.531 493.039 219.605 490.187 223.502 485.155C227.544 480.029 233.221 472.832 240.193 463.993C243.398 459.299 246.896 454.171 250.647 448.674C252.532 445.926 254.483 443.086 256.491 440.164C257.497 438.704 258.518 437.22 259.553 435.72C260.55 434.195 261.418 432.549 262.377 430.94C266.149 424.452 270.106 417.647 274.206 410.596C275.236 408.832 276.271 407.056 277.319 405.264C278.385 403.482 279.177 401.538 280.132 399.658C281.97 395.866 283.837 392.018 285.723 388.125C287.616 384.235 289.486 380.39 291.329 376.602C292.214 374.692 293.256 372.867 293.993 370.927C294.754 368.998 295.51 367.084 296.26 365.188C299.267 357.609 302.171 350.294 304.937 343.32C305.61 341.571 306.364 339.875 306.949 338.146C307.49 336.403 308.024 334.682 308.552 332.985C309.609 329.597 310.637 326.302 311.632 323.119C313.635 316.767 315.502 310.839 317.216 305.413C319.85 294.492 321.993 285.6 323.52 279.266C325.069 273.097 326.03 269.698 326.249 269.736Z" fill="black"/>
</g>
<g opacity="0.4">
<path d="M397.146 624.633C400.602 630.908 404.129 637.28 409.245 642.294C414.359 647.308 421.383 650.86 428.511 650.143C435.637 649.425 442.39 643.505 442.467 636.343C445.888 638.912 451.129 637.52 453.964 634.314C456.797 631.109 457.717 626.653 458.057 622.387C462.702 625.127 469.164 622.953 472.264 618.541C475.363 614.128 475.556 608.182 474.054 603.001C472.552 597.822 469.552 593.226 466.596 588.715C470.173 589.003 473.961 589.254 477.163 587.632C480.365 586.011 482.524 581.778 480.657 578.712C479.562 576.912 477.459 576.019 475.449 575.391C469.843 573.636 465.909 572.231 460.073 572.908C458.718 572.921 462.408 588.301 425.779 609.334C404.154 621.755 397.146 624.633 397.146 624.633Z" fill="black"/>
</g>
<path d="M479.63 646.854C479.606 647.023 477.167 646.556 473.214 646.661C469.284 646.75 463.791 647.613 458.366 650.215C452.938 652.816 448.827 656.56 446.295 659.568C443.736 662.582 442.574 664.776 442.427 664.689C442.374 664.662 442.611 664.086 443.144 663.1C443.677 662.112 444.541 660.732 445.778 659.145C448.22 655.972 452.373 652.037 457.958 649.362C463.538 646.685 469.206 645.91 473.208 645.993C475.22 646.024 476.839 646.213 477.941 646.418C479.045 646.618 479.641 646.796 479.63 646.854Z" fill="#EB996E"/>
<path d="M399.535 614.88C405.435 620.547 409.47 626.803 415.659 632.511C418.472 635.104 422.84 640.018 426.61 640.672C430.38 641.326 432.795 640.825 434.286 637.302C435.494 634.449 433.325 630.55 431.825 628.198C427.883 622.013 424.113 617.179 421.16 612.37C419.778 610.118 421.569 609.653 422.221 610.696C425.061 613.639 429.298 616.191 431.84 619.396C435.323 623.785 435.955 629.596 445.07 627.759C446.274 627.515 447.478 627.099 448.453 626.353C451.883 623.727 452.028 619.162 450.583 615.504C449.452 612.639 447.465 610.207 445.509 607.828C449.388 612.208 453.623 616.821 459.79 617.318C463.377 617.607 466.978 615.938 468.427 612.644C470.252 608.5 467.635 604.494 465.009 601.254C460.355 595.512 455.161 590.207 449.521 585.431C447.421 583.653 444.744 582.658 441.991 582.64C438.801 582.62 434.807 583.219 432.837 585.994C429.258 591.032 430.36 595.487 430.36 595.487C430.36 595.487 422.359 591.43 415.93 595.674C409.501 599.916 407.911 607.209 407.911 607.209L399.535 614.88Z" fill="#FFBE9D"/>
<path d="M442.112 580.884C439.635 578.391 439.057 573.829 440.979 570.062C442.339 567.395 444.057 564.803 445.796 564.217C453.407 561.649 486.66 567.402 486.357 574.782C486.044 582.36 483.626 585.696 465.578 583.09C462.404 582.633 457.422 582.006 457.422 582.006L453.068 588.544L442.112 580.884Z" fill="#FFBE9D"/>
<path d="M448.066 611.787C447.803 611.949 445.271 606.786 440.105 602.157C434.991 597.466 429.606 595.452 429.741 595.174C429.779 595.071 431.168 595.428 433.262 596.414C435.352 597.393 438.111 599.079 440.74 601.456C443.361 603.838 445.307 606.419 446.488 608.404C447.674 610.39 448.168 611.74 448.066 611.787Z" fill="#EB996E"/>
<path d="M453.662 589.109C453.497 589.263 451.302 587.472 448.307 585.64C446.818 584.723 445.436 583.953 444.405 583.49C443.377 583.007 442.696 582.874 442.699 582.733C442.692 582.611 443.48 582.513 444.635 582.862C445.79 583.189 447.276 583.895 448.805 584.836C451.874 586.712 453.884 588.909 453.662 589.109Z" fill="#EB996E"/>
<path d="M459.246 582.248C459.224 582.447 456.329 582.531 452.841 581.527C451.108 580.996 449.646 580.161 448.742 579.38C447.829 578.603 447.449 577.953 447.538 577.877C447.712 577.715 449.779 579.68 453.119 580.624C456.418 581.579 459.295 581.934 459.246 582.248Z" fill="#EB996E"/>
<path d="M426.925 620.923C426.818 620.999 425.641 619.499 423.892 616.982C422.107 614.525 419.835 610.857 416.131 608.16C412.424 605.46 408.06 604.819 405.136 605.247C402.153 605.663 400.596 606.894 400.504 606.72C400.473 606.678 400.822 606.339 401.564 605.881C402.3 605.411 403.484 604.897 405.027 604.588C408.086 603.96 412.747 604.526 416.681 607.392C420.596 610.254 422.802 614.068 424.45 616.614C426.057 619.225 427.03 620.849 426.925 620.923Z" fill="#EB996E"/>
<path d="M452.366 694.471C452.395 694.731 446.307 695.606 438.775 696.425C431.238 697.244 425.107 697.698 425.08 697.438C425.051 697.179 431.137 696.303 438.673 695.484C446.206 694.665 452.337 694.211 452.366 694.471Z" fill="#EB996E"/>
<path d="M738.443 90.5166L740.491 94.2648L744.24 96.3133L740.491 98.3654L738.443 102.112L736.393 98.3654L732.643 96.3133L736.393 94.2648L738.443 90.5166Z" fill="#E8505B"/>
<path d="M781.308 183.441L783.359 187.19L787.107 189.24L783.359 191.29L781.308 195.038L779.26 191.29L775.51 189.24L779.26 187.19L781.308 183.441Z" fill="#E8505B"/>
<path d="M94.2557 431.36L96.3059 435.11L100.054 437.16L96.3059 439.209L94.2557 442.957L92.2072 439.209L88.459 437.16L92.2072 435.11L94.2557 431.36Z" fill="#E8505B"/>
<path d="M682.202 113.613L686.936 122.268L695.591 127.002L686.936 131.736L682.202 140.393L677.468 131.736L668.812 127.002L677.468 122.268L682.202 113.613Z" fill="#E8505B"/>
<path d="M132.679 372.456L137.402 381.093L146.039 385.816L137.402 390.54L132.679 399.177L127.955 390.54L119.318 385.816L127.955 381.093L132.679 372.456Z" fill="#E8505B"/>
<path d="M792.972 578.514L797.695 587.151L806.332 591.874L797.695 596.599L792.972 605.236L788.248 596.599L779.611 591.874L788.248 587.151L792.972 578.514Z" fill="#E8505B"/>
</svg>
